<svg width="48" height="48" viewBox="0 0 48 48" fill="none" xmlns="http://www.w3.org/2000/svg">
<path d="M24 26C23.3911 25.9929 22.7946 26.1725 22.2909 26.5146C21.7871 26.8567 21.4003 27.345 21.1824 27.9136C20.9646 28.4822 20.9261 29.104 21.0723 29.6951C21.2185 30.2863 21.5422 30.8184 22 31.22V34C22 34.5304 22.2107 35.0391 22.5858 35.4142C22.9609 35.7893 23.4696 36 24 36C24.5304 36 25.0391 35.7893 25.4142 35.4142C25.7893 35.0391 26 34.5304 26 34V31.22C26.4578 30.8184 26.7815 30.2863 26.9277 29.6951C27.0739 29.104 27.0354 28.4822 26.8176 27.9136C26.5997 27.345 26.2129 26.8567 25.7091 26.5146C25.2054 26.1725 24.6089 25.9929 24 26ZM34 18V14C34 11.3478 32.9464 8.8043 31.0711 6.92893C29.1957 5.05357 26.6522 4 24 4C21.3478 4 18.8043 5.05357 16.9289 6.92893C15.0536 8.8043 14 11.3478 14 14V18C12.4087 18 10.8826 18.6321 9.75736 19.7574C8.63214 20.8826 8 22.4087 8 24V38C8 39.5913 8.63214 41.1174 9.75736 42.2426C10.8826 43.3679 12.4087 44 14 44H34C35.5913 44 37.1174 43.3679 38.2426 42.2426C39.3679 41.1174 40 39.5913 40 38V24C40 22.4087 39.3679 20.8826 38.2426 19.7574C37.1174 18.6321 35.5913 18 34 18ZM18 14C18 12.4087 18.6321 10.8826 19.7574 9.75736C20.8826 8.63214 22.4087 8 24 8C25.5913 8 27.1174 8.63214 28.2426 9.75736C29.3679 10.8826 30 12.4087 30 14V18H18V14ZM36 38C36 38.5304 35.7893 39.0391 35.4142 39.4142C35.0391 39.7893 34.5304 40 34 40H14C13.4696 40 12.9609 39.7893 12.5858 39.4142C12.2107 39.0391 12 38.5304 12 38V24C12 23.4696 12.2107 22.9609 12.5858 22.5858C12.9609 22.2107 13.4696 22 14 22H34C34.5304 22 35.0391 22.2107 35.4142 22.5858C35.7893 22.9609 36 23.4696 36 24V38Z" fill="black"/>
</svg>
