<svg width="48" height="48" viewBox="0 0 48 48" fill="none" xmlns="http://www.w3.org/2000/svg">
<path d="M13.1999 2.3999C13.5182 2.3999 13.8234 2.52633 14.0484 2.75137C14.2735 2.97642 14.3999 3.28164 14.3999 3.5999V15.5999C14.3999 15.9182 14.5263 16.2234 14.7514 16.4484C14.9764 16.6735 15.2816 16.7999 15.5999 16.7999C15.9182 16.7999 16.2234 16.6735 16.4484 16.4484C16.6735 16.2234 16.7999 15.9182 16.7999 15.5999V5.9999C16.7999 5.68164 16.9263 5.37642 17.1514 5.15137C17.3764 4.92633 17.6816 4.7999 17.9999 4.7999C18.3182 4.7999 18.6234 4.92633 18.8484 5.15137C19.0735 5.37642 19.1999 5.68164 19.1999 5.9999V16.2023C19.4351 16.1423 19.6847 16.0919 19.9511 16.0583C20.7095 15.9623 21.6023 16.0079 22.5119 16.3871C23.4287 16.7687 24.2807 17.4599 24.9983 18.5351C25.096 18.6816 25.1603 18.8478 25.1866 19.022C25.2128 19.1961 25.2004 19.3739 25.1503 19.5427C25.1001 19.7116 25.0134 19.8673 24.8963 19.9988C24.7792 20.1304 24.6346 20.2345 24.4727 20.3039C20.8655 21.8495 18.9767 24.0767 17.9735 25.9823C16.6679 28.4591 14.1287 31.1999 10.7999 31.1999H10.1663C9.05205 31.1999 7.95982 30.8896 7.01199 30.3037C6.06417 29.7179 5.2982 28.8797 4.7999 27.8831L3.2879 24.8567C2.70439 23.6906 2.40036 22.4047 2.3999 21.1007V5.9999C2.3999 5.68164 2.52633 5.37642 2.75137 5.15137C2.97642 4.92633 3.28164 4.7999 3.5999 4.7999C3.91816 4.7999 4.22339 4.92633 4.44843 5.15137C4.67347 5.37642 4.7999 5.68164 4.7999 5.9999V15.5999C4.7999 15.9182 4.92633 16.2234 5.15137 16.4484C5.37642 16.6735 5.68164 16.7999 5.9999 16.7999C6.31816 16.7999 6.62339 16.6735 6.84843 16.4484C7.07347 16.2234 7.1999 15.9182 7.1999 15.5999V3.5999C7.1999 3.28164 7.32633 2.97642 7.55137 2.75137C7.77642 2.52633 8.08164 2.3999 8.3999 2.3999C8.71816 2.3999 9.02339 2.52633 9.24843 2.75137C9.47347 2.97642 9.5999 3.28164 9.5999 3.5999V15.5999C9.5999 15.9182 9.72633 16.2234 9.95137 16.4484C10.1764 16.6735 10.4816 16.7999 10.7999 16.7999C11.1182 16.7999 11.4234 16.6735 11.6484 16.4484C11.8735 16.2234 11.9999 15.9182 11.9999 15.5999V3.5999C11.9999 3.28164 12.1263 2.97642 12.3514 2.75137C12.5764 2.52633 12.8816 2.3999 13.1999 2.3999ZM20.0975 27.1007C19.2793 28.6607 18.1811 30.0567 16.8575 31.2191C17.1067 33.8967 18.1679 36.4343 19.8989 38.4923C21.6298 40.5503 23.9481 42.0305 26.5434 42.7349C29.1387 43.4392 31.8873 43.3341 34.4212 42.4335C36.9551 41.5329 39.1535 39.8799 40.7222 37.6957C42.2908 35.5114 43.155 32.9002 43.1989 30.2113C43.2429 27.5225 42.4645 24.8844 40.968 22.6501C39.4715 20.4158 37.3283 18.6918 34.8252 17.7089C32.3221 16.726 29.5784 16.5311 26.9615 17.1503L26.9951 17.2031C27.2878 17.6426 27.4803 18.1411 27.5588 18.6632C27.6374 19.1854 27.6001 19.7185 27.4496 20.2246C27.2991 20.7307 27.0392 21.1976 26.6881 21.5921C26.3371 21.9865 25.9036 22.2989 25.4183 22.5071C22.3487 23.8247 20.8607 25.6511 20.0975 27.1007ZM25.7999 29.9999C25.5635 29.9999 25.3295 29.9533 25.1111 29.8629C24.8927 29.7724 24.6943 29.6398 24.5271 29.4727C24.36 29.3055 24.2274 29.1071 24.1369 28.8887C24.0465 28.6703 23.9999 28.4363 23.9999 28.1999C23.9999 27.9635 24.0465 27.7295 24.1369 27.5111C24.2274 27.2927 24.36 27.0943 24.5271 26.9271C24.6943 26.76 24.8927 26.6274 25.1111 26.5369C25.3295 26.4465 25.5635 26.3999 25.7999 26.3999C26.2773 26.3999 26.7351 26.5895 27.0727 26.9271C27.4103 27.2647 27.5999 27.7225 27.5999 28.1999C27.5999 28.6773 27.4103 29.1351 27.0727 29.4727C26.7351 29.8103 26.2773 29.9999 25.7999 29.9999ZM35.9999 28.1999C35.9999 28.6773 35.8103 29.1351 35.4727 29.4727C35.1351 29.8103 34.6773 29.9999 34.1999 29.9999C33.7225 29.9999 33.2647 29.8103 32.9271 29.4727C32.5895 29.1351 32.3999 28.6773 32.3999 28.1999C32.3999 27.7225 32.5895 27.2647 32.9271 26.9271C33.2647 26.5895 33.7225 26.3999 34.1999 26.3999C34.6773 26.3999 35.1351 26.5895 35.4727 26.9271C35.8103 27.2647 35.9999 27.7225 35.9999 28.1999ZM26.2727 34.2623C26.4791 34.6751 27.5927 35.9999 29.9999 35.9999C32.4047 35.9999 33.5207 34.6751 33.7271 34.2623C33.797 34.1202 33.8943 33.9933 34.0134 33.8889C34.1325 33.7846 34.2711 33.7048 34.4212 33.6543C34.5713 33.6038 34.7299 33.5835 34.8879 33.5945C35.0459 33.6056 35.2001 33.6478 35.3417 33.7188C35.4833 33.7897 35.6094 33.888 35.7128 34.0079C35.8163 34.1279 35.8949 34.2671 35.9443 34.4176C35.9936 34.568 36.0127 34.7268 36.0005 34.8847C35.9882 35.0426 35.9447 35.1965 35.8727 35.3375C35.2799 36.5255 33.3527 38.3999 29.9999 38.3999C26.6447 38.3999 24.7199 36.5255 24.1271 35.3375C24.0551 35.1965 24.0116 35.0426 23.9994 34.8847C23.9871 34.7268 24.0062 34.568 24.0555 34.4176C24.1049 34.2671 24.1835 34.1279 24.287 34.0079C24.3904 33.888 24.5165 33.7897 24.6581 33.7188C24.7997 33.6478 24.9539 33.6056 25.1119 33.5945C25.2699 33.5835 25.4285 33.6038 25.5786 33.6543C25.7287 33.7048 25.8673 33.7846 25.9864 33.8889C26.1056 33.9933 26.2029 34.1202 26.2727 34.2623Z" fill="black"/>
</svg>
