<svg width="40" height="46" viewBox="0 0 40 46" fill="none" xmlns="http://www.w3.org/2000/svg">
<path d="M6.9175 0L5.3061 1.61139H2.7509L1.1395 0H6.9175ZM5.63989 26.588H2.41711V24.9766H5.63989V26.588ZM4.87556 35.7823L5.96467 42.862C6.05172 43.4271 5.8877 44.0019 5.51543 44.4357C5.14315 44.8694 4.60003 45.1191 4.02853 45.1191C3.45703 45.1191 2.9139 44.8695 2.54163 44.4357C2.16935 44.0019 2.00534 43.4271 2.09238 42.862L3.18113 35.7823C3.20882 35.6028 3.22285 35.4212 3.22285 35.2392V33.0649C3.22357 32.3599 3.01495 31.6707 2.62326 31.0845L2.22616 30.4892C1.88913 29.9867 1.80461 29.3561 1.99776 28.7829L2.19235 28.1995H5.86513L6.05972 28.7829H6.05936C6.25252 29.3562 6.16799 29.9867 5.83096 30.4892L5.43387 31.0848V31.0845C5.04217 31.6708 4.83355 32.36 4.83427 33.0649V35.2392C4.83427 35.4208 4.8483 35.6025 4.87563 35.7823L4.87556 35.7823ZM5.07015 19.5726C4.87988 19.7633 4.79715 20.0363 4.84967 20.3003L5.46293 23.3651H2.5941L3.207 20.3003H3.20736C3.25988 20.0362 3.17715 19.7633 2.98688 19.5726L0 16.5857V1.13939L1.8473 2.98669C1.99837 3.13776 2.20339 3.22265 2.41704 3.22265H5.63983C5.85348 3.22265 6.0585 3.13776 6.20957 2.98669L8.05687 1.13939V16.5857L5.07015 19.5726Z" fill="black"/>
<path d="M19.3361 3.22266L18.1276 4.83405H15.7105L14.502 3.22266H19.3361ZM18.5304 26.5879H15.3077V24.9765H18.5304V26.5879ZM17.7661 35.7822L18.8552 42.8619C18.9423 43.427 18.7782 44.0018 18.406 44.4355C18.0337 44.8693 17.4906 45.1189 16.9191 45.1189C16.3476 45.1189 15.8045 44.8693 15.4322 44.4355C15.0599 44.0018 14.8959 43.427 14.9829 42.8619L16.0717 35.7822C16.0994 35.6027 16.1134 35.4211 16.1134 35.2391V33.0648C16.1141 32.3598 15.9055 31.6706 15.5138 31.0843L15.1167 30.4891C14.7797 29.9866 14.6952 29.356 14.8883 28.7827L15.0829 28.1993H18.7557L18.9503 28.7827H18.9499C19.1431 29.3561 19.0585 29.9866 18.7215 30.4891L18.3244 31.0847V31.0843C17.9327 31.6706 17.7241 32.3598 17.7248 33.0648V35.2391C17.7248 35.4207 17.7388 35.6023 17.7662 35.7822L17.7661 35.7822ZM17.8855 19.659H17.8859C17.7485 19.8425 17.6956 20.0756 17.7402 20.3004L18.3535 23.3652H15.4847L16.0975 20.3004H16.0979C16.1425 20.0756 16.0896 19.8425 15.9522 19.659L13.6963 16.651V4.83442L14.6631 6.12353C14.8153 6.32639 15.0541 6.44581 15.3077 6.44581H18.5305C18.784 6.44581 19.0229 6.32639 19.175 6.12353L20.1419 4.83442V16.651L17.8855 19.659Z" fill="black"/>
<path d="M27.3692 19.9473L26.5876 16.8206V9.66859H29.8104V16.8206L29.0288 19.947V19.9473C28.9996 20.0628 28.9967 20.1836 29.0201 20.3005L29.6334 23.3654H26.7646L27.3775 20.3005H27.3778C27.4012 20.1836 27.3983 20.0628 27.3692 19.9473L27.3692 19.9473ZM29.8104 24.9768V26.5882H26.5876V24.9768H29.8104ZM29.8104 6.4458V8.05719H26.5876V6.4458H29.8104ZM29.0461 35.7824L30.1352 42.8621C30.2222 43.4271 30.0582 44.0019 29.6859 44.4357C29.3136 44.8695 28.7705 45.1191 28.199 45.1191C27.6275 45.1191 27.0844 44.8695 26.7121 44.4357C26.3398 44.0019 26.1758 43.4272 26.2629 42.8621L27.3516 35.7824C27.3793 35.6029 27.3933 35.4212 27.3933 35.2392V33.065C27.3941 32.36 27.1854 31.6708 26.7938 31.0845L26.3967 30.4892C26.0596 29.9868 25.9751 29.3562 26.1683 28.7829L26.3628 28.1995H30.0356L30.2302 28.7829H30.2299C30.423 29.3562 30.3385 29.9868 30.0015 30.4892L29.6044 31.0849V31.0845C29.2127 31.6708 29.004 32.36 29.0048 33.065V35.2392C29.0048 35.4209 29.0188 35.6025 29.0461 35.7824L29.0461 35.7824Z" fill="black"/>
<path d="M37.0618 20.1425V12.8912H38.6731V20.1425C38.6731 20.1957 38.6785 20.2486 38.6886 20.3004L39.3019 23.3653H36.4331L37.0459 20.3004H37.0463C37.0564 20.2486 37.0618 20.1957 37.0618 20.1425H37.0618ZM39.4788 24.9767V26.5881H36.2561V24.9767H39.4788ZM38.6731 9.66846V11.2798H37.0618V9.66846H38.6731ZM38.7145 35.7822L39.8036 42.8619C39.8907 43.427 39.7267 44.0018 39.3544 44.4356C38.9821 44.8694 38.439 45.119 37.8675 45.119C37.296 45.119 36.7529 44.8694 36.3806 44.4356C36.0083 44.0018 35.8443 43.427 35.9313 42.8619L37.0201 35.7822C37.0478 35.6027 37.0618 35.4211 37.0618 35.2391V33.0648C37.0625 32.3598 36.8539 31.6707 36.4622 31.0844L36.0651 30.4891C35.7281 29.9866 35.6436 29.3561 35.8367 28.7828L36.0313 28.1994H39.7041L39.8987 28.7828H39.8983C40.0915 29.3561 40.0069 29.9866 39.6699 30.4891L39.2728 31.0848V31.0844C38.8811 31.6707 38.6725 32.3599 38.6732 33.0648V35.2391C38.6732 35.4208 38.6873 35.6024 38.7146 35.7822L38.7145 35.7822Z" fill="black"/>
</svg>
