<svg width="244" height="300" viewBox="0 0 244 300" fill="none" xmlns="http://www.w3.org/2000/svg">
<path d="M106.383 283.015C107.199 277.733 107.906 273.118 108.68 268.111C108.232 267.983 107.237 267.346 106.407 267.521C102.526 268.34 98.841 266.876 95.0597 266.804C88.2053 266.679 82.7068 263.169 77.0336 260.064C73.791 258.285 70.7454 256.1 67.429 254.477C64.4467 253.023 62.2928 250.959 60.2893 248.343C56.6388 243.588 52.6756 239.052 48.6659 234.577C42.0153 227.141 35.2269 219.829 28.5161 212.45C26.6303 210.375 24.7871 208.253 22.9275 206.163C19.3063 202.078 15.3192 198.425 10.7921 195.324C7.9583 193.376 5.31382 191.15 2.64411 188.962C1.98057 188.427 1.37816 187.652 1.07975 186.868C0.403238 185.116 1.28965 183.788 3.206 183.798C6.64047 183.822 10.074 184.03 13.5095 184.18C14.0117 184.198 14.5314 184.516 15.0073 184.446C19.7256 183.733 24.4371 182.968 29.4876 182.174C30.7245 183.843 32.0255 185.545 33.2877 187.28C37.942 193.697 42.337 200.327 47.2855 206.512C52.783 213.375 58.0717 220.481 65.0422 226.022C65.8165 226.633 66.65 227.165 67.9419 227.224C66.8022 226.039 65.58 224.911 64.5355 223.649C60.1652 218.299 55.756 212.981 51.5284 207.517C44.8678 198.932 38.6849 190.012 32.8274 180.855C30.6984 177.519 28.2596 174.367 25.7567 171.285C24.5548 169.802 23.9123 168.317 23.8438 166.444C23.7108 162.994 24.1536 159.304 23.0542 156.174C22.0073 153.221 19.1977 150.904 17.3116 148.211C11.4301 139.833 7.09847 130.766 6.17574 120.421C5.67882 114.896 6.78358 109.454 8.0253 104.073C8.48513 102.101 8.9838 100.096 9.06579 98.0824C9.33991 91.9691 9.45765 85.8626 9.55693 79.7435C9.58941 77.8261 9.33148 75.9215 9.24741 74.0003C9.19752 72.7581 9.23213 71.5032 9.22983 70.223C10.7866 69.6893 12.0618 69.2665 13.8129 68.6706C14.9462 75.0312 14.2284 81.6429 16.8662 87.705C19.399 93.5164 21.0675 99.7283 25.1328 104.859C23.6693 99.037 25.0295 93.4983 26.2819 87.9509C26.4807 87.0738 26.6165 86.186 26.6988 85.3051C27.4183 77.8114 30.8306 71.3951 34.8509 65.27C37.0917 61.8504 39.8852 58.7871 42.0842 55.3336C45.8404 49.4126 51.0093 44.7771 55.8109 39.8309C58.6423 36.9182 62.2122 34.7163 65.474 32.2279C70.0827 28.7047 74.2368 24.9194 76.3643 19.2173C77.1611 17.0696 79.2071 15.4402 81.6584 14.6838C82.1544 16.7078 81.437 21.5917 80.1362 24.2941C79.1393 26.3701 78.0521 28.4276 76.7928 30.3404C74.8996 33.212 74.7937 36.4173 75.12 39.5768C75.4891 43.2044 76.3216 46.7805 77.0347 50.8004C81.5891 50.9458 86.1922 51.6934 90.6211 51.1191C105.643 49.1635 116.912 38.7685 119.31 23.4885C119.374 23.1097 119.556 22.6765 119.435 22.355C118.075 18.5917 119.462 15.0976 120.339 11.5094C120.654 10.2243 120.343 8.7383 120.127 7.38245C119.666 4.51534 121.392 1.91958 124.701 0.915301C125.008 1.38532 125.517 1.86887 125.649 2.43607C127.226 9.20257 130.223 15.7055 128.747 22.9905C127.396 29.6568 126.115 36.3066 121.975 41.949C121.075 43.1702 120.124 44.4428 118.937 45.3542C117.011 46.8486 115.476 48.3079 114.57 50.8141C113.855 52.7792 111.687 54.2931 109.981 55.8136C106.253 59.1103 102.493 62.3904 98.5674 65.454C97.1001 66.6015 95.1112 67.7987 93.4076 67.7389C89.9284 67.6136 87.327 70.1582 83.9343 70.1679C82.9184 70.172 81.9456 71.9828 80.8687 72.8446C79.113 74.2554 77.3438 75.6624 75.4588 76.8819C73.3214 78.2646 71.6833 79.7016 71.8337 82.6271C71.9695 85.4234 71.6993 88.2509 71.4679 91.0453C71.2792 93.3813 71.4838 95.6016 72.4295 97.776C74.4656 102.468 77.0884 106.753 79.9432 111.024C83.7085 116.665 88.7256 117.972 94.7912 117.667C96.5822 117.575 98.3004 117.455 99.9839 118.487C100.747 118.955 101.968 118.722 102.981 118.754C104.003 118.781 105.047 118.601 106.039 118.759C107.608 119.008 109.575 118.841 109.854 121.135C110.148 123.557 108.53 126.081 106.454 126.503C105.58 126.68 104.67 126.648 103.783 126.741C97.1639 127.388 92.867 131.081 90.1024 136.955C86.3662 144.867 86.2646 153.081 88.2823 161.341C89.3121 165.54 91.0373 169.569 92.5449 173.639C92.9405 174.701 93.5391 175.798 94.3514 176.56C97.403 179.394 99.2689 183.059 101.595 186.4C108.225 195.917 117.145 202.537 127.653 207.176C128.351 207.485 129.138 207.666 129.748 208.105C131.721 209.513 133.645 209.805 135.697 207.589C136.053 208.558 136.256 209.109 136.455 209.673C136.689 209.703 136.991 209.833 137.157 209.741C139.313 208.393 141.615 208.315 143.376 210.288C144.6 211.667 145.737 211.573 147.09 211.289C148.718 210.945 150.318 210.468 151.918 210.013C156.919 208.594 158.532 210.055 157.326 215.027C156.176 219.751 156.449 224.439 157.69 229.08C158.113 230.664 158.512 232.205 160.619 232.681C161.537 232.892 162.251 234.176 162.986 235.026C166.551 239.154 169.301 244.101 174.341 246.745C177.603 248.456 180.89 250.232 184.362 251.414C191.738 253.939 199.552 255.029 206.756 258.232C208.956 259.206 211.419 259.622 213.779 260.163C221.769 262.002 228.701 266.135 235.588 270.292C236.719 270.968 237.548 272.315 238.262 273.497C239.903 276.223 241.586 278.96 242.89 281.862C244.422 285.255 243.475 288.493 240.415 290.664C237.401 292.797 234.211 294.673 231.102 296.653C229.626 297.6 228.153 299.231 226.65 299.265C225.393 299.289 224.056 297.481 222.845 296.393C221.615 295.291 220.586 293.976 219.318 292.93C214.294 288.812 209.253 284.704 204.127 280.712C201.643 278.775 198.965 277.106 196.379 275.294C195.368 274.586 187.855 271.692 186.628 271.687C183.324 271.671 180.23 270.942 177.052 269.918C174.105 268.959 170.79 268.925 167.633 268.884C163.53 268.831 159.393 268.922 155.319 269.414C147.887 270.308 140.204 270.38 133.619 274.773C131.266 276.344 128.896 277.41 125.814 276.972C123.499 276.635 121.338 277.996 119.747 279.785C118.314 281.405 116.869 283.066 115.8 284.931C113.624 288.714 110.057 290.983 106.901 293.722C105.844 294.641 104.584 294.289 104.588 293.143C104.581 289.92 102.823 287.191 102.456 284.122C102.104 281.183 102.016 278.269 103.208 275.432C103.59 274.533 103.877 273.527 104.944 274.067C105.484 274.339 106.002 275.641 105.798 276.201C104.977 278.408 105.766 280.383 106.383 283.015ZM84.5974 192.623C84.153 190.65 83.7707 188.666 83.2602 186.718C82.5455 183.992 80.9664 181.255 81.1279 178.602C81.3976 174.23 79.8648 170.3 79.3654 166.15C78.7442 160.957 77.7637 155.736 77.7913 150.538C77.8228 141.539 80.3575 133.379 87.9697 127.603C88.4465 127.246 88.7611 126.659 89.1902 126.135C87.8783 123.569 85.648 122.932 83.1478 122.366C81.5101 125.347 79.7207 128.035 78.488 130.963C76.902 134.717 75.1995 138.569 74.5858 142.549C73.6599 148.498 74.1977 154.549 75.398 160.495C76.2821 164.843 77.9782 169.129 76.7062 173.715C76.548 174.295 76.7706 174.983 76.8301 175.625C77.4098 182.225 80.2534 187.772 84.6945 192.591C84.8861 193.389 85.0776 194.186 85.2741 194.992C85.6751 194.438 85.7012 194.011 85.5262 193.697C85.293 193.277 84.917 192.971 84.5974 192.623ZM69.2254 173.8C69.2613 167.053 69.4226 160.304 69.3022 153.564C69.1433 144.819 71.0865 136.542 74.7858 128.708C76.339 125.43 78.5964 122.494 80.6303 119.258C79.7938 118.453 78.7786 117.655 78.01 116.664C77.0044 115.37 75.5237 113.962 75.4252 112.529C75.2272 109.436 72.7801 108.142 71.5207 105.855C70.8399 106.257 70.3427 106.453 69.9815 106.791C61.7665 114.241 55.7791 123.188 52.2874 133.721C51.6508 135.643 51.4464 137.724 51.244 139.747C51.1501 140.669 51.5456 141.628 51.7169 142.574C55.47 129.115 65.2059 114.48 72.1502 112.977C71.8289 113.922 71.6874 114.779 71.2699 115.468C69.1273 119.085 66.7457 122.56 64.7906 126.267C63.4354 128.851 62.5349 131.697 61.6324 134.499C60.3349 138.504 59.0831 142.529 58.0799 146.611C57.5405 148.81 57.6509 151.128 58.7297 153.377C58.5995 146.207 62.0002 140.141 64.4023 133.76C66.9082 127.092 72.453 119.284 76.4707 117.497C76.0873 118.145 75.8873 118.588 75.5951 118.968C71.2598 124.444 68.845 130.638 68.2419 137.62C68.0376 140.011 67.2991 142.366 66.753 144.718C66.2931 146.69 65.5137 148.622 65.2967 150.619C64.4317 158.674 66.6231 166.3 69.2254 173.8ZM77.2485 58.3473C77.2018 58.0986 77.1416 57.8461 77.0949 57.5975C72.0326 57.7116 66.9536 57.343 61.6857 58.4867C62.5488 60.7185 61.3847 62.3496 59.9068 63.8691C57.6793 66.16 55.4004 68.3995 53.2477 70.7632C52.1456 71.9708 51.0348 73.2863 50.3651 74.757C48.6169 78.5892 47.0192 82.4865 45.5265 86.4284C42.0606 95.609 39.8138 105.027 40.955 114.942C41.4038 118.857 42.2043 122.725 42.9379 127.214C43.6787 126.242 44.0827 125.96 44.105 125.65C44.5111 119.177 44.9891 112.711 45.2116 106.237C45.413 100.61 47.358 95.4443 49.3875 90.3687C51.0337 86.25 53.5006 82.4759 55.479 78.4814C56.5196 76.3812 57.7895 74.6111 59.7191 73.1838C62.676 70.9907 65.4843 68.5714 68.209 66.0842C69.6986 64.7298 70.8364 63.0103 72.2269 61.5394C72.8988 60.834 73.7466 60.2598 74.574 59.7311C75.4373 59.2054 76.3599 58.8069 77.2485 58.3473ZM35.9881 122.966C36.3261 122.915 36.669 122.873 37.007 122.823C36.8829 120.192 36.8035 117.559 36.6123 114.93C35.5935 101.161 36.6163 87.812 44.3395 75.7727C45.5715 73.8521 46.8133 71.949 48.0822 70.0537C49.3424 68.1632 50.5841 66.2601 51.9279 64.4376C52.8784 63.1426 53.8833 61.8631 55.0398 60.774C57.3314 58.619 60.3721 57.3176 61.9749 54.3557C62.335 53.6864 63.5093 53.5142 64.1239 52.9322C65.9427 51.2232 68.971 50.8668 69.2576 47.3895C69.4318 45.3362 69.8931 45.034 67.9922 44.5576C66.3447 44.1463 64.6906 43.9904 63.2486 45.2039C60.8142 47.2666 58.2622 49.2002 55.9589 51.396C50.159 56.9543 45.6745 63.5205 42.2061 70.7003C39.7065 75.877 37.3157 81.1877 35.703 86.6837C32.4911 97.5766 32.9692 108.706 34.9314 119.789C35.1231 120.895 35.6246 121.921 35.9881 122.966ZM49.7868 107.778C50.5762 107.099 51.3609 106.72 51.6657 106.116C52.9316 103.535 54.7172 101.479 56.9895 99.7007C59.457 97.7797 61.7768 95.6549 64.0315 93.4747C64.7831 92.7479 65.3879 91.6337 65.5537 90.6148C65.8736 88.6177 65.7973 86.5664 65.9502 84.5363C66.3053 79.8653 67.3376 75.7332 71.52 72.5957C76.0355 69.193 79.7369 65.0873 86.0452 64.3949C90.3489 63.9246 94.3411 61.3505 97.9336 57.0078C95.5745 57.4155 94.0117 57.6092 92.4879 57.9758C91.2613 58.2802 90.0453 58.7273 88.8906 59.2434C84.2494 61.3087 79.4576 63.0001 75.4675 66.4425C71.4348 69.9315 67.3486 73.3244 63.7297 77.2698C60.7429 80.5206 58.238 83.9383 57.64 88.4811C57.5363 89.2825 56.9829 90.1393 56.3954 90.729C53.1396 93.9692 51.3177 98.0598 49.7182 102.221C49.1193 103.778 48.3525 105.589 49.7868 107.778ZM186.019 261.351C186.636 261.741 187.231 262.153 187.865 262.51C190.958 264.246 194.199 265.774 197.149 267.726C205.022 272.915 212.768 278.288 220.574 283.582C222.36 284.797 223.857 284.548 224.543 282.634C225.438 280.168 226.028 277.587 226.878 274.608C213.56 268.66 200.427 263.25 186.019 261.351ZM48.2947 131.067C48.6676 130.894 49.0192 130.847 49.0842 130.697C50.7312 126.291 52.5279 121.929 53.9165 117.45C55.211 113.275 57.4722 109.913 60.9506 107.361C63.8959 105.209 66.9219 103.16 69.9536 101.04C69.9059 100.666 69.9068 100.277 69.793 99.9282C68.8948 97.0981 68.0953 96.7302 65.8064 98.3345C63.739 99.7813 61.5268 101.194 59.8761 103.061C55.3213 108.225 51.5495 113.892 49.6107 120.633C48.6365 124.046 48.011 127.449 48.2947 131.067ZM145.869 220.721C146.68 231.277 156.407 248.546 164.132 252.501C162.823 250.62 161.995 249.193 160.929 247.955C156.485 242.759 153.204 236.94 151.173 230.427C150.835 229.345 150.452 228.265 150.238 227.159C149.828 225.064 149.53 222.942 149.169 220.729C147.853 220.728 146.868 220.727 145.869 220.721ZM137.626 218.427C135.844 219.441 136.228 220.749 136.506 221.99C138.139 229.126 139.786 236.265 146.048 242.097C144.535 237.893 142.944 234.475 142.115 230.886C141.269 227.203 141.185 223.348 140.77 219.574C139.473 219.094 138.445 218.727 137.626 218.427ZM233.293 276.66C232.575 279.176 232.206 281.681 231.15 283.858C229.717 286.794 229.53 286.829 232.996 289.399C234.218 286.248 235.575 283.297 236.465 280.205C236.983 278.441 236.011 276.98 233.293 276.66ZM128.919 229.149C129.194 225.3 129.403 221.912 129.668 218.538C129.876 215.825 128.817 214.847 125.786 215.158C125.982 219.935 126.589 224.609 128.919 229.149ZM89.4613 177.951C89.4484 180.315 89.3683 182.167 89.4397 184.004C89.5141 185.908 89.7273 187.814 89.9047 189.718C90.232 193.209 90.232 193.209 91.2725 194.175C91.3269 190.712 91.3967 186.989 91.4355 183.272C91.4612 181.507 91.5792 179.702 89.4613 177.951ZM103.864 211.35C104.937 207.539 107.495 204.915 106.37 201.307C103.6 202.149 102.469 206.062 103.864 211.35ZM119.241 223.74C119.341 221.202 119.523 219.327 119.459 217.463C119.4 215.711 121.389 213.69 119.015 212.012C117.057 214.851 117.042 219.619 119.241 223.74ZM95.9832 204.233C98.117 200.415 98.4178 195.832 96.7485 193.693C94.839 197.215 95.3227 200.699 95.9832 204.233ZM111.365 216.013C113.811 211.358 113.891 210.822 112.55 207.505C110.853 210.257 110.62 212.697 111.365 216.013Z" fill="#F1BC1E"/>
</svg>
