<svg width="407" height="474" viewBox="0 0 407 474" fill="none" xmlns="http://www.w3.org/2000/svg">
<g opacity="0.15">
<path fill-rule="evenodd" clip-rule="evenodd" d="M377.217 122.751C369.245 121.598 365.231 120.144 333.422 106.912C291.259 89.4507 293.126 89.657 297.92 103.435C306.914 129.012 307.388 133.941 301.442 138.598C291.605 146.237 282.374 146.17 263.524 138.26C224.534 122.015 207.237 134.598 201.369 183.701C196.007 228.633 181.733 234.871 129.995 214.891C75.3526 193.808 49.1779 205.204 37.8632 255.135C29.8578 290.421 36.524 295.063 47.1188 261.556C62.5118 212.874 84.5277 202.733 132.102 222.697C182.639 243.903 208.68 231.643 215.007 183.656C220.63 140.795 234.267 131.751 270.531 146.968C286.598 153.71 296.375 153.66 309.572 146.97C314.207 144.531 318.397 143.175 318.763 142.982C326.518 138.392 314.68 110.237 315.002 109.219C315.099 108.913 324.024 112.197 334.796 116.717C352.511 124.036 370.473 129.612 378.452 130.422C380.53 130.602 380.645 130.881 379.502 132.246C372.787 140.619 356.104 169.264 349.131 184.565C347.079 189.125 345.285 192.871 345.073 192.898C344.951 192.962 343.404 188.852 341.755 183.777C337.774 171.609 338.826 171.819 315.819 178.661C302.92 182.477 295.71 182.451 281.364 178.623C246.638 169.474 239.833 173.308 232.242 205.999C220.915 255.003 197.834 276.234 161.705 270.879C157.433 270.24 148.89 268.963 142.784 268.015C107.681 262.63 96.5378 278.257 77.6478 347.966C69.1469 379.352 83.375 380.016 86.976 362.839C100.983 294.426 115.27 278.503 157.583 283.915C207.99 290.417 230.774 272.059 242.251 215.505C247.866 188.099 255.288 183.6 281.829 191.622C303.812 198.309 310.851 196.302 329.476 189.813C329.476 189.813 338.016 207.816 339.653 211.964C342.301 218.382 348.23 217.641 351.934 210.427C356.011 202.679 383.153 156.389 389.633 146.188C400.502 129.177 398.844 126.059 377.217 122.751Z" fill="white"/>
</g>
</svg>
