<svg width="350" height="350" viewBox="0 0 350 350" fill="none" xmlns="http://www.w3.org/2000/svg">
<path fill-rule="evenodd" clip-rule="evenodd" d="M113.404 127.565C116.943 138.184 119.422 148.45 122.961 159.069C131.101 155.174 140.66 153.051 149.863 151.989L148.801 135.352C172.164 133.583 193.756 139.6 209.331 153.051L199.419 162.963C203.313 165.086 206.852 167.918 210.038 170.75L219.594 163.317C225.612 171.104 230.213 180.662 232.692 191.989C234.461 200.129 234.461 208.272 233.045 216.768C233.399 221.016 233.399 225.264 232.692 229.866L232.338 236.946C232.692 237.653 233.401 238.715 234.108 239.424C242.604 198.717 240.125 170.399 231.276 151.284C218.532 122.612 190.922 113.054 161.541 114.823C139.947 115.886 120.834 122.257 113.4 127.567L113.404 127.565ZM82.2538 265.62C107.033 220.665 87.9178 194.825 105.617 175.355C120.484 158.718 153.758 150.931 177.832 157.656C208.276 165.796 232.347 191.992 229.162 229.516C227.746 245.445 226.33 261.375 224.914 277.303C213.586 273.408 202.26 269.869 190.578 265.975C190.578 265.975 183.145 263.852 182.438 253.586C181.375 243.674 181.022 237.303 176.067 236.241C171.112 235.178 162.969 237.657 164.032 253.231C164.739 268.451 164.739 282.612 164.739 282.612C141.022 290.752 112.349 311.639 83.3238 335.002C86.5093 305.621 90.7573 276.597 101.376 247.217C120.845 244.738 136.066 238.014 148.81 228.102C148.81 228.102 118.366 222.791 107.394 230.58C96.7748 238.721 91.8178 259.608 91.8178 259.608C87.2162 261.024 85.8003 262.086 82.2613 265.625L82.2538 265.62ZM90.3943 322.61C94.6423 319.071 98.8903 315.53 103.492 312.344C99.5972 292.167 102.785 278.008 105.261 252.164C97.4743 275.174 93.2263 298.535 90.3943 322.609L90.3943 322.61ZM211.099 266.68L219.949 269.865C222.781 237.652 231.63 203.67 205.082 178.89C186.676 161.191 161.543 157.296 137.117 163.67C182.072 161.191 202.602 181.369 211.097 199.775C218.53 214.996 214.991 244.73 211.097 266.675L211.099 266.68ZM237.295 244.025C250.746 262.078 266.322 277.299 291.1 275.885C273.047 217.125 291.807 171.815 283.313 144.91C281.19 135.707 278.358 127.564 274.463 119.777C270.569 124.025 265.967 127.564 261.012 130.749C263.844 124.732 267.03 118.005 269.153 110.218C257.471 92.5194 241.188 78.7144 222.073 68.8024C221.01 68.0953 219.95 67.7399 218.887 67.0328C218.18 75.5288 215.702 82.6088 212.161 90.0428C211.098 81.5468 210.038 71.9903 206.143 62.0778C188.798 56.0603 169.682 53.9373 150.923 55.3513C161.189 62.7848 166.853 70.9273 172.871 80.1308C160.482 71.2813 145.259 61.3693 124.375 60.3083C110.215 64.5564 97.1187 71.2808 86.1442 80.4858C100.304 84.7339 110.215 91.1048 120.834 98.8918C107.029 95.3528 91.0992 92.1653 73.7537 93.5813C67.0272 102.431 62.0722 112.696 58.8867 124.732C76.9392 118.361 95.3477 118.361 110.217 124.732C118.357 119.068 138.889 111.634 161.192 110.572C192.342 109.156 221.722 119.421 235.172 149.865C244.375 170.042 246.853 200.13 237.295 244.025V244.025Z" fill="#F1BC1E"/>
</svg>
