<svg width="75" height="103" viewBox="0 0 75 103" fill="none" xmlns="http://www.w3.org/2000/svg">
<path d="M30.1265 65.4854C30.416 64.3059 30.6675 63.2753 30.9421 62.1572C30.8484 62.1179 30.6482 61.9508 30.4661 61.9717C29.614 62.0691 28.8531 61.6532 28.0416 61.5509C26.5705 61.3664 25.464 60.445 24.3112 59.6117C23.6524 59.1345 23.0447 58.5695 22.3666 58.1259C21.7567 57.7282 21.3381 57.2112 20.9638 56.5722C20.2815 55.4105 19.5272 54.2915 18.7616 53.1851C17.4921 51.3473 16.1902 49.5342 14.9065 47.7078C14.5458 47.1942 14.1953 46.671 13.8405 46.1547C13.1501 45.1457 12.3716 44.2264 11.4651 43.42C10.8978 42.9135 10.3773 42.3486 9.85044 41.7914C9.71932 41.655 9.60651 41.4655 9.55926 41.2809C9.4516 40.8682 9.67084 40.5871 10.0827 40.633C10.8206 40.7167 11.5544 40.842 12.2898 40.9541C12.3974 40.9697 12.5023 41.0535 12.6062 41.0485C13.636 40.9943 14.6656 40.9279 15.7686 40.8627C15.9986 41.2695 16.2416 41.6852 16.4755 42.1075C17.3378 43.6689 18.1398 45.2727 19.0703 46.7881C20.1043 48.47 21.0881 50.202 22.4674 51.6175C22.6207 51.7736 22.7884 51.9133 23.0649 51.9562C22.8454 51.6614 22.607 51.3777 22.4096 51.0678C21.5854 49.7547 20.752 48.4483 19.9609 47.1127C18.714 45.0138 17.5771 42.85 16.5152 40.6396C16.1294 39.8345 15.673 39.064 15.2014 38.308C14.975 37.9443 14.8689 37.5929 14.8945 37.1666C14.9404 36.381 15.1152 35.5542 14.9463 34.8192C14.7849 34.1255 14.2308 33.536 13.8834 32.8823C12.7995 30.8483 12.0638 28.693 12.0886 26.3256C12.101 25.0612 12.4559 23.8519 12.839 22.6596C12.9804 22.2229 13.1309 21.7795 13.192 21.3246C13.3828 19.9443 13.5399 18.5619 13.6933 17.1762C13.7416 16.7421 13.7273 16.3042 13.7506 15.8665C13.7667 15.5836 13.8012 15.2998 13.8283 15.0094C14.1746 14.9238 14.4579 14.8569 14.8473 14.7616C14.9537 16.2301 14.6567 17.7134 15.0931 19.1484C15.5123 20.5242 15.737 21.9711 16.5004 23.2275C16.3114 21.8735 16.7233 20.6482 17.1123 19.4185C17.174 19.2241 17.2223 19.0258 17.259 18.8278C17.5754 17.1445 18.4475 15.7669 19.4441 14.4691C19.9997 13.7445 20.6664 13.1133 21.2138 12.38C22.1492 11.1225 23.3606 10.1887 24.4997 9.17613C25.1713 8.57992 25.9864 8.16173 26.7415 7.67156C27.8084 6.97734 28.7833 6.21332 29.3637 4.96842C29.5814 4.49941 30.0565 4.17639 30.5999 4.06063C30.6628 4.531 30.4032 5.62241 30.0652 6.20577C29.8061 6.65394 29.5279 7.09587 29.2159 7.50106C28.7469 8.10932 28.6549 8.83391 28.6569 9.55797C28.658 10.3892 28.7598 11.2192 28.8264 12.1473C29.8026 12.2839 30.7762 12.5582 31.7408 12.5288C35.0131 12.4271 37.6603 10.3258 38.5055 6.91465C38.5275 6.83018 38.576 6.73607 38.5568 6.66039C38.3456 5.77584 38.7193 5.01489 38.9852 4.22099C39.0808 3.93669 39.0459 3.59256 39.0287 3.28011C38.9914 2.6193 39.4186 2.06983 40.1517 1.91735C40.2076 2.03095 40.3066 2.15222 40.3228 2.28388C40.5158 3.85451 41.0199 5.39769 40.5453 7.01647C40.111 8.49775 39.6922 9.9769 38.6804 11.1625C38.4605 11.419 38.2284 11.686 37.9536 11.8657C37.5071 12.1608 37.1458 12.4569 36.8968 13.0047C36.7006 13.4341 36.2019 13.7281 35.8022 14.0342C34.9296 14.6971 34.0504 15.3555 33.1401 15.961C32.7999 16.1879 32.3464 16.4142 31.9814 16.3618C31.236 16.2542 30.6218 16.7722 29.8921 16.6972C29.6736 16.675 29.4253 17.0635 29.1752 17.2345C28.7673 17.5145 28.3565 17.7934 27.9249 18.0271C27.4355 18.2921 27.0522 18.5807 27.0215 19.2477C26.9903 19.885 26.8712 20.5202 26.7612 21.1488C26.6702 21.6743 26.6663 22.1826 26.8227 22.6973C27.1593 23.8078 27.6308 24.8395 28.1524 25.8732C28.8403 27.2384 29.8909 27.649 31.2017 27.7177C31.5887 27.7377 31.9608 27.7496 32.3005 28.022C32.4546 28.1455 32.7221 28.1205 32.9392 28.1508C33.1583 28.1802 33.3867 28.1631 33.5965 28.2215C33.9285 28.3138 34.3549 28.3207 34.3655 28.8472C34.3765 29.4033 33.9743 29.9389 33.5187 29.9874C33.3269 30.0077 33.1319 29.9798 32.9393 29.9806C31.5021 29.9768 30.4985 30.7167 29.7774 31.9859C28.8033 33.6955 28.6042 35.5563 28.8599 37.4758C28.9907 38.4515 29.2747 39.4047 29.511 40.3622C29.5732 40.612 29.6782 40.8745 29.8364 41.0657C30.4314 41.778 30.7535 42.6518 31.1816 43.4624C32.4018 45.7721 34.1769 47.4766 36.3362 48.7679C36.4797 48.854 36.6449 48.9129 36.7666 49.0263C37.1605 49.3907 37.5679 49.5007 38.0569 49.0448C38.1125 49.2727 38.1443 49.4022 38.1749 49.5347C38.2246 49.5469 38.2866 49.5832 38.3243 49.5661C38.8171 49.3095 39.3137 49.3441 39.6497 49.8317C39.8832 50.1723 40.1298 50.1768 40.4268 50.1433C40.7842 50.1023 41.1384 50.0304 41.4924 49.9637C42.5982 49.7557 42.9135 50.1237 42.5469 51.224C42.1978 52.2693 42.1552 53.3389 42.322 54.4199C42.3788 54.7888 42.4313 55.1473 42.874 55.3033C43.0668 55.3719 43.1927 55.6796 43.3325 55.889C44.0099 56.9064 44.4945 58.0911 45.5211 58.8056C46.1856 59.2678 46.8541 59.7456 47.575 60.0927C49.1065 60.8331 50.7631 61.2583 52.243 62.1488C52.695 62.4197 53.2155 62.5701 53.7113 62.7466C55.3897 63.3456 56.7909 64.4408 58.1821 65.5404C58.4106 65.7194 58.5598 66.0438 58.6879 66.3281C58.982 66.9838 59.2846 67.643 59.5024 68.3308C59.7585 69.1353 59.4853 69.8481 58.7803 70.2708C58.0864 70.686 57.3599 71.039 56.6486 71.4174C56.3108 71.5985 55.9589 71.935 55.6351 71.9086C55.3644 71.8853 55.1159 71.4448 54.8789 71.1703C54.6382 70.8926 54.4453 70.5707 54.1953 70.3047C53.204 69.2564 52.2087 68.2098 51.1927 67.1876C50.7004 66.6917 50.1605 66.2522 49.6436 65.7825C49.4414 65.5989 47.8885 64.7714 47.6248 64.7425C46.9147 64.6635 46.2652 64.4279 45.604 64.1231C44.991 63.8386 44.2791 63.7554 43.6011 63.6743C42.7201 63.5688 41.8286 63.4954 40.942 63.5142C39.3247 63.5478 37.6712 63.3893 36.1606 64.2358C35.6207 64.5386 35.088 64.7265 34.435 64.557C33.9444 64.4278 33.4504 64.6874 33.0696 65.0568C32.7265 65.3918 32.38 65.7357 32.11 66.1342C31.5606 66.9429 30.7447 67.3764 30.0068 67.9258C29.7598 68.1102 29.4965 68.0016 29.522 67.7418C29.5901 67.0106 29.271 66.3515 29.2583 65.6472C29.246 64.9725 29.2901 64.3094 29.6076 63.6932C29.709 63.4981 29.7924 63.2764 30.0101 63.4231C30.1204 63.497 30.2037 63.8042 30.1478 63.9265C29.9236 64.4084 30.0507 64.8744 30.1265 65.4854ZM27.3926 44.487C27.3396 44.0295 27.3002 43.5707 27.2325 43.1175C27.1376 42.4828 26.8572 41.826 26.9491 41.228C27.1015 40.2425 26.8567 39.3162 26.8388 38.3635C26.8173 37.1716 26.7191 35.965 26.8372 34.7866C27.0381 32.7462 27.7592 30.9531 29.5206 29.8162C29.6308 29.7462 29.7111 29.6202 29.8147 29.511C29.5879 28.8992 29.1221 28.7041 28.5968 28.5187C28.1803 29.1576 27.7376 29.7266 27.4094 30.3626C26.9874 31.1779 26.5382 32.0129 26.3204 32.9016C25.9929 34.2299 25.978 35.6146 26.1078 36.9906C26.2041 37.997 26.4763 39.0077 26.1038 40.0188C26.0573 40.1468 26.0903 40.308 26.0893 40.455C26.0715 41.9651 26.5632 43.288 27.4142 44.4822C27.4382 44.6674 27.4621 44.8526 27.487 45.0399C27.5852 44.9232 27.6 44.8271 27.5692 44.7518C27.5281 44.6513 27.4538 44.5734 27.3926 44.487ZM24.4935 39.868C24.6468 38.3384 24.8271 36.8114 24.9466 35.2797C25.1012 33.2927 25.6975 31.4596 26.662 29.7668C27.0667 29.0587 27.6154 28.444 28.1225 27.7563C27.96 27.5547 27.759 27.3508 27.6151 27.1084C27.4268 26.7919 27.1388 26.4389 27.1485 26.1117C27.1727 25.4055 26.6745 25.0563 26.453 24.5092C26.298 24.5847 26.1868 24.6179 26.1019 24.6864C24.1748 26.1892 22.6944 28.0821 21.7163 30.3919C21.538 30.8132 21.4491 31.2806 21.362 31.7349C21.3219 31.9419 21.3863 32.1683 21.4027 32.3868C22.5 29.4194 24.9091 26.3217 26.4347 26.1387C26.3452 26.3458 26.2963 26.5369 26.1917 26.6838C25.653 27.4554 25.0659 28.1894 24.5655 28.9857C24.2184 29.5409 23.9634 30.166 23.7089 30.7808C23.3435 31.6597 22.9875 32.5442 22.6837 33.4472C22.5203 33.9337 22.494 34.4621 22.6774 34.9968C22.8041 33.3676 23.6662 32.0689 24.3204 30.6763C25.0031 29.221 26.3637 27.5762 27.2662 27.2623C27.1697 27.4005 27.1172 27.4965 27.0461 27.576C25.9958 28.7194 25.343 30.0693 25.0627 31.6394C24.9672 32.1769 24.7576 32.6944 24.5894 33.2153C24.448 33.6521 24.2387 34.0726 24.149 34.5206C23.7892 36.328 24.0958 38.1075 24.4935 39.868ZM28.7096 13.8639C28.7049 13.8064 28.6974 13.7478 28.6927 13.6903C27.6018 13.601 26.5177 13.4018 25.3603 13.5413C25.4978 14.0671 25.2123 14.4106 24.8617 14.7216C24.3334 15.1905 23.795 15.6466 23.2812 16.1338C23.0182 16.3826 22.7509 16.6557 22.5752 16.974C22.1166 17.8034 21.689 18.651 21.283 19.5111C20.3397 21.5146 19.6534 23.5996 19.6849 25.8744C19.6969 26.7726 19.7856 27.6683 19.8464 28.7032C20.0267 28.4995 20.1197 28.4447 20.1311 28.375C20.3581 26.9161 20.6004 25.4601 20.7879 23.9969C20.9526 22.7252 21.4823 21.5978 22.0282 20.4928C22.471 19.596 23.0829 18.7961 23.5944 17.9352C23.8635 17.4825 24.1747 17.1099 24.6204 16.8301C25.3035 16.4 25.9595 15.9151 26.599 15.413C26.9485 15.1397 27.2303 14.7756 27.561 14.4736C27.7207 14.3289 27.9154 14.218 28.1047 14.1169C28.3016 14.0173 28.5086 13.9479 28.7096 13.8639ZM18.4438 27.5814C18.5176 27.5776 18.5922 27.5759 18.666 27.5721C18.696 26.9725 18.7358 26.3735 18.7514 25.773C18.8294 22.6266 19.3373 19.6222 21.2577 17.0672C21.564 16.6597 21.8721 16.2563 22.1858 15.8553C22.4976 15.4551 22.8056 15.0518 23.1339 14.669C23.3662 14.3969 23.6099 14.1295 23.882 13.9088C24.4213 13.4722 25.1031 13.2462 25.5117 12.6109C25.6035 12.4673 25.8597 12.4549 26.0045 12.3369C26.4324 11.9907 27.0912 11.9788 27.2278 11.1966C27.3096 10.7348 27.4153 10.6768 27.0169 10.5255C26.6715 10.3947 26.3192 10.3217 25.983 10.5641C25.415 10.9765 24.8246 11.357 24.282 11.8026C22.915 12.9314 21.8091 14.3186 20.9084 15.8682C20.2593 16.9854 19.6307 18.1356 19.1653 19.3455C18.2397 21.7431 18.1024 24.2784 18.2851 26.8368C18.3025 27.0921 18.3882 27.3361 18.4438 27.5814ZM21.7384 24.4506C21.9228 24.3145 22.0997 24.2464 22.1783 24.1163C22.5061 23.5599 22.9344 23.134 23.4614 22.7824C24.0334 22.4029 24.578 21.9737 25.1098 21.5305C25.2871 21.3828 25.4412 21.1438 25.4988 20.9165C25.6107 20.4708 25.6386 20.0038 25.7152 19.5468C25.8924 18.4955 26.2035 17.5817 27.1705 16.9653C28.2148 16.2963 29.0992 15.4493 30.4705 15.4358C31.406 15.4271 32.32 14.9341 33.1861 14.0309C32.6701 14.0696 32.3299 14.078 31.9943 14.1265C31.724 14.1676 31.4529 14.2413 31.1935 14.3321C30.151 14.6949 29.0842 14.9695 28.152 15.6595C27.2096 16.359 26.2578 17.0356 25.3946 17.8481C24.6822 18.5175 24.0699 19.2357 23.8433 20.2525C23.8037 20.4319 23.6663 20.6136 23.5272 20.734C22.7573 21.3948 22.2773 22.2812 21.8436 23.1886C21.6812 23.5282 21.4773 23.9214 21.7384 24.4506ZM47.7169 62.3842C47.8411 62.4866 47.9603 62.5937 48.0888 62.6891C48.7164 63.1532 49.3802 63.5736 49.9724 64.0835C51.5532 65.4395 53.1029 66.8345 54.6671 68.213C55.0248 68.5293 55.3522 68.5069 55.541 68.0883C55.7866 67.5495 55.9691 66.9773 56.2161 66.3211C53.4809 64.6688 50.7738 63.1428 47.7169 62.3842ZM20.9151 29.6989C20.999 29.6682 21.0756 29.6656 21.0929 29.6329C21.542 28.6712 22.0225 27.7226 22.4177 26.7383C22.7861 25.8208 23.3448 25.1097 24.1478 24.6101C24.8275 24.189 25.5223 23.7932 26.22 23.3813C26.2178 23.2954 26.2264 23.2071 26.2094 23.1254C26.0773 22.4631 25.9134 22.3614 25.3866 22.6732C24.9109 22.9543 24.4047 23.2244 24.0095 23.6104C22.9188 24.6779 21.9855 25.8774 21.4232 27.3623C21.1401 28.1143 20.9322 28.8718 20.9151 29.6989ZM39.9607 52.2548C39.9074 54.6675 41.6261 58.8059 43.2017 59.8787C42.9609 59.4223 42.8137 59.0796 42.6112 58.7746C41.7677 57.4951 41.1879 56.1006 40.8918 54.5769C40.8424 54.3238 40.7833 54.0701 40.7611 53.8146C40.7183 53.3301 40.6998 52.8419 40.67 52.3317C40.387 52.3016 40.1753 52.2788 39.9607 52.2548ZM38.2378 51.5469C37.8328 51.7362 37.8872 52.0417 37.9202 52.3296C38.1173 53.9852 38.3173 55.642 39.538 57.1073C39.3033 56.1193 39.0349 55.3079 38.9342 54.4749C38.8318 53.6203 38.897 52.744 38.889 51.8786C38.6205 51.7402 38.4074 51.6336 38.2378 51.5469ZM57.5512 66.9324C57.3425 67.4867 57.2091 68.0465 56.9352 68.5163C56.5636 69.1497 56.5227 69.1534 57.2124 69.8152C57.5433 69.1283 57.8987 68.4898 58.1568 67.8088C58.3062 67.4204 58.1286 67.0668 57.5512 66.9324ZM36.1343 53.7806C36.2764 52.914 36.3946 52.1501 36.5242 51.3909C36.6275 50.7804 36.4209 50.5343 35.7626 50.536C35.7016 51.6239 35.7314 52.6978 36.1343 53.7806ZM28.755 41.27C28.7012 41.8059 28.644 42.2242 28.6197 42.6424C28.5947 43.0759 28.5994 43.5132 28.5964 43.949C28.5915 44.7482 28.5915 44.7482 28.7944 44.991C28.8808 44.2069 28.9761 43.364 29.0647 42.5218C29.1083 42.1221 29.1726 41.7154 28.755 41.27ZM31.1312 49.1733C31.4442 48.3332 32.0507 47.7964 31.8867 46.9525C31.273 47.0804 30.9453 47.9421 31.1312 49.1733ZM34.1702 52.3334C34.2463 51.76 34.3259 51.3389 34.3524 50.9147C34.3776 50.516 34.8488 50.1029 34.3745 49.6683C33.8924 50.2676 33.7862 51.3487 34.1702 52.3334ZM29.5902 47.3796C30.1314 46.5623 30.295 45.5295 29.9822 45.0065C29.4956 45.7617 29.5245 46.5629 29.5902 47.3796ZM32.6433 50.4017C33.2698 49.4015 33.2984 49.2817 33.0818 48.4989C32.6576 49.0843 32.5547 49.6326 32.6433 50.4017Z" fill="black"/>
<path d="M62.4513 78.279C61.6161 77.821 60.8871 77.4199 60.0952 76.9859C60.1276 76.9056 60.1496 76.689 60.2674 76.5858C60.8183 76.1026 61.026 75.3983 61.4404 74.8323C62.1922 73.8068 62.3152 72.6108 62.5151 71.4334C62.6287 70.7599 62.663 70.071 62.8068 69.4038C62.9369 68.8043 62.8882 68.2604 62.7448 67.6782C62.4852 66.6185 62.2916 65.5368 62.1117 64.4548C61.8116 62.6588 61.5442 60.8559 61.2588 59.0573C61.1784 58.5516 61.0866 58.0472 61.0012 57.5439C60.8326 56.562 60.766 55.5734 60.8376 54.5655C60.8814 53.9339 60.865 53.2998 60.8566 52.666C60.8558 52.5095 60.8144 52.3357 60.7375 52.2058C60.5668 51.9141 60.2804 51.8995 60.0667 52.1835C59.6846 52.6931 59.3284 53.2227 58.9638 53.7462C58.91 53.8223 58.8963 53.9338 58.833 53.9963C58.2031 54.6148 57.5664 55.2264 56.8877 55.8849C56.9838 56.2503 57.0774 56.6287 57.18 57.0051C57.5608 58.3949 58.0007 59.7697 58.3159 61.1774C58.6649 62.7406 59.0715 64.2994 59.069 65.9351C59.0681 66.1163 59.0494 66.2976 58.9128 66.4948C58.8738 66.1968 58.8522 65.8928 58.7919 65.6005C58.5293 64.3694 58.2757 63.1362 57.9811 61.9138C57.5202 59.9904 56.9587 58.1009 56.3271 56.2334C56.0965 55.5538 55.9265 54.8486 55.7736 54.1416C55.6998 53.8018 55.5629 53.5444 55.307 53.3292C54.8363 52.9317 54.2671 52.5929 53.9499 52.0879C53.6516 51.6099 53.6409 50.9414 53.4736 50.3681C52.9545 48.5825 52.1642 46.9501 50.8116 45.6809C50.0896 45.0025 49.1995 44.5695 48.3026 44.1635C47.9734 44.0154 47.6351 43.8694 47.3425 43.661C46.4511 43.032 45.5783 42.3806 44.7057 41.7251C44.4322 41.5199 44.193 41.2732 43.932 41.0504C43.7627 40.907 43.5822 40.7747 43.4022 40.6341C43.1524 40.8055 42.9497 40.9474 42.6692 41.1406C43.4374 42.0045 44.4487 42.6226 45.006 43.6759C45.5397 44.6862 46.2269 45.6128 46.4929 46.7748C45.8375 45.9211 44.9051 45.5153 43.9836 45.0926C43.8378 45.0259 43.6976 44.9487 43.5643 44.8644C42.4287 44.1499 41.1424 43.9509 39.8288 43.8735C39.0959 43.8298 38.3511 43.9066 37.6181 43.853C36.3629 43.759 35.1301 44.0143 33.8948 44.1813C33.1669 44.2802 32.4562 44.566 31.7397 44.775C30.7264 45.0694 29.7272 45.268 28.6857 44.9576C28.2939 44.84 27.8348 44.9635 27.4532 45.2425C27.6824 45.5374 28.4505 45.9663 28.9769 46.0703C29.3811 46.1505 29.7928 46.2154 30.2034 46.239C30.8202 46.274 31.2833 46.6094 31.6914 47.0036C32.1607 47.4554 32.5706 47.9699 33.0565 48.5154C32.5657 49.2036 32.1542 49.9649 31.5761 50.5558C29.6145 52.559 26.8861 53.0839 24.466 51.7644C24.4055 51.7323 24.324 51.7118 24.2924 51.6587C23.9153 51.0458 23.2677 50.8678 22.6641 50.6043C22.4478 50.5101 22.2736 50.3014 22.107 50.1211C21.7551 49.739 21.1959 49.7095 20.6831 50.0879C20.7148 50.1847 20.7257 50.3128 20.7907 50.3945C21.5663 51.3682 22.1452 52.5228 23.3365 53.1028C24.4266 53.6334 25.5064 54.1727 26.7655 54.1796C27.0384 54.1805 27.3244 54.1794 27.5859 54.104C28.0125 53.9833 28.3902 53.9167 28.8447 54.0574C29.2017 54.167 29.6581 54.0129 30.0637 53.9275C30.9462 53.7383 31.8301 53.5426 32.7021 53.2986C33.0283 53.2077 33.4201 53.0452 33.6029 52.7872C33.9759 52.26 34.6261 52.1546 35.0083 51.6549C35.123 51.5054 35.4871 51.5602 35.7293 51.4956C36.125 51.3909 36.5216 51.2839 36.9049 51.1392C37.3395 50.9751 37.7257 50.8907 38.1206 51.2333C38.499 51.5596 38.9274 51.8294 39.3467 52.1013C39.6968 52.3292 39.9863 52.6026 40.1863 52.9803C40.6182 53.7947 40.927 54.6512 41.2078 55.5403C41.5792 56.7139 41.2 57.5976 40.476 58.4594C40.2621 58.7137 40.0523 58.9542 40.0086 59.3157C39.9887 59.4797 39.819 59.6344 39.7097 59.7874C39.5988 59.9412 39.4562 60.0756 39.3672 60.2393C39.2261 60.4981 38.9819 60.7702 39.2733 61.0626C39.5813 61.3713 40.1182 61.4089 40.4107 61.1487C40.5338 61.039 40.6314 60.9012 40.744 60.7804C41.5783 59.8744 42.5805 59.6446 43.7176 59.8797C45.2509 60.1948 46.4186 61.0794 47.3549 62.2818C47.8303 62.8937 48.2039 63.5896 48.6076 64.2579C48.7127 64.4325 48.7999 64.6411 48.8159 64.8443C48.8723 65.6052 49.1788 66.282 49.388 66.9912C49.9835 69.0122 49.914 71.0538 49.3875 73.1128C49.3527 73.2498 49.2897 73.3857 49.283 73.5239C49.2599 73.9694 49.0849 74.2854 48.5426 74.3455C48.6392 74.5042 48.6939 74.5945 48.7509 74.6857C48.7289 74.7235 48.7134 74.7822 48.6817 74.7966C48.2499 74.9674 47.9805 75.2986 48.0606 75.7745C48.1173 76.1062 47.9763 76.2638 47.7846 76.4325C47.5534 76.635 47.3066 76.8189 47.0629 77.0053C46.3018 77.5881 46.3263 77.9861 47.1617 78.3526C47.9557 78.7003 48.5851 79.2539 49.0991 79.9455C49.2746 80.1814 49.4467 80.4089 49.2773 80.7721C49.2038 80.9306 49.3045 81.1768 49.3416 81.3784C49.5225 82.3567 49.9102 83.3044 49.7167 84.3379C49.5913 85.0067 49.4723 85.6865 49.249 86.3284C48.7763 87.6936 48.0526 88.9664 47.6949 90.3806C47.5849 90.812 47.3671 91.221 47.1783 91.6287C46.5402 93.0095 46.3439 94.4852 46.1559 95.9572C46.1241 96.1981 46.2207 96.4679 46.3069 96.7028C46.5064 97.2436 46.7029 97.7917 46.965 98.302C47.2707 98.8997 47.8327 99.1146 48.4819 98.9006C49.1204 98.6894 49.7427 98.424 50.3705 98.1819C50.6694 98.0677 51.0644 98.0289 51.2379 97.8109C51.3824 97.628 51.2779 97.2326 51.2607 96.9345C51.2438 96.6324 51.174 96.3364 51.1692 96.0348C51.1534 94.8423 51.141 93.6483 51.1544 92.4544C51.1606 91.8756 51.2263 91.2975 51.2616 90.7174C51.2755 90.4906 51.7114 89.0647 51.8485 88.8831C52.2171 88.3936 52.4618 87.8571 52.6744 87.2758C52.8702 86.7357 53.2375 86.2428 53.5862 85.7723C54.0393 85.1609 54.5165 84.5603 55.0431 84.0127C56.0032 83.0136 56.8758 81.8874 58.2335 81.3966C58.7188 81.2213 59.135 80.9882 59.4192 80.4854C59.6317 80.1067 60.0659 79.9368 60.4963 79.8978C60.8853 79.8637 61.2814 79.8324 61.6638 79.8788C62.4407 79.9721 63.1605 79.6941 63.9004 79.5281C64.1484 79.4728 64.2403 79.2482 64.0785 79.1232C63.6256 78.7693 63.4387 78.2109 63.0479 77.8207C62.6738 77.4468 62.2733 77.1147 61.7402 76.98C61.5708 76.9379 61.3969 76.8701 61.3532 77.0866C61.3308 77.1961 61.456 77.4152 61.5576 77.4464C61.9605 77.5669 62.15 77.8997 62.4513 78.279ZM52.1721 65.1638C51.9443 64.8821 51.7079 64.6084 51.4911 64.3198C51.1875 63.9157 50.9794 63.3828 50.5879 63.1162C49.9422 62.6772 49.561 62.0205 49.0328 61.4922C48.3716 60.8319 47.7466 60.1153 47.0118 59.5501C45.7414 58.5692 44.3082 58.0497 42.6405 58.5407C42.5368 58.572 42.4189 58.5542 42.2969 58.5601C42.083 58.0855 42.2437 57.6865 42.4447 57.2555C43.0482 57.3402 43.6275 57.3705 44.178 57.5092C44.8844 57.6862 45.6179 57.8568 46.247 58.202C47.1884 58.7169 47.9799 59.459 48.6821 60.2873C49.195 60.8941 49.6079 61.6138 50.3963 61.9282C50.4957 61.9684 50.5676 62.0767 50.6513 62.1558C51.5153 62.9641 51.977 63.9914 52.1568 65.1747C52.2476 65.2903 52.3383 65.4059 52.4297 65.5232C52.3066 65.5216 52.2437 65.4788 52.219 65.4185C52.1861 65.3381 52.1853 65.2491 52.1721 65.1638ZM51.2481 60.8334C50.2942 60.0997 49.3261 59.3845 48.3907 58.6285C47.1776 57.6474 45.7943 57.0277 44.2761 56.7157C43.6404 56.586 42.9735 56.5976 42.2897 56.5434C42.2703 56.3318 42.272 56.0947 42.2187 55.8726C42.1494 55.5824 42.1174 55.2097 41.9268 55.0382C41.5136 54.6702 41.6061 54.1673 41.4257 53.731C41.5586 53.6745 41.642 53.6226 41.7302 53.6063C43.7012 53.2097 45.6327 53.3057 47.5075 53.9439C47.8494 54.0603 48.1654 54.2581 48.4729 54.4498C48.6132 54.5369 48.7038 54.7003 48.8177 54.8292C46.5017 53.9091 43.3487 53.7435 42.3575 54.6039C42.5266 54.6599 42.6631 54.7329 42.807 54.7468C43.5567 54.8266 44.3132 54.8557 45.0545 54.9731C45.5704 55.056 46.0722 55.2348 46.5679 55.4084C47.2773 55.6555 47.9845 55.9116 48.6717 56.2105C49.0418 56.3717 49.3558 56.6419 49.5513 57.0475C48.5566 56.243 47.3208 56.0806 46.1529 55.7363C44.933 55.376 43.2114 55.3393 42.5088 55.7366C42.643 55.751 42.7278 55.77 42.8141 55.7684C44.0717 55.7283 45.2147 56.0502 46.2654 56.7259C46.6248 56.9575 47.0393 57.1065 47.4316 57.2834C47.7608 57.4315 48.1203 57.5281 48.4258 57.7147C49.6569 58.4692 50.4844 59.6279 51.2481 60.8334ZM34.0948 49.3735C34.0651 49.3394 34.0363 49.3028 34.0065 49.2687C34.5909 48.534 35.1091 47.7439 35.8615 47.0916C36.0788 47.4634 36.4391 47.4702 36.8189 47.4185C37.3914 47.3406 37.9625 47.2495 38.5369 47.1906C38.8307 47.1602 39.1405 47.1403 39.4227 47.2025C40.1585 47.3641 40.8864 47.5551 41.6089 47.7665C43.2904 48.2604 44.8684 48.9602 46.136 50.2145C46.6368 50.7095 47.0915 51.2513 47.641 51.8512C47.421 51.8541 47.336 51.8828 47.2899 51.8522C46.3331 51.2032 45.3691 50.5656 44.4328 49.8894C43.6181 49.3029 42.6725 49.0243 41.7302 48.768C40.9656 48.5599 40.1574 48.5107 39.373 48.3652C38.9605 48.2888 38.5688 48.2824 38.1512 48.4109C37.5106 48.6072 36.8547 48.7568 36.1987 48.8865C35.8409 48.9581 35.4711 48.9377 35.1079 48.9819C34.9332 49.0038 34.7572 49.066 34.5899 49.1303C34.419 49.2001 34.2593 49.2927 34.0948 49.3735ZM47.8232 50.3601C47.7781 50.4045 47.7337 50.4505 47.6886 50.4948C47.3322 50.1884 46.9704 49.8883 46.6219 49.5722C44.7979 47.9138 42.8039 46.6029 40.2422 46.4243C39.8335 46.3958 39.4262 46.3707 39.0169 46.3504C38.6093 46.3294 38.202 46.3043 37.7946 46.303C37.5056 46.3015 37.2127 46.3097 36.9296 46.3611C36.3689 46.4634 35.8444 46.7697 35.2475 46.6819C35.1129 46.6617 34.9568 46.8162 34.8059 46.8432C34.3611 46.9245 33.971 47.3325 33.4493 46.9939C33.1407 46.7948 33.0464 46.8298 33.1927 46.497C33.3198 46.2088 33.4835 45.9475 33.8162 45.8676C34.3799 45.7342 34.9386 45.5692 35.5062 45.4697C36.9398 45.2224 38.3675 45.2795 39.7676 45.5539C40.7769 45.7519 41.7929 45.9806 42.7476 46.3445C44.6416 47.0633 46.1547 48.3528 47.4946 49.8562C47.6288 50.0057 47.7169 50.192 47.8232 50.3601ZM44.1361 50.7335C43.9519 50.7757 43.8104 50.85 43.6912 50.8288C43.1858 50.7331 42.6959 50.7714 42.1905 50.9121C41.6431 51.0659 41.0835 51.1756 40.5235 51.2697C40.3368 51.301 40.1121 51.2683 39.95 51.1811C39.633 51.0096 39.3528 50.7737 39.0499 50.574C38.3524 50.1148 37.6549 49.8147 36.7437 50.0884C35.7578 50.3823 34.7643 50.479 33.9587 51.3343C33.4093 51.918 32.5988 52.2254 31.5842 52.2801C31.9064 51.9765 32.1091 51.767 32.3318 51.5822C32.5124 51.4345 32.7118 51.304 32.9141 51.1901C33.7258 50.7312 34.5018 50.2091 35.4343 49.9972C36.3782 49.784 37.3145 49.5525 38.2762 49.4504C39.0691 49.3655 39.8314 49.3701 40.5381 49.7794C40.6625 49.8518 40.8452 49.864 40.9942 49.8418C41.8158 49.7161 42.5962 49.8952 43.3616 50.1148C43.648 50.197 43.989 50.2821 44.1361 50.7335ZM50.4618 87.6612C50.4474 87.7949 50.4386 87.928 50.4178 88.0606C50.3149 88.7073 50.1662 89.353 50.1099 90.0023C49.9564 91.7325 49.8432 93.4644 49.7122 95.1964C49.6829 95.5931 49.4797 95.7869 49.1331 95.6785C48.6856 95.5406 48.256 95.3449 47.7413 95.1442C48.399 92.5269 49.1117 89.9958 50.4618 87.6612ZM47.582 53.0638C47.5158 53.0999 47.4698 53.1467 47.4413 53.1398C46.6363 52.9005 45.8204 52.6879 45.034 52.4023C44.301 52.1362 43.5739 52.1017 42.8242 52.3357C42.1906 52.5347 41.5625 52.7571 40.9237 52.9724C40.8765 52.9244 40.8215 52.8818 40.7852 52.8269C40.4877 52.3843 40.5256 52.226 41.0084 52.0639C41.4441 51.9172 41.8914 51.7454 42.3395 51.7062C43.5778 51.5994 44.7989 51.6633 45.9655 52.1154C46.5554 52.3454 47.1046 52.6257 47.582 53.0638ZM49.2493 77.2851C50.6442 78.5609 51.9835 81.8879 51.673 83.4613C51.5551 83.0621 51.4471 82.7835 51.3925 82.4906C51.1601 81.2657 50.7092 80.1441 50.0202 79.131C49.9059 78.9626 49.7968 78.7877 49.6653 78.6351C49.4163 78.3452 49.1511 78.0687 48.8801 77.773C49.0277 77.5787 49.138 77.4331 49.2493 77.2851ZM49.8518 75.8172C50.1945 75.6652 50.3356 75.8651 50.4791 76.0421C51.3003 77.0646 52.1205 78.0895 52.2384 79.6526C51.8165 78.9688 51.514 78.3597 51.1017 77.8442C50.6782 77.316 50.1449 76.8815 49.6604 76.4068C49.7383 76.1628 49.8021 75.9709 49.8518 75.8172ZM47.31 96.3157C47.7447 96.4853 48.1388 96.7051 48.5637 96.7877C49.1381 96.8977 49.1639 96.874 49.1367 97.667C48.5558 97.5024 47.9881 97.3795 47.4529 97.1722C47.1464 97.0555 47.0499 96.7519 47.31 96.3157ZM52.3386 75.7061C51.766 75.3252 51.2654 74.9851 50.7608 74.6546C50.3556 74.3882 50.3367 74.1247 50.7207 73.7116C51.3712 74.2636 51.9609 74.8651 52.3386 75.7061ZM49.5607 64.2749C49.895 64.5319 50.1647 64.7229 50.4152 64.9346C50.6749 65.1541 50.9193 65.3944 51.1674 65.629C51.6221 66.0597 51.6221 66.0597 51.6413 66.3191C51.1477 65.9479 50.6158 65.5504 50.0882 65.1491C49.8368 64.9596 49.5695 64.7794 49.5607 64.2749ZM52.6456 70.0587C51.9885 69.7997 51.3322 69.8899 50.9505 69.3287C51.38 69.0121 52.0578 69.2736 52.6456 70.0587ZM52.6635 73.6853C52.295 73.422 52.0107 73.2436 51.7555 73.03C51.5154 72.8295 51.0077 72.9017 51.038 72.3675C51.6574 72.3894 52.3303 72.9094 52.6635 73.6853ZM52.5284 68.1159C51.7514 68.0128 51.0724 67.5552 50.9588 67.0746C51.6689 67.1784 52.105 67.6314 52.5284 68.1159ZM52.46 71.6765C51.5301 71.5278 51.4457 71.4808 51.1293 70.9197C51.707 70.9705 52.0769 71.2034 52.46 71.6765Z" fill="black"/>
</svg>
