<svg width="30" height="28" viewBox="0 0 30 28" fill="none" xmlns="http://www.w3.org/2000/svg">
<path d="M23.3333 12.6668H12.6667V15.3334H23.3333V19.3334L30 14.0001L23.3333 8.66675V12.6668ZM24.6667 22.0001H21.056C19.5164 23.3579 17.6178 24.2426 15.5878 24.548C13.5579 24.8535 11.483 24.5667 9.61199 23.7221C7.74102 22.8775 6.15349 21.511 5.03991 19.7865C3.92633 18.062 3.334 16.0529 3.334 14.0001C3.334 11.9473 3.92633 9.93814 5.03991 8.21367C6.15349 6.48919 7.74102 5.12267 9.61199 4.27808C11.483 3.43349 13.5579 3.14672 15.5878 3.45216C17.6178 3.75761 19.5164 4.6423 21.056 6.00009H24.6667C23.4258 4.34299 21.8156 2.9981 19.9639 2.07227C18.1123 1.14645 16.0702 0.665197 14 0.666752C6.636 0.666752 0.666666 6.63609 0.666666 14.0001C0.666666 21.3641 6.636 27.3334 14 27.3334C16.0702 27.335 18.1123 26.8537 19.9639 25.9279C21.8156 25.0021 23.4258 23.6572 24.6667 22.0001V22.0001Z" fill="white"/>
</svg>
