<svg width="64" height="64" viewBox="0 0 64 64" fill="none" xmlns="http://www.w3.org/2000/svg">
<path opacity="0.5" d="M40.7279 49.9413C37.1795 49.9418 33.7106 48.8901 30.7598 46.9191C27.8091 44.9481 25.5091 42.1464 24.1507 38.8682C22.7922 35.5901 22.4364 31.9828 23.1282 28.5024C23.8199 25.022 25.5282 21.8249 28.037 19.3154C30.5457 16.8059 33.7423 15.0966 37.2225 14.4039C40.7027 13.7111 44.3101 14.0658 47.5887 15.4233C50.8672 16.7807 53.6696 19.0799 55.6415 22.03C57.6133 24.9802 58.6661 28.4488 58.6666 31.9973V31.9999C58.6617 36.7563 56.7702 41.3165 53.4072 44.68C50.0442 48.0435 45.4843 49.9356 40.7279 49.9413Z" fill="#F8F8F8"/>
<path d="M23.2719 49.9413C19.7234 49.9413 16.2547 48.889 13.3042 46.9176C10.3538 44.9462 8.05421 42.1441 6.69628 38.8658C5.33834 35.5874 4.98304 31.98 5.67531 28.4998C6.36758 25.0195 8.07633 21.8226 10.5855 19.3135C13.0946 16.8044 16.2915 15.0956 19.7717 14.4033C23.252 13.7111 26.8594 14.0664 30.1378 15.4243C33.4161 16.7822 36.2182 19.0818 38.1896 22.0323C40.161 24.9827 41.2132 28.4515 41.2132 31.9999C41.2083 36.7568 39.3165 41.3173 35.9529 44.6809C32.5893 48.0445 28.0287 49.9363 23.2719 49.9413Z" fill="#F8F8F8"/>
</svg>
