<svg width="96" height="95" viewBox="0 0 96 95" fill="none" xmlns="http://www.w3.org/2000/svg">
<g opacity="0.5">
<path d="M61.4893 9.70039L80.6006 22.2285C83.9033 24.6592 84.6084 29.2979 82.1777 32.6006C79.7471 35.9033 75.1084 36.6084 71.8057 34.1777L55.5332 23.583H35.958C34.4922 23.583 32.9893 25.0859 32.9893 26.5518C32.9893 28.333 34.4922 29.5205 35.958 29.5205H47.666C50.6348 29.5205 53.2139 31.71 53.8633 34.623C54.457 38.334 51.6182 41.3955 47.833 41.3955H27.0518C22.042 41.3955 17.3606 39.8369 13.4642 36.6826L4.83623 29.5205L3.30176 29.6875C1.84521 29.6875 0.5 28.333 0.5 26.5518V8.90439C0.5 7.28272 1.84521 5.9375 3.30176 5.9375H49.874C54.123 5.9375 58.1865 7.27158 61.4893 9.70039ZM28.5732 85.2959L3.51885 66.834C0.22001 64.4033 -0.484326 59.7646 1.94782 56.4619C4.3835 53.1592 9.02402 52.4541 12.3268 54.8848L34.5293 71.25H56.9062C58.5391 71.25 59.875 69.9141 59.875 68.2812C59.875 66.667 58.5391 65.3125 56.9062 65.3125H42.3965C39.4277 65.3125 36.6816 63.29 36.1992 60.377C35.6055 56.666 38.4443 53.4375 42.0625 53.4375H65.8125C70.8223 53.4375 75.665 55.1631 79.5615 58.3174L88.1895 65.3125H92.5312C94.1455 65.3125 95.5 66.667 95.5 68.2812V86.0938C95.5 87.7266 94.1455 89.0625 92.5312 89.0625H40.0215C35.7725 89.0625 31.876 87.7266 28.5732 85.2959Z" fill="#000001"/>
</g>
</svg>
