<svg width="33" height="32" viewBox="0 0 33 32" fill="none" xmlns="http://www.w3.org/2000/svg">
<g clip-path="url(#clip0_920_282)">
<path d="M10.6625 2.48606C10.7988 2.25851 11.02 2.09442 11.2773 2.02991C11.5346 1.9654 11.807 2.00574 12.0345 2.14206C12.2621 2.27838 12.4261 2.49952 12.4907 2.75682C12.5552 3.01412 12.5148 3.28651 12.3785 3.51406L7.28651 12.0001H25.7545L20.6605 3.51406C20.5242 3.28651 20.4838 3.01412 20.5484 2.75682C20.6129 2.49952 20.777 2.27838 21.0045 2.14206C21.2321 2.00574 21.5045 1.9654 21.7618 2.02991C22.0191 2.09442 22.2402 2.25851 22.3765 2.48606L28.0865 12.0001H31.5205C31.7857 12.0001 32.0401 12.1054 32.2276 12.293C32.4152 12.4805 32.5205 12.7348 32.5205 13.0001V17.0001C32.5205 17.2653 32.4152 17.5196 32.2276 17.7072C32.0401 17.8947 31.7857 18.0001 31.5205 18.0001H30.5205V28.0001C30.5205 29.0609 30.0991 30.0783 29.3489 30.8285C28.5988 31.5786 27.5814 32.0001 26.5205 32.0001H6.52051C5.45964 32.0001 4.44223 31.5786 3.69208 30.8285C2.94194 30.0783 2.52051 29.0609 2.52051 28.0001V18.0001H1.52051C1.25529 18.0001 1.00094 17.8947 0.813401 17.7072C0.625865 17.5196 0.520508 17.2653 0.520508 17.0001V13.0001C0.520508 12.7348 0.625865 12.4805 0.813401 12.293C1.00094 12.1054 1.25529 12.0001 1.52051 12.0001H4.95451L10.6605 2.48606H10.6625ZM7.52051 21.0001C7.52051 20.7348 7.41515 20.4805 7.22761 20.293C7.04008 20.1054 6.78572 20.0001 6.52051 20.0001C6.25529 20.0001 6.00094 20.1054 5.8134 20.293C5.62586 20.4805 5.52051 20.7348 5.52051 21.0001V27.0001C5.52051 27.2653 5.62586 27.5196 5.8134 27.7072C6.00094 27.8947 6.25529 28.0001 6.52051 28.0001C6.78572 28.0001 7.04008 27.8947 7.22761 27.7072C7.41515 27.5196 7.52051 27.2653 7.52051 27.0001V21.0001ZM12.5205 21.0001C12.5205 20.7348 12.4152 20.4805 12.2276 20.293C12.0401 20.1054 11.7857 20.0001 11.5205 20.0001C11.2553 20.0001 11.0009 20.1054 10.8134 20.293C10.6259 20.4805 10.5205 20.7348 10.5205 21.0001V27.0001C10.5205 27.2653 10.6259 27.5196 10.8134 27.7072C11.0009 27.8947 11.2553 28.0001 11.5205 28.0001C11.7857 28.0001 12.0401 27.8947 12.2276 27.7072C12.4152 27.5196 12.5205 27.2653 12.5205 27.0001V21.0001ZM17.5205 21.0001C17.5205 20.7348 17.4152 20.4805 17.2276 20.293C17.0401 20.1054 16.7857 20.0001 16.5205 20.0001C16.2553 20.0001 16.0009 20.1054 15.8134 20.293C15.6259 20.4805 15.5205 20.7348 15.5205 21.0001V27.0001C15.5205 27.2653 15.6259 27.5196 15.8134 27.7072C16.0009 27.8947 16.2553 28.0001 16.5205 28.0001C16.7857 28.0001 17.0401 27.8947 17.2276 27.7072C17.4152 27.5196 17.5205 27.2653 17.5205 27.0001V21.0001ZM22.5205 21.0001C22.5205 20.7348 22.4152 20.4805 22.2276 20.293C22.0401 20.1054 21.7857 20.0001 21.5205 20.0001C21.2553 20.0001 21.0009 20.1054 20.8134 20.293C20.6259 20.4805 20.5205 20.7348 20.5205 21.0001V27.0001C20.5205 27.2653 20.6259 27.5196 20.8134 27.7072C21.0009 27.8947 21.2553 28.0001 21.5205 28.0001C21.7857 28.0001 22.0401 27.8947 22.2276 27.7072C22.4152 27.5196 22.5205 27.2653 22.5205 27.0001V21.0001ZM27.5205 21.0001C27.5205 20.7348 27.4152 20.4805 27.2276 20.293C27.0401 20.1054 26.7857 20.0001 26.5205 20.0001C26.2553 20.0001 26.0009 20.1054 25.8134 20.293C25.6259 20.4805 25.5205 20.7348 25.5205 21.0001V27.0001C25.5205 27.2653 25.6259 27.5196 25.8134 27.7072C26.0009 27.8947 26.2553 28.0001 26.5205 28.0001C26.7857 28.0001 27.0401 27.8947 27.2276 27.7072C27.4152 27.5196 27.5205 27.2653 27.5205 27.0001V21.0001Z" fill="white"/>
</g>
<defs>
<clipPath id="clip0_920_282">
<rect width="32" height="32" fill="white" transform="translate(0.520508)"/>
</clipPath>
</defs>
</svg>
