<svg width="89" height="100" viewBox="0 0 89 100" fill="none" xmlns="http://www.w3.org/2000/svg">
<path d="M15.3316 0L11.7602 3.57142H6.09697L2.52555 0H15.3316ZM12.5 58.9285H5.35717V55.357H12.5V58.9285ZM10.806 79.3064L13.2198 94.9976C13.4128 96.25 13.0493 97.5239 12.2242 98.4853C11.3991 99.4467 10.1953 100 8.92865 100C7.662 100 6.45825 99.4467 5.63315 98.4853C4.80805 97.5239 4.44454 96.25 4.63746 94.9976L7.05052 79.3064C7.1119 78.9086 7.14299 78.506 7.14299 78.1026V73.2837C7.14458 71.7212 6.68221 70.1937 5.81407 68.8943L4.93397 67.5749C4.18699 66.4613 3.99967 65.0637 4.42775 63.7931L4.85903 62.5001H12.9992L13.4305 63.7931H13.4297C13.8578 65.0638 13.6705 66.4613 12.9235 67.5749L12.0434 68.8951V68.8943C11.1752 70.1937 10.7129 71.7212 10.7145 73.2837V78.1027C10.7145 78.5052 10.7456 78.9078 10.8061 79.3064L10.806 79.3064ZM11.2373 43.3799C10.8155 43.8024 10.6322 44.4075 10.7486 44.9926L12.1078 51.7855H5.74946L7.10786 44.9926H7.10866C7.22505 44.4075 7.0417 43.8024 6.61999 43.3799L0 36.7599V2.5253L4.09428 6.61958C4.42909 6.95439 4.8835 7.14254 5.35703 7.14254H12.4999C12.9734 7.14254 13.4278 6.9544 13.7626 6.61958L17.8569 2.5253V36.7599L11.2373 43.3799Z" fill="black"/>
<path d="M42.8561 7.14282L40.1775 10.7142H34.8204L32.1418 7.14282H42.8561ZM41.0704 58.9284H33.9276V55.357H41.0704V58.9284ZM39.3764 79.3064L41.7902 94.9976C41.9832 96.2499 41.6196 97.5239 40.7945 98.4853C39.9694 99.4467 38.7657 100 37.499 100C36.2324 100 35.0286 99.4467 34.2035 98.4853C33.3784 97.5239 33.0149 96.25 33.2078 94.9976L35.6209 79.3064C35.6823 78.9086 35.7134 78.506 35.7134 78.1026V73.2836C35.715 71.7212 35.2526 70.1936 34.3845 68.8943L33.5044 67.5749C32.7574 66.4612 32.5701 65.0637 32.9981 63.7931L33.4294 62.5H41.5696L42.0009 63.7931H42.0001C42.4282 65.0638 42.2409 66.4612 41.4939 67.5749L40.6138 68.8951V68.8943C39.7456 70.1937 39.2833 71.7212 39.2849 73.2837V78.1026C39.2849 78.5052 39.316 78.9078 39.3765 79.3064L39.3764 79.3064ZM39.641 43.5717H39.6418C39.3373 43.9783 39.2201 44.4949 39.319 44.9931L40.6782 51.786H34.3198L35.6783 44.9931H35.679C35.7779 44.4949 35.6607 43.9783 35.3562 43.5717L30.3562 36.9048V10.7151L32.4991 13.5722C32.8363 14.0218 33.3656 14.2865 33.9276 14.2865H41.0705C41.6325 14.2865 42.1618 14.0218 42.499 13.5722L44.6419 10.7151V36.9048L39.641 43.5717Z" fill="black"/>
<path d="M60.6601 44.2101L58.9278 37.2801V21.4287H66.0706V37.2801L64.3383 44.2093V44.2101C64.2738 44.466 64.2674 44.7339 64.3192 44.9929L65.6784 51.7858H59.3201L60.6785 44.9929H60.6793C60.7311 44.7339 60.7247 44.466 60.6601 44.2101L60.6601 44.2101ZM66.0707 55.3572V58.9287H58.9279V55.3572H66.0707ZM66.0707 14.2859V17.8573H58.9279V14.2859H66.0707ZM64.3767 79.3062L66.7905 94.9974C66.9835 96.2498 66.6199 97.5237 65.7949 98.4851C64.9697 99.4465 63.766 99.9998 62.4993 99.9998C61.2327 99.9998 60.0289 99.4465 59.2038 98.4851C58.3787 97.5237 58.0152 96.2498 58.2082 94.9974L60.6212 79.3062C60.6826 78.9084 60.7137 78.5058 60.7137 78.1024V73.2835C60.7153 71.721 60.2529 70.1935 59.3848 68.8941L58.5047 67.5747C57.7577 66.4611 57.5704 65.0635 57.9984 63.7929L58.4297 62.4999H66.5699L67.0012 63.7929H67.0004C67.4285 65.0636 67.2412 66.4611 66.4942 67.5747L65.6141 68.8949V68.8941C64.7459 70.1935 64.2836 71.721 64.2852 73.2835V78.1024C64.2852 78.505 64.3163 78.9076 64.3768 79.3062L64.3767 79.3062Z" fill="black"/>
<path d="M82.1418 44.6428V28.5714H85.7132V44.6428C85.7132 44.7608 85.7252 44.878 85.7475 44.9928L87.1067 51.7856H80.7484L82.1068 44.9928H82.1076C82.1299 44.878 82.1418 44.7608 82.1418 44.6428H82.1418ZM87.4989 55.3571V58.9285H80.3561V55.3571H87.4989ZM85.7132 21.4286V25H82.1418V21.4286H85.7132ZM85.8049 79.306L88.2188 94.9972C88.4117 96.2496 88.0482 97.5236 87.2231 98.485C86.398 99.4464 85.1942 99.9996 83.9276 99.9996C82.6609 99.9996 81.4572 99.4464 80.6321 98.485C79.807 97.5236 79.4435 96.2497 79.6364 94.9972L82.0494 79.306C82.1108 78.9082 82.1419 78.5056 82.1419 78.1023V73.2833C82.1435 71.7208 81.6811 70.1933 80.813 68.8939L79.9329 67.5746C79.1859 66.4609 78.9986 65.0634 79.4267 63.7928L79.8579 62.4997H87.9981L88.4294 63.7928H88.4286C88.8567 65.0635 88.6694 66.4609 87.9224 67.5746L87.0423 68.8947V68.8939C86.1742 70.1934 85.7118 71.7209 85.7134 73.2833V78.1023C85.7134 78.5049 85.7445 78.9075 85.8051 79.3061L85.8049 79.306Z" fill="black"/>
</svg>
