<svg width="102" height="100" viewBox="0 0 102 100" fill="none" xmlns="http://www.w3.org/2000/svg">
<g clip-path="url(#clip0_1065_563)">
<path d="M82.5295 35.6678L83.1206 35.3752L82.9566 34.9424L83.1889 34.7422L83.0659 34.6413L83.2931 33.7911L83.6945 33.5601L84.2378 32.6261L84.1148 32.2463L85.1055 30.4911L84.9689 30.178L84.5213 30.2464L84.2309 30.0429L84.4598 29.7743L84.2941 29.5536L84.523 28.741L84.3283 28.4296L84.6426 28.4912L84.154 28.2072L84.8647 28.173L85.2422 27.9079L85.8537 26.7548L85.577 26.7292L85.413 26.411L85.9255 25.6035L85.4591 25.1673L85.536 25.0133L84.7793 24.7653L84.5879 25.2306L84.2463 25.4188L84.3232 25.1296L84.0601 25.0817L84.0533 24.7789L84.3659 24.5805L84.0498 24.6181L84.0362 24.4505L83.37 24.2469L83.2931 23.8175L83.5391 23.8192L83.6228 23.5164L83.92 23.5712L84.1694 22.3925L84.3881 22.2625L84.5879 23.034L85.7803 23.3796L85.7563 23.5763L86.0057 23.708L86.9009 23.4377L87.5021 23.8261L87.7977 23.5609L88.211 22.5191L88.8875 22.4866L88.908 22.6268L89.3248 22.3856L89.8373 22.7346L90.3156 22.4712L91.4447 23.2051L92.4337 23.4634L91.8427 24.1272L91.4208 25.2254L90.5872 25.7113L90.5308 26.0894L89.6459 26.9567L89.3692 27.5674L89.4119 28.3099L89.1454 28.5716L88.8909 29.5947L88.978 30.3115L88.6125 30.5817L88.4229 31.4337L87.7874 32.508L87.7362 33.425L88.1103 34.0836L87.6439 35.0656L87.4526 36.1194L87.5824 36.5984L87.3245 36.9816L87.8899 37.9584L87.8318 38.2595L87.234 38.6393L87.4577 38.7608L87.2237 38.8377L87.3194 39.0721L87.1588 39.2363L86.7539 39.1012L86.6788 39.2569L86.9248 39.3544L86.4345 39.7615L86.0245 39.6657L85.4198 39.8744L85.3413 39.6863L84.9005 39.6384L85.126 39.1132L84.6341 39.0191L84.7092 38.7916L84.3044 38.0765L83.7321 37.979L84.0191 37.2485L83.9525 36.7113L83.2675 36.2049L82.7431 36.0835L82.5295 35.6678Z" fill="#0A0808"/>
<path d="M38.521 57.5001L38.6867 57.7208L39.1667 57.6472L39.5494 57.9329L39.3837 58.4359L39.8125 58.8687L40.2156 58.3846L40.4172 58.6035L41.2747 58.506L41.7513 59.3118L41.9682 59.1424L42.3269 59.3648L42.0041 59.8695L43.2289 60.2972L42.9658 60.6102L43.4475 60.8446L43.0273 61.4074L42.8257 61.4177L42.7591 61.9155L43.1178 62.0986L42.7625 62.5998L43.1964 62.7572L42.9914 62.983L42.9556 62.9864L43.3314 63.3149L44.0659 63.397L43.825 63.5955L44.3221 64.4525L44.0539 64.6065L44.083 64.7245L44.2828 65.4927L44.0779 65.5525L44.276 65.8707L43.7208 66.2266L43.7499 66.5516L43.2699 66.7022L43.3946 67.2581L42.7437 67.8193L42.2091 67.9561L42.2518 68.2641L41.8333 68.7157L41.9016 68.9158L41.2713 69.2768L41.0321 69.2067L41.2832 69.5762L41.2866 70.1835L41.5548 70.3614L41.5958 70.9653L40.8186 71.0046L40.7434 71.1672L40.5948 70.7823L40.424 70.8113L40.2327 71.5127L40.81 71.8651L40.4974 72.6897L40.1199 72.7547L40.3471 72.8437L40.4086 73.2098L40.1814 73.321L39.6638 73.1533L39.727 73.4732L39.4332 73.5092L39.3085 73.9591L38.767 74.3269L38.2648 73.776L38.0017 74.0241L37.3287 74.0155L37.1955 74.2841L36.2884 74.4774L36.1876 74.6622L35.694 74.3543L35.4155 74.4227L35.1661 74.8384L34.956 74.5544L34.4504 74.9513L34.5956 75.391L34.4743 75.5928L33.9072 75.2695L34.1036 75.0249L33.7978 74.7272L33.3759 75.2763L32.7832 75.1703L32.3578 75.5791L32.7353 75.8666L32.5782 75.9709L32.6858 76.4396L32.4518 76.4568L32.6773 77.1513L32.2861 77.4456L32.3407 77.9588L32.0589 78.0734L32.0743 78.3146L32.3032 78.3403L32.3647 78.6636L32.8002 78.5302L33.3725 78.6704L33.393 79.0468L33.586 79.0006L33.926 79.7414L33.5894 79.8286L33.5792 80.3367L34.0507 80.0014L34.0302 80.7131L34.2659 80.9662L33.7278 81.4025L33.9328 81.7036L33.7056 82.2082L33.5365 82.1672L33.5741 82.6137L33.2222 82.5846L33.0189 83.0807L32.6858 83.2227L32.778 83.8266L32.2058 83.9686L32.0128 84.2765L32.0606 84.9659L31.7326 85.1268L31.8334 85.782L31.256 86.2695L30.9144 86.3037L30.4634 85.9958L30.1389 86.4731L29.242 85.4398L28.8611 85.3252L28.704 84.6341L27.3613 84.776L26.1485 84.0918L25.9503 84.2474L25.7983 83.984L25.3371 83.7907L25.0979 83.9036L24.7682 83.6624L25.0398 83.1782L24.5205 83.4092L24.4522 84.049L23.8424 83.8779L23.6084 83.4708L24.0252 83.0893L24.2558 82.4922L24.2097 81.825L23.1711 81.476L22.9746 81.5308L22.879 81.9054L22.6518 81.8832L22.539 81.3477L21.7942 81.4504L21.7362 81.1185L21.386 80.9201L21.374 80.6925L22.2333 80.5471L22.7098 80.1109L23.7997 78.0169L24.8605 72.4879L25.144 69.1964L25.5916 68.0553L26.936 68.2829L26.8386 67.8569L26.473 67.6841L26.7258 67.6807L25.7795 66.8903L25.3166 67.7132L25.2158 68.4916L25.1082 68.3137L25.8495 59.8644L26.292 59.0483L26.5294 58.8738L26.6797 59.2519L26.4064 59.2998L26.5858 59.3118L26.4901 59.5L28.3504 61.1696L29.16 63.8931L29.8348 64.5518L29.3138 63.3423L28.9824 61.3561L29.8314 61.428L29.8895 61.1679L30.0483 61.6726L31.0408 61.8539L31.2048 62.7794L31.2133 62.8239L31.3397 63.2088L31.4849 62.9437L31.6643 62.9779L31.8334 63.2636L32.0743 63.2157L32.2263 63.4945L32.708 63.6998L33.0428 63.7477L33.4374 63.4261L33.7483 63.6571L33.7996 63.2413L34.0899 63.113L33.926 62.9933L34.119 62.6135L34.4572 62.3672L35.0175 62.5776L35.3045 62.0267L35.9485 61.6606L35.8152 60.9319L36.0185 60.3485L36.3089 60.251L36.2047 60.0235L36.4046 60.198L36.7599 59.7566L37.122 59.7549L37.245 59.3734L37.6379 59.0928L37.684 58.2717L38.0701 58.2665L38.521 57.5001ZM33.5177 81.3512L33.4767 80.7404L33.4101 80.7079L33.4374 81.0757L33.2307 81.1596L33.4015 81.3238L33.5177 81.3512ZM33.2461 81.3289L33.1966 81.3666L33.0582 81.6967L33.1914 81.9961L33.4869 81.784L33.311 81.3529L33.27 81.3255L33.2461 81.3289Z" fill="#0A0808"/>
<path d="M50.2239 50.2569L50.3503 49.7385L50.5263 49.7368L50.7927 49.2629L51.6878 49.0987L52.0397 49.2373L52.5932 48.8849L52.5163 48.4606L52.2516 48.3135L52.46 47.9987L52.2772 47.7951L52.5249 47.6668L52.6871 47.7986L52.6615 47.4718L53.2099 47.1793L53.3106 46.9038L53.6318 47.1964L53.8983 47.0116L54.2365 47.1057L54.7643 46.4112L55.5484 46.3906L55.738 46.8423L56.7424 47.6138L57.2344 47.1947L57.7862 47.5351L58.0151 47.2392L58.3089 47.2255L58.5651 47.8704L59.3031 47.4838L59.2091 47.1348L59.5593 47.1194L59.5012 46.7328L59.7591 46.8046L59.8548 47.299L60.5518 48.3819L60.591 49.0354L61.042 49.2407L61.2794 49.1107L61.493 49.5555L62.0669 49.5059L62.4188 49.8258L62.2514 50.4759L62.3129 51.1909L62.453 51.2046L62.0413 51.2645L61.7048 51.7332L61.6587 51.7452L61.5972 51.7538L60.7738 52.1096L61.0625 52.8897L60.9515 53.4115L61.153 53.6493L61.0386 54.0085L61.2214 54.5611L60.9139 54.8245L60.3024 54.8622L60.246 55.2642L60.6833 55.7124L60.4066 55.8732L60.4561 56.448L60.2186 56.6756L60.8695 57.3462L60.8439 57.6866L61.1752 58.2922L61.9559 58.8328L62.318 59.6642L62.166 60.2681L61.6399 60.6804L61.7475 61.2945L62.0567 60.872L62.3232 60.913L62.5538 61.3561L62.5709 61.1406L62.9296 61.2757L63.0013 61.0499L63.5155 60.9832L63.4523 60.7916L63.6914 60.7026L64.0775 60.7385L64.3542 61.0516L64.7967 60.949L65.029 61.2706L64.7745 61.4571L65.0529 61.6213L64.8991 61.8916L65.1571 62.078L65.5124 61.8916L65.9002 62.4133L65.5944 63.0395L65.6644 63.4586L65.5107 63.5493L65.4202 63.2841L65.0717 63.2088L65.2493 63.5082V63.5989L65.0546 63.5852L64.8804 63.8846L65.1144 64.2849L64.5233 64.4577L64.6463 64.9213L64.016 65.0205L63.5309 65.9221L62.6665 65.9289L62.6221 66.3155L62.4222 66.4524L62.2975 66.3224L62.3385 66.5362L62.0618 66.3823L61.879 66.9639L61.4383 67.2068L61.2555 67.1709L61.3068 66.928L61.0693 67.0032L60.726 66.6423L60.5996 66.2693L60.0547 66.3634L60.1025 66.0846L59.795 65.8382L59.5371 65.893L59.5012 66.3891L58.7171 66.555L58.2832 65.6672L58.2713 65.2326L57.9587 64.899L57.3523 65.3815L57.0414 65.2942L57.0004 65.7732L56.6878 66.0247L56.259 65.6141L56.1019 65.9922H56.0609L56.0284 66.3121L55.8405 66.2728L55.6543 66.6474L55.6048 67.4891L55.1982 68.199L54.8788 67.8449L54.7011 67.034L54.8822 66.9074L54.7643 66.7124L54.5354 66.7552L54.3322 65.9067L53.7172 66.0914L53.7274 65.5303L53.4627 65.2378L52.5249 66.1924L52.4941 66.7295L52.1354 67.1144L52.2089 67.4463L51.7784 67.756L51.6673 68.1375L50.7347 68.2384L50.5519 67.9407L50.3281 67.9613L49.7729 68.1426L49.6841 68.4642L49.445 68.2572L49.3613 67.6892L49.1546 67.679L49.4518 66.7637L48.8813 65.9169L48.965 65.4482L48.6711 64.8956L48.953 64.8221L49.0128 64.8375L49.2485 64.6407L48.9342 64.0539L49.462 63.8315L49.5082 63.2807L49.8823 62.995L49.6585 62.8359L49.6107 62.4305L50.7859 61.2706L50.7073 60.5127L51.6434 60.9353L51.9817 60.7129L51.693 60.4392L51.9082 59.074L51.5085 58.6515L51.6844 58.1981L51.9372 58.1844L51.9509 57.495L50.9909 56.3266L51.4743 55.9109L51.5051 55.904L51.7305 55.9348L52.1849 55.4284L52.2396 54.9905L52.5744 54.8348L52.5044 54.1933L52.1388 53.6715L52.2498 52.965L51.6571 51.6888L51.2967 51.5245L51.2249 51.658L50.9858 51.1619L50.8235 51.3791L50.3794 51.0421L50.6031 50.7444L50.2734 50.6504L50.2239 50.2569Z" fill="#0A0808"/>
<path d="M69.0912 35.1922L68.8264 34.6157L68.5873 34.6516L68.524 34.8774L68.3191 34.7457L68.5582 34.4121L68.4181 34.1983L67.986 34.1794L68.1602 33.9023L68.0458 33.7192L67.3864 33.5294L66.5254 33.4746L66.2231 33.7141L66.3546 34.1213L64.6515 34.1931L64.4978 34.578L64.1562 34.5233L64.0263 34.0802L63.8026 34.1298L63.8555 34.4035L63.6061 34.2119L63.5173 34.2598L63.2013 34.5678L62.846 34.3591L62.7366 34.5763L62.4514 34.3933L61.6741 34.5336L61.8057 33.9998L61.6724 33.7689L61.5699 34.0101L61.3684 33.9656L61.2795 33.7449L61.5118 33.6269L61.16 33.3189L60.9396 32.5371L60.574 32.3815L60.6355 32.0273L60.3947 31.9384L60.4545 32.13L60.0599 32.301L59.7985 31.7707L59.433 31.8272L59.7336 31.3909L59.5867 31.3174L59.7165 30.9325L59.421 30.7699L59.491 30.5937L58.8983 29.8906L58.6335 29.7863L58.3619 29.9745L58.2628 29.6374L57.9895 29.5331L57.9109 29.8273L57.706 29.8547L56.3223 29.8239L56.0592 30.0771L55.6612 29.9659L55.434 30.5441L55.6612 31.1326L55.3572 31.5877L54.8823 31.8374L54.8806 32.053L55.5365 32.3695L55.4409 32.5525L55.5809 32.5423L55.68 33.0059L56.2113 33.4661L56.0319 33.5755L56.2352 34.0699L55.9995 34.3454L55.9567 34.3813L55.393 34.7748L55.2974 35.1853L55.5587 35.3701L55.5075 36.0339L54.2759 36.3452L54.2485 36.7712L54.4655 36.7353L54.8037 37.1407L54.9967 37.5273L54.8772 38.0132L55.1607 38.3228L54.3391 38.5572V38.5196L54.2502 38.6513L54.8362 39.6983L54.3886 40.7401L55.1966 41.5407L55.5434 43.0051L55.4528 43.597L55.8782 44.0179L55.8901 44.7244L55.6766 45.2239L55.8167 45.8021L55.5485 46.3906L55.7381 46.8423L56.7425 47.6138L57.2345 47.1947L57.7862 47.5351L58.0151 47.2392L58.309 47.2255L58.5652 47.8704L59.3031 47.4838L59.2092 47.1348L59.5594 47.1194L59.5013 46.7328L59.7592 46.8046L59.8549 47.299L60.5518 48.3819L60.5911 49.0354L61.0421 49.2407L61.2795 49.1107L61.4931 49.5555L62.067 49.5059L62.4189 49.8258L62.2515 50.4759L62.313 51.191L62.4531 51.2046L62.0414 51.2645L61.7049 51.7333L61.6434 52.3628L62.2276 52.4826L62.3455 52.8247L63.15 52.5219L63.6847 52.7768L63.8931 52.5664L64.0212 52.7375L64.2245 52.6365L64.192 52.9342L64.3731 52.9564L65.0632 52.6536L65.2972 51.5297L65.673 51.516L65.9942 51.8188L66.452 51.5485L66.8056 51.8393L66.9405 51.4767L67.2429 51.4236L67.4598 51.7059L67.2395 51.9078L67.6409 52.1695L67.523 52.5647L67.7981 52.7939L67.9518 52.7529L69.0946 49.2424L69.1629 49.4255L69.4004 49.2818L69.9162 49.5966L70.6952 49.393L70.7037 49.2373L70.9736 49.3759L71.1837 49.8651L71.7406 49.9849L71.8072 49.8121L72.4683 49.6701L72.4956 49.4084L72.0583 49.2305L72.0498 48.7925L72.3761 48.5924L72.3163 48.2964L72.6391 48.0158L72.3112 47.5283L72.2924 47.0801L72.0652 47.0664L72.2821 46.6473L71.8294 46.1819L72.8117 45.9219L72.3641 45.6328L72.3402 45.3847L71.8448 45.4361L71.5954 44.8955L71.3836 45.0084L71.3153 44.4952L71.7679 44.1342L71.4639 43.9905L71.5237 43.7578L72.2411 43.414L72.6255 42.7656L72.6221 42.7126L72.9705 41.267L73.1926 41.1147L72.8629 40.9762H72.839L73.0252 40.7196L72.9432 40.1738L72.9159 40.1567L72.6221 40.1773H72.5776L72.6238 39.5717L72.1147 39.4245L72.4068 39.2911L72.2616 39.25L72.3436 39.0636L72.6938 39.0773L73.0389 38.4717L72.6425 37.6881L72.3129 38.0594L72.154 37.9499L72.0327 38.097L71.6894 37.9037L71.2999 38.2476L71.3546 37.7703L70.7464 37.4555L70.7823 37.1595L70.3501 37.5154L69.8975 37.2861L69.9487 37.0021L69.7232 37.0329L69.7181 36.8413L69.291 37.0979L69.2227 36.2973L68.9152 36.2426L69.4584 35.8115L69.1851 35.1922H69.0912Z" fill="#0A0808"/>
<path d="M11.0204 40.2303L11.2322 40.4852L11.6627 40.4749L11.7874 40.8393L12.3409 40.9967L12.2452 41.2875L11.087 41.1165L10.9111 40.5998L11.0204 40.2303ZM11.1844 24.5223L11.2203 24.9038L12.1718 24.5172V25.0373L12.6945 25.0048L12.7491 25.2562L12.469 25.4667L13.2838 25.7301L13.1659 26.1031L14.0747 26.8763L14.0405 27.4494L14.8075 27.872L14.6179 28.2056L14.8178 28.1217L15.0928 28.6007L15.0313 28.1217L15.4225 28.2346L15.9384 27.4015L16.5123 27.1569L16.4064 26.9157L16.7703 26.8335L16.8933 27.085L17.6124 26.4486L17.8601 26.6659L17.4809 27.1842L17.6449 27.292L18.1454 26.9242L18.3777 27.5384L18.2803 27.9335L18.4802 27.2835L18.5998 27.6547L18.803 27.2065L18.9875 27.393L18.7928 27.0423L19.5341 26.9841L19.6093 27.4032L19.8929 27.588L19.7648 27.7043L20.0637 28.002L19.9749 28.522L20.1201 28.1936L20.3063 28.2569L19.9646 27.5743L20.2431 27.7231L20.1474 27.4956L19.7801 27.4186L19.8877 27.2373L19.6349 27.0303L19.9305 26.5068L20.981 26.1972L21.0357 26.5496L20.8033 26.9926L21.4439 27.357L22.9027 27.032L23.4938 28.587L23.9704 28.8881L24.4487 28.8026L25.1593 28.0003L26.4626 28.3818L26.3841 29.3825L26.6386 30.2978L26.2423 30.965L26.4012 31.6339L26.4302 31.6612L26.8419 33.7586L25.8596 34.164L25.2105 36.1519L24.3838 35.9141L24.2078 35.6079L23.5655 35.5326L23.6065 35.8731L22.5491 36.2888L22.2809 36.8567L20.8614 36.867L20.1884 37.2588L20.0586 37.0227L19.2882 37.4846L19.172 38.7129L18.7518 38.8309L18.7074 39.1645L18.5553 38.925L18.13 39.1149L17.7491 38.8874L17.6158 39.4656L17.018 39.5152L16.8642 39.2979L16.6199 39.6007L16.3535 39.5802L16.309 39.1388L16.7395 39.0738L16.2527 38.8018L14.0832 39.2004L13.4034 38.499L13.0361 38.4973L12.8482 38.2219L12.7406 38.3605L12.5971 38.0902L12.6313 38.3519L11.8984 38.3297L11.866 38.9147L12.2076 39.3869L11.8421 39.3407L11.62 38.7522L11.8147 38.5897L11.7122 38.056L10.7437 37.1116L10.2159 37.1048L10.1783 36.843L9.55649 37.0004L9.03377 36.2853L7.9576 36.1553L7.61254 35.8508L6.71061 36.0014L6.3758 35.5395L6.52099 35.2846L6.31601 35.3752L6.06319 34.8227L5.75913 35.0245L5.86163 35.329L5.38845 35.4522L4.93236 35.1511L4.64367 35.3068L4.32594 35.9432L3.07724 35.9449L3.14386 34.9783L2.69802 34.1897L2.06256 33.7364L1.64918 33.7928L1.19992 33.4883L0.458555 33.3788L0.672081 33.3309L0.617418 33.1085L2.73047 32.6586L3.52138 32.8468L3.78957 32.4157L3.44622 31.6287L2.39737 31.2558L2.14798 31.3276L1.72263 31.9846L1.62868 31.302L1.83366 31.1463L1.2785 31.0898L1.23067 30.8213L1.64576 30.7939L1.6338 30.2772L1.91224 30.1678L1.74655 30.5715L1.89174 30.7699L2.14627 30.4791L2.12406 30.8042L2.48449 30.6365L2.86372 30.8692L3.50942 30.6228L3.8391 30.811L4.11583 30.4535L3.93135 30.6074L3.29589 30.4398L3.54017 30.2738L3.33518 30.1763L3.43084 29.9351L3.04137 30.32L2.73218 30.3371L2.87226 30.1489L2.44008 30.3166L2.85176 29.7127L2.68435 29.5793L1.38099 30.1917L0.858276 30.0104L0.670373 30.2653L0.207448 30.2875L0.0827482 29.9471L0.286025 29.723L0.048584 29.3928L0.29115 28.818L0.178408 28.3031L0.511509 27.8685L1.35878 27.6513L1.39124 27.3553L1.69017 27.422L1.84221 27.0046L2.14798 27.174L2.84151 27.0012L2.5904 26.8164L3.23269 26.5735L3.588 26.7087L3.5897 27.0405L4.30374 26.8455L4.11071 26.772L4.36694 26.4692L4.98019 26.3785L5.26888 26.5838L5.31158 26.2656L5.63443 26.0346L5.67885 26.204L5.8975 26.0363L5.88554 26.6077L6.17081 26.7292L6.21352 26.3426L6.22718 26.6077L6.77552 26.7531L6.71231 26.4418L6.87972 26.1732L6.95659 26.3203L6.93609 26.1219L7.95418 26.4777L8.20871 26.3734L8.10451 26.772L8.35561 26.4777L8.64772 26.6488L8.63576 26.0654L8.88345 25.843L8.62893 25.713L8.75363 25.3041L8.61185 25.1861L8.84075 25.3418L9.19776 24.8286L9.29 25.0321L9.36687 24.8474L9.5172 25.0835L9.73756 25.027L9.64702 25.2716L9.94937 25.2494L10.5028 24.8388L10.906 24.8816L11.1844 24.5223Z" fill="#0A0808"/>
<path d="M44.7014 23.7439L45.1404 24.2828L45.0174 24.5L45.3898 24.8319L45.2702 25.6753L45.5914 25.8293L45.2378 26.3014L45.4872 26.452L45.4154 26.7069L45.8681 27.2526L46.2149 27.2492L46.1722 27.6495L46.7256 27.901L46.6454 28.3321L46.8281 28.8299L47.3116 29.1105L47.7403 28.9325L47.7232 29.4766L48.0751 29.5245L48.1503 29.9299L47.935 30.4944L48.0393 30.7271L49.3939 30.6159L49.3102 30.4294L49.5203 30.4791L49.674 30.1301L49.9764 30.2601L49.9729 30.6159L50.3522 30.4688L50.3897 30.3986L50.5589 30.2481L50.7809 30.5167L51.1021 30.4329L51.2404 31.0282L51.9032 31.3874L51.9066 32.0102L51.6624 32.0358L51.3822 32.4686L52.2022 32.2873L53.239 32.4738L53.5841 32.2411L53.4577 32.0136L53.6456 32.1556L53.9018 31.9931L54.047 32.4053L54.3784 32.1265L54.8806 32.0529L55.5366 32.3694L55.4409 32.5525L55.581 32.5422L55.6801 33.0058L56.2113 33.466L56.032 33.5755L56.2352 34.0699L55.9995 34.3453L55.9568 34.3812L55.3931 34.7747L55.2974 35.1853L55.5588 35.37L55.5076 36.0338L54.2759 36.3452L54.2486 36.7711L54.4655 36.7352L54.8038 37.1406L54.9968 37.5273L54.8772 38.0131L55.1608 38.3228L54.3391 38.5571V38.5195L54.2503 38.6512L54.8362 39.6982L54.3887 40.74L55.1967 41.5407L55.5434 43.005L55.4529 43.597L55.8782 44.0178L55.8902 44.7243L55.6767 45.2239L55.8167 45.8021L55.5485 46.3906L54.7645 46.4111L54.2366 47.1057L53.8984 47.0116L53.6319 47.1963L53.3108 46.9038L53.21 47.1792L52.6617 47.4718L52.6873 47.7985L52.525 47.6668L52.2773 47.7951L52.4601 47.9987L52.2517 48.3134L52.5165 48.4606L52.5933 48.8848L52.0399 49.2372L51.688 49.0987L50.7929 49.2629L50.5264 49.7368L50.3505 49.7385L50.2241 50.2568L49.6296 50.1679L48.8626 50.3578L48.0854 50.0173L47.0946 50.1952L46.6966 49.8788L46.4455 49.9438L46.5343 50.1987L46.314 50.5596L46.0065 50.2705L45.6016 50.5819L45.4667 50.2397L45.0089 50.5357L44.8739 50.185L44.0899 51.013L43.6543 50.4621L43.3656 50.5117L43.2973 50.7529L42.6943 50.8111L42.6276 50.5613L42.4073 50.6144L42.5371 50.4416L42.6464 50.1131L42.2125 49.9609L42.1664 49.3587L41.8026 49.0559L41.2833 49.061L41.2457 48.7445L40.5095 48.3921L40.3813 48.1013L40.6307 47.4341L40.5265 47.0954L39.8347 46.4522L39.7015 45.826L39.0506 45.2718L38.9601 44.5396L38.4357 44.1889L38.0821 44.2043L38.299 44.7123L37.6414 44.6952L37.1665 44.9998L36.6472 44.7928L36.3517 44.9878L36.1228 44.3651L36.2748 44.283L36.2065 43.7338L35.9605 43.8228L35.7965 43.5217L35.3233 43.6517L35.4771 43.313L35.3472 43.0666L35.2072 43.2137L35.0141 43.1487L35.0517 42.964L34.6264 43.0256L34.4402 42.5585L34.6025 41.3337L35.3472 40.2884L35.1388 40.1036L35.6257 39.0481L35.6581 38.7641L35.4309 38.6392L35.7128 38.0371L35.7043 37.9481L36.7787 38.3142L36.9154 38.227L36.6421 37.7959L36.7753 37.5444L37.2434 37.801L37.3476 37.5307L38.2837 37.2467L38.4459 37.0243L38.2819 37.0739L38.2102 36.7643L38.5006 36.4067L39.0319 36.2476L38.9669 36.0766L39.5067 35.5616L39.4487 34.8397L39.6554 34.7217L39.8074 34.9697L39.8364 34.5078L40.0739 34.424L39.8586 33.9382L40.026 33.4763L39.7066 33.3976L39.681 33.0434L40.0312 33.0178L40.0465 32.7834L39.821 32.7338L40.0175 32.6876L40.0875 32.3745L40.547 32.3164L39.71 31.7279L39.9406 31.5226L39.6417 31.0196L39.7698 30.7203L39.4094 30.6074L39.5136 30.3644L40.5351 29.8273L40.9741 29.1053L40.6905 28.7187L40.9075 28.2158L39.862 27.2697L39.8381 26.6487L40.1798 26.4588L40.2703 26.1612L41.068 26.0551H41.2149L41.5959 25.701L41.9649 25.8276L42.0093 25.3674L42.725 25.7044L43.504 25.6702L43.7875 25.4563L43.7141 24.8832L44.411 24.4795L44.3239 23.9235L44.7014 23.7439Z" fill="#0A0808"/>
<path d="M68.343 10.4909L68.7735 10.6842L68.5702 10.8724L68.6009 11.2231L68.4523 11.0725L68.232 11.4763L68.3823 11.7739L68.0167 12.5369L68.7171 13.1887L68.425 13.6592L68.6214 14.1758L68.4574 14.4683L69.4772 14.3914L70.1793 14.8002L70.6901 15.5615L71.4297 15.5341L71.8636 15.9926L71.7389 16.4596L71.9798 16.2441L72.3197 16.4015L71.3734 17.2175L71.1786 16.9164L70.673 16.9865L70.5295 16.6837L70.3108 16.6666L70.152 17.2106L70.14 17.2757L69.9316 17.6657L70.3006 18.131L70.3296 18.5501L70.058 18.7332L70.2289 18.9984L69.894 19.1164L69.6891 19.7408L69.9111 19.9153L69.8701 20.1292L69.1646 20.5312L69.455 20.8357L69.0809 21.0974L69.5422 22.3548L69.2654 22.8646L69.5729 22.7124L69.7693 22.8424L69.754 23.1708L69.4721 23.2718L69.7916 23.3795L69.6276 23.7525L69.0741 23.9817L69.0434 24.0125L68.8913 24.5172L69.069 24.7943L68.7376 25.2665L69.5849 25.8755L69.508 27.2321L69.9214 27.0508L70.0205 27.4408L70.3604 27.446L71.018 28.1645L71.8414 28.3646L72.8373 29.2867L72.3009 29.6271L72.6443 29.7537L72.5366 30.2652L72.909 30.0001L73.2302 30.089L73.6863 30.876L73.8468 30.6861L74.1458 30.941L74.0587 31.2198L74.3849 31.302L74.6856 31.6869L74.3371 31.8853L74.2671 32.6397L73.9647 32.8827L74.4515 32.975L74.6326 33.3223L75.0204 33.4318L75.0973 34.2872L75.5192 34.0425L75.7874 34.5677L75.784 34.8397L75.5448 34.773L75.3415 35.146L75.3842 35.3444L74.9076 35.2674L74.7727 35.6831L74.414 35.6746L74.3081 36.1142L74.5404 36.4547L74.4123 37.1082L73.7461 37.2399L73.5377 36.8687L73.2404 37.2313L72.4239 37.216L72.154 37.9499L72.0327 38.097L71.6894 37.9037L71.2999 38.2475L71.3546 37.7702L70.7464 37.4555L70.7823 37.1595L70.3501 37.5153L69.8975 37.2861L69.9487 37.0021L69.7232 37.0329L69.7181 36.8413L69.291 37.0979L69.2227 36.2973L68.9152 36.2425L69.4584 35.8114L69.1851 35.1922H69.0912L68.8264 34.6156L68.5873 34.6516L68.5241 34.8774L68.3191 34.7457L68.5582 34.4121L68.4181 34.1982L67.986 34.1794L68.1602 33.9023L68.0458 33.7192L67.3864 33.5293L66.5255 33.4746L66.2231 33.7141L66.3546 34.1212L64.6515 34.1931L64.4978 34.578L64.1562 34.5233L64.0263 34.0802L63.8026 34.1298L63.8555 34.4035L63.6061 34.2119L63.5173 34.2598L63.2013 34.5677L62.846 34.359L62.7366 34.5763L62.4514 34.3932L61.6741 34.5335L61.8057 33.9998L61.6724 33.7688L61.5699 34.01L61.3684 33.9656L61.2795 33.7449L61.5119 33.6268L61.16 33.3189L60.9396 32.5371L60.574 32.3814L60.6355 32.0273L60.3947 31.9383L60.4545 32.1299L60.0599 32.301L59.7985 31.7707L59.433 31.8271L59.7336 31.3909L59.5867 31.3173L59.7165 30.9324L59.421 30.7699L59.491 30.5937L58.8983 29.8906L58.6335 29.7862L58.3619 29.9744L58.2628 29.6374L58.0391 28.6777L58.4251 28.5631L58.203 28.1628L58.7309 28.0156L58.6164 27.7077L58.9649 27.5007L58.8778 27.3416L59.2895 27.215L59.011 27.0405L59.1101 26.8968L58.5208 27.0166L58.6421 25.9149L58.1193 25.6976L58.4661 25.3554L58.1826 25.1587L58.777 25.1023L58.7633 24.6917L59.0674 24.0467L59.3681 24.0194L59.392 23.7525L59.6004 23.7149L59.5081 23.5284L60.1299 22.9467L59.9386 22.6337L59.474 22.7004L59.4859 22.4489L59.8498 22.2659L59.585 21.8074L59.737 21.4738L60.3246 21.5627L60.6321 21.3831L60.6372 21.1419L60.3947 21.1881L60.2819 20.8631L60.1641 20.9691L59.9625 20.7981L60.135 20.5603L59.901 19.7049L60.8422 19.2396L61.3632 19.3645L61.394 18.9795L61.8774 18.6904L62.1319 19.0103L62.6786 19.1968L62.6888 18.3466L62.9058 18.2679L62.7127 17.599L62.9826 17.4057L62.7725 17.1833L62.9724 16.8959L62.5863 16.3399L62.711 16.1671L63.2354 16.2184L63.3157 15.7257L63.7325 15.4965L64.192 14.8601L63.8811 14.6086L64.2159 13.6386L64.233 13.2469L63.9631 13.1391L64.0656 12.643L64.6174 12.5284L65.5842 12.8774L66.6587 12.3351L67.33 12.2375L67.2395 11.4592L67.3966 11.141L68.2627 10.3318L68.343 10.4909Z" fill="#0A0808"/>
<path d="M96.2842 97.7948L96.4908 97.3363L96.9743 97.2867L97.28 96.9L96.5438 96.6486L96.3269 96.7854L96.279 96.3937L95.7973 96.5801L95.7802 96.4125L95.4557 96.4005L95.9647 96.0584L95.8332 95.8137L96.2568 95.7248L96.3405 95.5263L96.1082 95.4066L96.3747 95.3552L96.3046 95.0473L96.4789 94.9276L96.0894 94.5666L95.8827 94.8061L95.0935 94.9412L95.2029 94.5495L94.9859 94.2621L95.3822 94.2296L95.4659 93.8122L96.0843 93.458L95.7478 92.861L95.4591 92.9739L95.1243 92.6472L94.9022 92.7105L94.933 92.4863L94.7365 92.5428L94.991 92.3272L94.7604 92.2965L94.9022 91.9697L94.6118 91.6652L95.7102 91.3846L95.4659 91.0425L95.0696 91.0117L95.1448 90.5891L94.7041 90.7414L94.646 90.3462L95.1021 90.2384L95.0782 89.9527L95.43 89.963L95.3822 89.703L95.606 89.4481L95.3856 89.3557L95.512 88.9999L95.893 88.9075L95.7939 88.4832L95.9323 88.3378L95.9442 88.5619L96.1407 88.4644L96.3798 88.6355L96.4738 88.1667L96.9333 88.1103L97.3962 87.7425L97.9838 87.7938L98.305 87.6005L98.2862 87.2618L98.7611 86.923L99.4495 86.8871L99.9944 87.4517L100.321 86.8803L100.304 86.3123L100.07 85.9445L100.288 85.6297L100.158 85.2996L100.437 85.0669L100.286 84.3912L100.876 84.2235L101.163 84.4647L101.371 86.1994L101.038 87.4688L101.653 88.6902L101.838 92.0689L101.771 92.9465L100.797 94.375L100.618 97.2935L100.305 97.4201L100.394 97.5655L100.064 97.4543L99.856 97.7588L99.9192 97.9607L100.136 97.6767L100.498 97.7776L100.316 98.1112L99.8219 98.3815L99.856 99.0077L99.4631 99.2129L99.3641 99.4884L99.7638 99.3481L99.7211 99.4867L99.4478 99.9332L99.1557 99.9554L98.9934 99.6902L98.5424 99.6731L98.7354 99.2626L98.3767 99.201L98.4433 98.8537L98.1598 99.0846L97.8694 98.7699L97.7618 98.9221L97.3142 98.7784L97.0016 98.4465L96.7642 98.5081L96.8427 98.2327L96.3713 98.1489L96.4926 97.9675L96.2842 97.7948Z" fill="#0A0808"/>
<path d="M75.7873 34.5678L76.1306 34.0238L76.3237 34.1213L76.0948 34.4395L76.2485 34.4634L76.626 34.2462L76.8891 33.7483L77.5655 33.5807L77.5826 33.5927L77.6612 34.1401L78.0541 34.4497V34.5045L79.366 34.2017L79.6923 34.4018L79.9963 34.9955L80.8829 34.3574L81.1869 34.8022L82.5296 35.6678L82.7431 36.0835L83.2675 36.205L83.9525 36.7113L84.0192 37.2485L83.7322 37.979L84.3044 38.0765L84.7093 38.7916L84.6341 39.0191L83.5733 39.1132L83.7065 39.5375L83.2692 39.7547L82.8354 40.593L83.809 40.3826L84.0397 40.4938L84.0875 40.7914L83.7663 40.8872L83.669 41.2003L83.2897 41.279L83.3769 41.7443L82.5689 42.4833L82.6936 42.5569L82.5518 42.7211L81.5867 43.4174L81.7028 43.7407L81.0076 44.3429L80.1244 44.5362L79.6632 45.0152L79.8921 45.4207L79.6564 46.2144L79.8084 46.5994L77.3845 48.6454L77.7124 48.9687L77.1163 49.8173L77.0599 50.2963L75.6763 51.8479L74.653 51.8872L74.571 51.3911L74.0944 51.2389L74.0688 51.0285L73.3309 51.8085L72.868 51.8513L72.8799 51.3261L72.6083 51.3278L72.5178 50.9942L72.3726 51.3774L72.0719 50.765L72.183 50.6418L71.6312 50.3253L71.7405 49.9849L71.8072 49.8121L72.4682 49.6701L72.4956 49.4084L72.0583 49.2305L72.0497 48.7925L72.376 48.5924L72.3162 48.2964L72.639 48.0159L72.3111 47.5283L72.2923 47.0801L72.0651 47.0664L72.282 46.6473L71.8294 46.1819L72.8116 45.9219L72.364 45.6328L72.3401 45.3847L71.8447 45.4361L71.5953 44.8955L71.3835 45.0084L71.3152 44.4952L71.7679 44.1342L71.4638 43.9905L71.5236 43.7578L72.241 43.414L72.6254 42.7656L72.622 42.7126L72.9704 41.267L73.1925 41.1148L72.8628 40.9762H72.8389L73.0251 40.7196L72.9431 40.1739L72.9158 40.1567L72.622 40.1773H72.5776L72.6237 39.5717L72.1146 39.4246L72.4067 39.2911L72.2615 39.2501L72.3435 39.0636L72.6937 39.0773L73.0388 38.4717L72.6425 37.6882L72.3128 38.0594L72.1539 37.9499L72.4238 37.216L73.2403 37.2314L73.5376 36.8687L73.746 37.2399L74.4122 37.1082L74.5403 36.4547L74.308 36.1143L74.4139 35.6746L74.7726 35.6832L74.9076 35.2675L75.3841 35.3445L75.3414 35.146L75.5447 34.7731L75.7839 34.8398L75.7873 34.5678Z" fill="#0A0808"/>
<path d="M46.1344 20.5979L46.3907 20.68L46.3018 20.9982L46.3668 20.9965L46.4949 21.2069L46.8416 21.1009L47.4071 21.3455L48.2492 21.2035L48.8095 20.8306L49.4449 21.3369L49.7849 21.1659L49.8874 21.4704L50.2598 21.378L50.4596 21.0889L50.7705 21.5046L50.8935 21.378L51.3547 21.52L51.3137 21.6603L51.4965 21.5799L51.8074 21.8296L51.7117 21.9528L52.009 22.0229L52.1525 21.7561L52.3728 22.2385L52.723 21.9289L53.4405 22.4421L53.9666 22.0537L54.2758 22.3394L55.106 22.1102L55.2392 22.3309L55.3912 22.1102L55.7995 22.1786L55.8234 21.8348L56.3085 21.9528L56.6775 22.5584L56.5118 22.9673L57.1063 23.3967L57.2002 23.7593L57.4855 23.6533L57.6563 24.0912L57.9296 23.8722L58.039 24.4796L58.4831 24.6044L58.5924 24.8491L58.7632 24.6917L58.7769 25.1023L58.1825 25.1587L58.466 25.3554L58.1192 25.6976L58.642 25.9149L58.5207 27.0166L59.11 26.8968L59.0109 27.0405L59.2894 27.215L58.8777 27.3416L58.9648 27.5007L58.6163 27.7077L58.7308 28.0156L58.2029 28.1628L58.425 28.5631L58.039 28.6777L58.2627 29.6374L57.9894 29.5331L57.9108 29.8273L57.7059 29.8547L56.3222 29.8239L56.0591 30.0771L55.6611 29.9659L55.4339 30.5441L55.6611 31.1326L55.3571 31.5877L54.8822 31.8374L54.8805 32.053L54.3783 32.1265L54.0469 32.4054L53.9017 31.9931L53.6454 32.1556L53.4575 32.0136L53.5839 32.2411L53.2389 32.4738L52.202 32.2873L51.3821 32.4687L51.6622 32.0359L51.9065 32.0102L51.9031 31.3875L51.2403 31.0282L51.1019 30.4329L50.7808 30.5167L50.5587 30.2481L50.3896 30.3987L50.352 30.4688L49.9728 30.616L49.9762 30.2601L49.6739 30.1301L49.5201 30.4791L49.31 30.4295L49.3937 30.616L48.0391 30.7272L47.9349 30.4945L48.1501 29.9299L48.075 29.5245L47.7231 29.4766L47.7402 28.9326L47.3114 29.1105L46.828 28.8299L46.6452 28.3321L46.7255 27.901L46.172 27.6495L46.2147 27.2492L45.868 27.2527L45.4153 26.7069L45.487 26.452L45.2376 26.3015L45.5912 25.8293L45.2701 25.6754L45.3897 24.832L45.0173 24.5001L45.1403 24.2828L44.7012 23.7439L44.6398 23.4548L44.8277 23.3317L44.4826 23.3607L44.5407 22.9484L44.3254 22.5225L44.6107 22.5533L44.761 22.1769L44.8379 22.3514H44.8755L45.5588 22.1769L46.1344 20.5979Z" fill="#0A0808"/>
<path d="M55.1982 68.199L55.6048 67.4908L55.6543 66.6491L55.8405 66.2745L56.0284 66.3138L56.0609 65.9939H56.1019L56.259 65.6158L56.6861 66.0264L57.0004 65.7749L57.0414 65.2976L57.3523 65.3849L57.957 64.9025L58.2696 65.2361L58.2816 65.6723L58.7154 66.5585L59.4995 66.3942L59.5337 65.8981L59.7916 65.8434L60.0991 66.0897L60.053 66.3669L60.5979 66.2745L60.7226 66.6474L61.0659 67.0084L61.3034 66.9331L61.2521 67.176L61.4349 67.212L61.7304 68.702L62.0823 68.9364L62.3351 69.9149L62.9074 70.577L62.7058 70.7155L62.7605 71.4306L63.3413 71.2561L64.2449 71.9644L64.7352 71.239L65.2015 71.1586L65.2271 71.7129L65.5278 71.7847L65.6354 71.239L66.0044 71.186L67.0259 71.9096L67.1933 72.4536L67.4359 72.4656L67.5366 72.7308L67.5298 73.7743L67.9979 73.93L68.4095 74.6844L68.1926 74.6947L68.1943 74.941L66.9712 75.8888L67.154 76.1026L66.7662 77.2711L66.8739 77.6628L66.2504 77.4507L65.8626 77.5482L65.4407 78.265L65.7652 78.3779L65.6918 78.6037L64.783 79.1306L64.6412 78.9407L64.7113 79.2059L64.1305 79.4882L64.0553 79.8731L63.3789 79.6216L63.2661 79.3941L63.4079 79.1734L63.1807 78.9698L62.2241 79.0417L60.4681 80.4582L59.8958 80.6241L58.9221 81.7532L58.9563 81.5838L58.9102 81.7412L57.6888 81.541L57.752 81.7463L56.6126 82.6736L55.9157 83.8009L55.6475 84.6854L55.7671 85.1353L55.5416 87.2002L55.6714 88.774L56.3359 89.005L56.2573 89.3283L56.5699 89.7834L55.943 89.8723L55.6202 89.4156L55.0975 89.4891L54.9557 89.3283L54.7473 89.5764L54.1921 89.5524L53.7582 90.0023L53.4405 89.886L53.0237 90.0725L52.8614 90.2487L53.0032 90.6883L52.3284 90.519L51.9988 90.7636L51.6571 90.6935L51.3086 90.1837L50.0599 89.756L49.6671 89.9698L49.3408 89.8946L48.8437 90.4813L48.3551 90.6165L47.9793 90.2897L47.7709 89.6123L47.3917 89.6482L46.9817 89.2838L46.3121 89.2068L46.3787 88.6235L46.7204 88.4456L47.3063 88.3857L47.5301 88.0487L48.0477 88.0316L48.2202 87.6056L49.3972 87.5868L49.4894 87.414L48.8386 86.7365L48.2663 86.9093L47.6223 86.6732L47.7111 86.5039L47.2363 86.0437L47.3507 85.7631L48.1399 85.5886L48.0955 85.0173L47.7692 84.8941L47.9366 84.682L48.2834 84.6974L48.0203 84.2543L48.1331 84.0165L47.8222 83.842L47.9759 83.6726L47.8973 83.2449L47.6343 83.0465L47.4549 83.2193L47.1799 82.7899L47.1782 82.925L46.7016 82.8703L46.1652 82.4922L46.278 82.1638L46.0269 81.6916L46.3565 81.2947L46.2609 81.0278L46.9083 81.0313L46.8229 80.5317L47.1816 80.0442L47.4822 80.4975L47.6462 80.2546L47.6872 80.258L48.1485 80.3726L48.4935 80.1092L48.7429 80.4975L49.4364 80.2956L49.7508 80.6138L49.7986 80.1485L50.0582 79.8731L51.0387 80.2973L51.2899 80.1075L52.5351 80.1536L52.9639 79.7722L53.0083 79.3239L52.5915 78.8295L52.805 77.9143L53.3329 78.0631L53.5823 78.3625L54.6533 77.9656L54.7678 77.6235L55.2119 77.437L55.75 77.5944L55.7705 76.2036L56.833 76.4089L57.0875 76.2532L56.9884 75.9281L57.1968 75.6168L57.7571 75.6219L57.8596 75.0796L58.449 74.5921L58.4968 74.332L58.0749 74.0138L57.8101 74.0942L57.6564 73.8171L57.4035 73.9163L57.1798 73.67L57.6017 73.5211L57.6939 73.0267L57.9621 72.9155L57.8904 72.6076L56.7715 72.7085L56.956 72.3082L56.464 72.1662L56.4008 71.8651L56.1788 71.9917L56.4145 71.5401L56.1685 70.9944L56.3462 70.2519L55.7927 69.6121L55.9276 69.0527L55.1982 68.199ZM47.8649 89.5456L48.2441 89.6465L48.0733 89.265L47.8649 89.5456Z" fill="#0A0808"/>
<path d="M42.4072 50.6144L42.6275 50.5614L42.6942 50.8111L43.2972 50.753L43.3655 50.5118L43.6542 50.4621L44.0898 51.013L44.8738 50.185L45.0088 50.5357L45.4666 50.2397L45.6015 50.5819L46.0064 50.2705L46.3139 50.5597L46.5342 50.1987L46.4454 49.9438L46.6965 49.8788L47.0945 50.1953L48.0853 50.0174L48.8625 50.3578L49.6295 50.1679L50.224 50.2569L50.2735 50.6503L50.6032 50.7444L50.3794 51.0421L50.8235 51.3791L50.9858 51.1618L51.225 51.6579L51.2967 51.5245L51.6571 51.6887L52.2499 52.9649L52.1389 53.6715L52.5044 54.1933L52.5744 54.8348L52.2396 54.9905L52.185 55.4284L51.7306 55.9348L51.5051 55.904L51.4744 55.9108L50.9909 56.3265L51.9509 57.495L51.9373 58.1844L51.6845 58.1981L51.5085 58.6514L51.9082 59.074L51.693 60.4391L51.9817 60.7129L51.6435 60.9353L50.7074 60.5127L50.7859 61.2706L49.6107 62.4304L49.6585 62.8359L49.8823 62.995L49.5082 63.2807L49.4621 63.8315L48.9342 64.0539L49.2486 64.6407L49.0128 64.8374L48.953 64.822L48.6712 64.8956L48.1365 64.9127L47.8683 65.1317L47.5865 64.8785L46.8349 65.4276L46.4693 65.2822L45.7314 64.3687L45.0173 64.3567L44.9627 64.1822L44.3238 64.4525L43.8267 63.5954L44.0676 63.397L43.333 63.3149L42.9555 62.9881L42.9914 62.983L43.1981 62.7572L42.7625 62.5998L43.1178 62.1003L42.7591 61.9155L42.8257 61.4177L43.0273 61.4074L43.4475 60.8446L42.9658 60.6102L43.2271 60.2971L42.0023 59.8695L42.3252 59.3648L41.9665 59.1424L41.7512 59.3118L41.2729 58.506L40.4154 58.6035L40.2138 58.3845L39.8124 58.8687L39.3819 58.4359L39.5476 57.9329L39.165 57.6472L38.685 57.7208L38.521 57.5001L39.1206 56.9715L39.0984 56.5455L39.6006 56.6738L39.9115 55.7466L39.8056 55.2505L40.3027 55.3412L40.7639 54.857L40.6067 54.4447L40.3197 54.2172L40.1353 54.3592L39.8244 54.0324L39.9696 53.5654L39.7953 53.29L40.0584 53.1463L39.6757 52.3799L40.0874 52.1883L40.453 51.6015L41.1841 51.687L41.4882 50.8419L42.0655 50.9959L42.2603 50.5648L42.4072 50.6144Z" fill="#0A0808"/>
<path d="M72.4802 16.5743L72.7416 16.9352L72.8646 17.6965L73.459 17.3458L73.8485 17.5939L74.0672 17.1268L74.8017 17.25L74.9947 16.9848L75.4491 17.209L75.6729 17.688L76.3647 17.7461L76.474 18.2097L76.8994 18.2474L77.1215 18.0352L77.3128 18.1824L77.5041 17.7513L78.2967 17.5237L79.1884 18.1122L79.6428 17.9326L80.5498 18.5314L80.4303 18.7384L80.8641 19.137L80.625 19.3388L81.3544 20.0676L81.2895 20.2968L81.4928 20.3961L81.5389 20.7621L81.7387 20.7365L81.6533 21.0718L81.8447 21.3216L82.5314 21.4413L82.7193 21.1419L82.5501 20.7964L83.2608 20.6869L83.9355 21.0359L84.0585 21.8673L84.3967 21.4174L84.8067 21.8006L85.437 21.6979L85.777 21.8604L86.0059 21.5508L86.2638 21.5542L86.2809 21.2497L86.8463 21.118L86.7831 21.3233L87.1965 21.2771L87.439 22.0486L88.1719 22.3104L88.2112 22.5191L87.7978 23.5609L87.5023 23.8261L86.901 23.4377L86.0059 23.708L85.7565 23.5763L85.7804 23.3796L84.588 23.034L84.3882 22.2625L84.1695 22.3925L83.9201 23.5712L83.6229 23.5164L83.5392 23.8192L83.2932 23.8175L83.3701 24.2469L84.0363 24.4505L84.05 24.6181L84.366 24.5805L84.0534 24.7789L84.0602 25.0817L84.3233 25.1297L84.2464 25.4188L84.588 25.2306L84.7794 24.7653L85.5361 25.0133L85.4592 25.1673L85.9256 25.6035L85.4131 26.411L85.5771 26.7292L85.8538 26.7548L85.2423 27.9079L84.8648 28.173L84.1542 28.2073L84.6427 28.4912L84.3284 28.4297L84.5231 28.741L84.2942 29.5536L84.4599 29.7743L84.231 30.0429L84.5214 30.2465L84.969 30.178L85.1056 30.4911L84.1149 32.2463L84.2379 32.6261L83.6946 33.5601L83.2932 33.7911L83.066 34.6413L83.189 34.7423L82.9567 34.9424L83.1207 35.3752L82.5296 35.6678L81.187 34.8021L80.8829 34.3573L79.9964 34.9954L79.6923 34.4018L79.366 34.2017L78.0541 34.5045V34.4497L77.6612 34.1401L77.5827 33.5926L77.5656 33.5807L76.8891 33.7483L76.6261 34.2461L76.2486 34.4634L76.0948 34.4395L76.3237 34.1213L76.1307 34.0237L75.7873 34.5678L75.5191 34.0426L75.0972 34.2872L75.0203 33.4318L74.6326 33.3223L74.4515 32.9751L73.9647 32.8827L74.267 32.6398L74.3371 31.8853L74.6855 31.6869L74.3849 31.302L74.0586 31.2199L74.1457 30.941L73.8468 30.6861L73.6862 30.876L73.2301 30.0891L72.909 30.0001L72.5366 30.2653L72.6442 29.7538L72.3009 29.6272L72.8373 29.2867L71.8414 28.3646L71.018 28.1645L70.3603 27.446L70.0204 27.4408L69.9213 27.0508L69.508 27.2321L69.5848 25.8755L68.7375 25.2665L69.0689 24.7943L68.8913 24.5172L69.0433 24.0125L69.0741 23.9817L69.6275 23.7525L69.7915 23.3796L69.4721 23.2718L69.7539 23.1709L69.7693 22.8424L69.5729 22.7124L69.2654 22.8646L69.5421 22.3548L69.0809 21.0975L69.455 20.8357L69.1646 20.5312L69.8701 20.1292L69.9111 19.9153L69.689 19.7408L69.894 19.1164L70.2288 18.9984L70.058 18.7332L70.3296 18.5502L70.3006 18.131L69.9316 17.6657L70.14 17.2757L70.1519 17.2107L70.3108 16.6667L70.5295 16.6838L70.673 16.9866L71.1786 16.9164L71.3733 17.2175L72.3197 16.4015L72.4802 16.5743Z" fill="#0A0808"/>
<path d="M33.2684 81.3255L33.3093 81.3529L33.4853 81.784L33.1898 81.9961L33.0565 81.6967L33.1949 81.3666L33.2444 81.3289L33.2684 81.3255ZM33.4768 80.7404L33.5178 81.3512L33.3999 81.3221L33.2291 81.1579L33.4358 81.074L33.4084 80.7062L33.4768 80.7404ZM44.3239 64.4525L44.9628 64.1823L45.0174 64.3567L45.7315 64.3687L46.4694 65.284L46.835 65.4294L47.5866 64.8802L47.8684 65.1334L48.1383 64.9144L48.6713 64.8973L48.9651 65.4499L48.8814 65.9186L49.4519 66.7637L49.1547 67.6807L49.3631 67.6893L49.4468 68.2572L49.6843 68.4642L49.7748 68.1426L50.33 67.9613L50.5554 67.9407L50.7365 68.2384L51.6692 68.1375L51.7802 67.7577L52.2107 67.448L52.139 67.1162L52.4977 66.7295L52.5267 66.1941L53.4662 65.2395L53.731 65.532L53.7208 66.0931L54.3357 65.9084L54.539 66.7569L54.7679 66.7124L54.8858 66.9075L54.7047 67.034L54.8841 67.8449L55.2018 68.1973L55.938 69.0442L55.8031 69.6036L56.3565 70.2434L56.1789 70.9858L56.4249 71.5316L56.1891 71.9832L56.4112 71.8566L56.4744 72.1577L56.9664 72.2997L56.7819 72.7L57.9008 72.5991L57.9725 72.907L57.7043 73.0182L57.6121 73.5126L57.1901 73.6614L57.4139 73.9078L57.6667 73.8085L57.8205 74.0857L58.0852 74.0053L58.5072 74.3235L58.4593 74.5835L57.87 75.0711L57.7675 75.6134L57.2072 75.6082L56.9988 75.9196L57.0979 76.2446L56.8434 76.4003L55.7809 76.195L55.7604 77.5858L55.2223 77.4285L54.7781 77.6149L54.6637 77.9571L53.5926 78.354L53.3432 78.0546L52.8154 77.9058L52.6019 78.821L53.0187 79.3154L52.9743 79.7636L52.5455 80.1451L51.3002 80.0989L51.0491 80.2888L50.0686 79.8645L49.809 80.14L49.7611 80.6053L49.4468 80.2871L48.7533 80.489L48.5039 80.1006L48.1588 80.3641L47.6976 80.2495L47.6566 80.246L47.4926 80.489L47.192 80.0356L46.8333 80.5232L46.9187 81.0227L46.2713 81.0193L46.3669 81.2862L46.0372 81.6831L46.2883 82.1552L46.1756 82.4837L46.712 82.8617L47.1886 82.9165L47.1903 82.7813L47.4653 83.2107L47.6447 83.0379L47.9077 83.2364L47.9863 83.6641L47.8326 83.8334L48.1435 84.0079L48.0307 84.2457L48.2938 84.6888L47.947 84.6734L47.7796 84.8855L48.1059 85.0087L48.1503 85.5801L47.3611 85.7546L47.2466 86.0352L47.7215 86.4953L47.6327 86.6647L48.2767 86.9008L48.8489 86.728L49.4998 87.4054L49.4075 87.5782L48.2306 87.5971L48.058 88.023L47.5405 88.0401L47.3167 88.3771L46.7308 88.437L46.7718 88.3053L46.2986 88.2831L46.3686 88.0265L45.4001 87.9324L45.055 87.6518L44.5545 87.6911L44.5391 88.0504L44.2539 88.1599L43.6816 87.0411L42.7916 86.959L42.3577 87.1437L41.7189 86.3756L41.0424 86.3927L40.875 86.2079L40.6325 86.367L39.0865 85.6673L38.7363 85.8829L38.8149 86.2114L38.6356 86.4218L38.7893 86.4953L38.6151 86.6921L38.8696 86.9658L38.8525 87.3062L38.2956 87.1659L37.0555 87.3096L36.613 86.9897L36.1467 87.4773L35.9007 87.0701L35.3097 86.8666L34.0456 87.3678L33.6578 87.2977L33.5741 87.0548L33.2649 86.9743L32.925 86.2798L32.7303 86.3859L31.8437 85.7837L31.7429 85.1285L32.0709 84.9677L32.0231 84.2782L32.2161 83.9703L32.7883 83.8283L32.6961 83.2244L33.0292 83.0824L33.2325 82.5863L33.5844 82.6154L33.5468 82.1689L33.7159 82.21L33.9431 81.7053L33.7381 81.4042L34.2762 80.968L34.0405 80.7148L34.061 80.0031L33.5895 80.3384L33.5997 79.8303L33.9363 79.7431L33.5963 79.0023L33.4033 79.0485L33.3828 78.6722L32.8106 78.5319L32.375 78.6653L32.3135 78.342L32.0846 78.3163L32.0692 78.0751L32.351 77.9605L32.2964 77.4473L32.6876 77.153L32.4621 76.4585L32.6961 76.4414L32.5885 75.9726L32.7456 75.8683L32.3681 75.5809L32.7935 75.172L33.3862 75.2781L33.8081 74.7289L34.1139 75.0266L33.9175 75.2712L34.4846 75.5946L34.6059 75.3927L34.4607 74.953L34.9663 74.5561L35.1764 74.8401L35.4258 74.4244L35.7043 74.356L36.1979 74.6639L36.2987 74.4792L37.2058 74.2858L37.339 74.0173L38.0121 74.0258L38.2751 73.7778L38.7773 74.3286L39.3188 73.9608L39.4435 73.5109L39.7373 73.475L39.6741 73.155L40.1917 73.3227L40.4189 73.2115L40.3574 72.8454L40.1302 72.7564L40.5077 72.6914L40.8204 71.8669L40.243 71.5145L40.4343 70.8131L40.6051 70.784L40.7537 71.1689L40.8289 71.0064L41.6061 70.967L41.5651 70.3631L41.2969 70.1852L41.2935 69.5779L41.0424 69.2084L41.2816 69.2785L41.9119 68.9176L41.8436 68.7174L42.2621 68.2658L42.2194 67.9578L42.754 67.821L43.4066 67.2582L43.2819 66.7022L43.7619 66.5516L43.7329 66.2266L44.288 65.8707L44.0899 65.5525L44.2949 65.4927L44.095 64.7246L44.066 64.6065L44.3239 64.4525Z" fill="#0A0808"/>
<path d="M52.2192 0.440333L52.3097 1.03225L52.7214 1.65324L52.4259 1.9646L52.4925 2.75153L52.7453 3.16895L53.3671 3.1929L53.8727 4.15776L54.2434 4.17486L54.667 4.51872L54.9933 3.84982L56.4009 3.42385L56.6844 4.1492L57.1764 4.41265L57.0244 4.90021L57.395 6.39026L57.9946 6.75978L58.5003 6.58871L58.695 6.29104L59.0076 6.39882L58.8778 6.80255L59.6431 6.70504L60.012 7.14298L60.0001 8.10613L60.3537 8.82121L60.6338 8.3097L61.3615 8.29944L61.7288 8.57829L62.5983 8.22246L62.9655 8.75621L63.2542 8.83832L63.4011 9.34299L63.6112 9.33957L63.5771 8.99742L63.905 9.18731L63.9956 9.40115L63.4968 9.84252L63.5275 10.3934L63.3396 10.7201L63.8487 10.727L64.0622 11.4301L63.5651 11.6627L63.4353 12.4172L63.039 12.5335L62.2822 12.2666L62.2942 11.7072L61.6229 12.0904L61.5135 11.7791L60.3964 11.4232L60.0359 11.5994L60.0052 11.8646L59.6823 11.9142L59.1853 11.5875L58.8094 11.9912L57.9075 11.7859L57.6649 12.0152L57.2994 12.0323L57.1644 11.8321L56.5529 12.0631L55.9977 11.608L55.4306 11.5379L55.1231 11.7312L54.7627 11.6491L54.363 11.9638L54.3186 11.336L53.5345 11.7072L53.7702 10.9631L53.4081 10.8022L53.2492 10.7903L53.2236 11.2966L52.3165 10.9425L52.3302 10.6466L52.1508 10.6175L52.0142 10.9357L51.8827 10.6363L51.6452 10.6654L51.2028 11.2282L50.9004 10.9836L50.9841 10.4977L51.7426 10.0461L51.4334 9.64921L51.114 9.60302L50.7757 9.91437L50.5895 9.55512L50.552 9.84252L50.1471 9.66803L49.2913 10.094L49.1495 9.88016L48.8352 9.97938L48.772 9.40971L47.8479 9.01453L47.7454 8.88622L47.9828 8.64159L47.8547 8.53552L47.5797 8.75278L46.8451 8.20706L45.8544 8.54921L45.6887 8.30286L45.0669 7.76569L45.2958 6.23287L45.6391 6.51172L45.2223 5.88731L45.125 4.13723L45.154 3.973L45.2189 4.24158L45.347 4.06538L45.4871 3.26646L45.2565 2.51032L45.8253 2.34267L46.4181 1.68746L47.3115 1.39663L47.1031 1.35729L48.9035 0.891967L48.9941 1.0083L49.3699 0.621671L49.2913 0.823537L49.5099 1.03225L49.6278 0.621671L49.6859 0.753397L50.7382 0.392433L50.9346 0.534423L52.0962 0.0571289L52.2192 0.440333Z" fill="#0A0808"/>
<path d="M20.3388 15.1989L20.6771 15.4264L20.9264 15.2964L21.1212 15.5957L22.5851 15.943L22.551 16.1962L22.6398 15.955L23.499 15.8335L23.5981 15.5188L25.074 15.5273L25.3302 16.5041L25.1457 16.4391L25.021 16.8942L25.0244 16.7419L24.8417 16.7761L24.7597 17.1542L25.7726 18.687L25.525 19.4774L25.8581 19.1729L26.1348 19.3765L26.4269 18.8769L27.2024 18.7948L28.692 19.3217L31.2543 19.4945L32.0691 19.9342L32.3236 19.8435L32.4705 20.0642L34.0404 19.5852L34.9509 18.7538L35.6359 18.4646L34.8364 18.4304L36.0732 18.4116L36.3618 19.4209L36.1534 19.6827L36.3516 19.8931L36.2525 20.0351L36.63 19.8863L36.7786 20.0129V20.2438L36.3311 20.4166L36.8555 20.8255L36.7889 21.4379L37.1288 21.5765L36.8982 21.9494L37.0332 22.283L36.6625 22.5276L37.233 22.9279L36.7804 24.0468L37.2706 24.406L37.9641 24.4539L38.176 24.2538L38.2392 24.4796L38.4237 24.4163L38.3861 24.6643L38.5723 24.6678L38.3809 24.9073L39.4264 25.6052L39.5391 25.9234L39.2128 26.2536L39.5084 26.3785L39.522 26.6556L39.8398 26.6505L39.8654 27.2715L40.9108 28.2175L40.6939 28.7205L40.9774 29.1054L40.5401 29.829L39.5169 30.3662L39.4127 30.6091L39.7731 30.7203L39.645 31.0197L39.944 31.5227L39.7134 31.728L39.2897 31.7913L38.6918 30.9872L38.5876 31.314L37.8548 31.1463L37.5286 30.4928L37.4568 30.616L36.8384 30.3679L36.7684 29.2696L36.191 28.6709L35.0824 28.9189L35.1712 29.09L34.5631 29.4407L34.4691 29.7709L34.0506 29.5605L33.6953 29.8034L33.697 28.9856L33.0155 28.9241L32.8241 28.351L33.024 28.1645L32.585 27.783L32.2878 27.7762L32.3424 28.0755L32.1289 28.3852L31.7753 28.2244L31.5481 28.6332L31.2389 28.3578L30.4361 28.3681L30.144 28.7513L29.4333 29.0609L29.3479 28.6213L29.1686 28.8026L28.8748 28.7479L28.9943 28.9993L28.6664 29.1482L28.5331 28.8351L28.2854 28.9429L28.0616 28.4724L27.6107 28.5015L27.2793 28.2808L26.9359 28.5802L26.4713 28.3783L25.1679 27.9968L24.4573 28.7992L23.979 28.8847L23.5024 28.5836L22.9114 27.0286L23.3333 27.1825L23.3419 26.9944L23.4871 27.1535L23.9466 26.9379L24.4573 27.0508L24.0456 26.7634L24.225 26.5872L23.7911 26.8062L22.9285 25.8208L22.8977 25.0167L22.6142 24.873L23.1352 23.8312L22.9797 23.7303L23.0156 22.8116L23.3914 22.8766L22.9951 22.685L22.8687 23.0956L22.7149 22.6833L22.609 20.7382L22.9404 20.7057L22.6073 20.5654L22.5202 20.834L21.9497 19.539L21.222 19.06L20.9504 17.6298L20.6685 17.2996L21.0033 16.8976L20.9469 16.239L20.7573 15.9345L20.2466 15.76L20.3388 15.1989Z" fill="#0A0808"/>
<path d="M43.8249 11.4865L44.3305 11.4232L44.3561 11.7602L46.1976 13.4419L46.3547 14.2305L46.722 14.807L46.4624 14.7968L46.0353 15.5478L46.1566 15.7018L46.4777 15.5478L46.0934 16.1021L46.2625 16.3313L46.1173 16.7778H46.0866L46.4572 17.2619L46.2369 17.6366L46.4316 17.794L46.5358 17.5511L46.7545 17.6366L46.6246 18.0061L46.5563 18.0506L46.213 18.687L46.3958 18.7058L46.2659 18.8392L46.5461 19.1369L46.6264 19.9478L46.8501 20.1343L46.7442 20.4439L46.5239 20.1582L46.1788 20.242L46.1395 20.5996L45.5621 22.1786L44.8789 22.3531L44.8413 22.3548L44.7644 22.1803L44.6141 22.5584L44.3288 22.5276L44.5441 22.9536L44.486 23.3641L44.831 23.3368L44.6414 23.4599L44.7046 23.749L44.3271 23.9287L44.4142 24.4864L43.7173 24.8884L43.7907 25.4615L43.5072 25.677L42.7282 25.7113L42.0108 25.3742L41.9681 25.8344L41.5991 25.7078L41.2182 26.062H41.0713L40.2735 26.1663L40.183 26.464L39.8413 26.6556L39.5236 26.6607L39.5099 26.3836L39.2144 26.2587L39.5407 25.9285L39.428 25.6103L38.3825 24.9123L38.5739 24.6728L38.3877 24.6694L38.4252 24.4214L38.2408 24.4847L38.1775 24.2588L37.9657 24.459L37.2722 24.4111L36.7819 24.0518L37.2346 22.933L36.6641 22.5327L37.0348 22.2881L36.8998 21.9545L37.1304 21.5815L36.7905 21.443L36.8571 20.8305L36.3327 20.4217L36.7802 20.2489V20.0179L36.6316 19.8913L36.2541 20.0402L36.3532 19.8982L36.155 19.6878L36.3634 19.426L36.0747 18.4167L36.1448 18.2234L35.9774 18.3534L34.8619 18.0095L34.5237 17.575L35.1369 16.0935L34.9302 15.8181L35.154 15.9207L35.5213 15.3476L36.442 14.9781L38.2134 13.7738L39.5322 13.5719L40.8594 13.0091L41.2779 13.1305L41.7409 12.9218L41.8126 13.1168L41.7665 12.9013L42.5267 12.5386L43.8249 11.4865Z" fill="#0A0808"/>
<path d="M18.0498 43.9716L18.33 44.1684L18.2292 44.5191L18.7604 44.7876L18.8117 45.3539L18.3966 44.6953L18.0191 44.6799L17.744 44.3497L17.6962 44.0024L18.0498 43.9716ZM26.4645 28.38L26.9291 28.5819L27.2724 28.2825L27.6038 28.5032L28.0548 28.4741L28.2786 28.9446L28.5263 28.8368L28.6595 29.1498L28.9875 29.001L28.8679 28.7495L29.1617 28.8043L29.3411 28.6229L29.4265 29.0626L30.1371 28.7529L30.4292 28.3697L31.2321 28.3595L31.5413 28.6349L31.7685 28.226L32.122 28.3869L32.3356 28.0772L32.2809 27.7778L32.5781 27.7847L33.0172 28.1662L32.8173 28.3526L33.0086 28.9257L33.6902 28.9873L33.6885 29.805L34.0438 29.5621L34.4623 29.7725L34.5562 29.4424L35.1644 29.0917L35.0755 28.9206L36.1842 28.6725L36.7616 29.2713L36.8316 30.3696L37.45 30.6176L37.5217 30.4945L37.848 31.148L38.5808 31.3156L38.685 30.9889L39.2829 31.7929L39.7065 31.7296L40.5435 32.3181L40.084 32.3763L40.0157 32.6893L39.8175 32.7355L40.043 32.7851L40.0277 33.0212L39.6775 33.0469L39.7031 33.401L40.0208 33.4797L39.8534 33.9416L40.0686 34.4275L39.8312 34.5113L39.8022 34.9732L39.6501 34.7251L39.4452 34.8432L39.5015 35.5668L38.9617 36.0817L39.0283 36.2528L38.4971 36.4119L38.2067 36.7694L38.2784 37.0791L38.4424 37.0295L38.2819 37.2519L37.3441 37.5341L37.2399 37.8044L36.7718 37.5478L36.6386 37.7993L36.9119 38.2304L36.7735 38.3194L35.7008 37.9533L35.7093 38.0422L35.4274 38.6444L35.6546 38.7676L35.6222 39.0533L35.1353 40.1071L35.3437 40.2936L34.599 41.3388L34.4367 42.5637L34.1839 42.4491L33.996 42.6048L33.7893 43.3712L33.434 43.224L33.1282 43.7082L32.7746 43.5405L33.0342 43.195L32.7404 43.1436L32.5952 43.2908L32.1613 43.171L31.2338 43.3216L31.1552 43.5765L30.6325 43.715L30.7862 43.4225L30.5368 43.402L30.0995 43.6038L30.1901 43.9323L29.7989 44.3018L29.2933 44.2368L28.9806 44.437L28.4648 44.2146L28.0036 44.5841L27.6944 44.5362L27.925 44.6662L27.8208 44.8338L28.036 44.8407L27.954 44.9536L28.3213 45.0922L28.1573 45.4668L28.5519 45.9321H28.5809L28.8628 46.122H28.9123L29.0985 46.2435L28.9567 46.3752L28.9636 46.418L28.9465 46.8029L29.3975 47.3726L29.2318 47.5163L29.5341 47.7524L29.3804 48.0312L29.6844 48.1817L29.5922 48.6573L29.7579 49.1004L29.4487 49.2236L29.7271 49.8976L29.4948 50.4878L29.6434 50.5528L29.7476 50.3236L30.2191 50.6213L29.4521 51.3209L29.0951 51.2337L28.9243 51.4732L28.1761 51.1105L28.1453 51.066L28.0121 51.3192L27.7524 51.2234L27.4347 51.3928L27.2246 51.2662L27.4484 50.7684L26.5704 50.9856L26.42 51.3192L26.1296 51.3261L25.5215 51.3432L25.4925 51.8051L24.7152 51.1482L24.8587 51.5878L24.5188 51.0643L23.6374 51.0626L23.306 50.4314L22.3528 50.2654L21.1861 49.4973L20.8786 48.2998L20.2329 47.3965L18.8561 46.1118L18.786 45.4138L19.0799 45.3881L19.0167 45.2119L19.6282 44.5909L19.6624 44.1718L20.0211 43.9648L19.1636 43.0701L18.1181 42.8836L18.6921 42.5124L18.6562 41.515L18.371 41.4534L17.7492 41.8435L17.2094 41.3696L16.8114 41.5783L16.0085 41.2464L16.2647 41.0548L16.2852 40.7452L15.9043 40.3688L16.6183 39.8539L16.6217 39.599L16.866 39.2962L17.0198 39.5135L17.6176 39.4638L17.7509 38.8856L18.1318 39.1131L18.5571 38.9233L18.7092 39.1628L18.7536 38.8292L19.1738 38.7111L19.29 37.4828L20.0604 37.0209L20.1902 37.257L20.8632 36.8652L22.2828 36.855L22.5509 36.287L23.6083 35.8713L23.5673 35.5309L24.2096 35.6061L24.3856 35.9124L25.2123 36.1502L25.8615 34.1623L26.8437 33.7568L26.432 31.6595L26.403 31.6321L26.2441 30.9632L26.6404 30.296L26.3859 29.3808L26.4645 28.38Z" fill="#0A0808"/>
<path d="M45.5947 8.22244L45.6954 8.30284L45.8611 8.54919L46.8519 8.20704L47.5864 8.75277L47.8615 8.5355L47.9896 8.64157L47.7521 8.8862L47.8546 9.01451L48.7788 9.40969L48.842 9.97936L49.1563 9.88014L49.2981 10.094L50.1539 9.66801L50.5587 9.8425L50.5963 9.5551L50.7825 9.91435L51.1207 9.603L51.4402 9.64919L51.7493 10.0461L50.9909 10.4977L50.9072 10.9836L51.2096 11.2282L51.652 10.6654L51.8894 10.6363L52.021 10.9357L52.1576 10.6175L52.337 10.6465L52.3233 10.9425L53.2304 11.2966L53.256 10.7902L53.4149 10.8022L53.777 10.963L53.5413 11.7072L54.3253 11.336L54.3697 11.9638L54.7695 11.649L55.1299 11.7312L55.4374 11.5378L56.0045 11.608L56.5597 12.063L57.1712 11.8321L57.3062 12.0322L57.6717 12.0151L57.9143 11.7859L58.8162 11.9912L59.192 11.5874L59.6891 11.9142L60.012 11.8646L60.0427 11.5994L60.4031 11.4232L61.5203 11.7791L61.6296 12.0904L62.301 11.7072L62.289 12.2666L63.0457 12.5335L63.442 12.4172L64.0741 12.643L63.9716 13.1374L64.2415 13.2469L64.2244 13.6386L63.8896 14.6086L64.2005 14.8601L63.741 15.4948L63.3225 15.724L63.2439 16.2167L62.7178 16.1654L62.5931 16.3382L62.9791 16.8941L62.7793 17.1815L62.9877 17.4039L62.7195 17.5973L62.9125 18.2662L62.6956 18.3448L62.6853 19.1951L62.137 19.0086L61.8842 18.6904L61.4007 18.9795L61.37 19.3644L60.849 19.2396L59.9095 19.7049L60.1418 20.5602L59.971 20.798L60.1708 20.9691L60.2887 20.8613L60.4031 21.1881L60.6457 21.1419L60.6406 21.3831L60.3314 21.5627L59.7438 21.4755L59.5917 21.8091L59.8565 22.2676L59.4927 22.4506L59.4807 22.7021L59.9453 22.6354L60.1384 22.9467L59.5166 23.5301L59.6088 23.7148L59.4004 23.7542L59.3765 24.0211L59.0759 24.0484L58.7735 24.6917L58.6027 24.8491L58.4917 24.6044L58.0475 24.4795L57.9382 23.8722L57.6632 24.0895L57.4924 23.6515L57.2071 23.7576L57.1131 23.3949L56.517 22.9655L56.6827 22.5567L56.3137 21.9511L55.8286 21.833L55.8046 22.1769L55.3964 22.1085L55.2443 22.3309L55.1111 22.1085L54.2826 22.3394L53.9734 22.0537L53.4456 22.4403L52.7299 21.9271L52.3797 22.2368L52.1593 21.7543L52.0158 22.0212L51.7186 21.9511L51.8143 21.8279L51.5051 21.5781L51.3206 21.6585L51.3633 21.5183L50.9021 21.3763L50.7791 21.5011L50.4682 21.0871L50.2683 21.3763L49.8959 21.4686L49.7934 21.1641L49.4535 21.3352L48.8181 20.8288L48.2578 21.2035L47.4156 21.3438L46.8519 21.1008L46.5051 21.2069L46.377 20.9965L46.3121 20.9982L46.4009 20.68L46.1447 20.5979L46.184 20.2403L46.5291 20.1565L46.7494 20.4422L46.8553 20.1326L46.6315 19.9461L46.5513 19.1352L46.2711 18.8375L46.4009 18.7041L46.2182 18.6853L46.5615 18.0489L46.6298 18.0044L46.7597 17.6349L46.541 17.5494L46.4368 17.7923L46.2421 17.6349L46.4624 17.2602L46.0918 16.7761H46.1225L46.2677 16.3296L46.0986 16.1004L46.4829 15.5461L46.1618 15.7001L46.0405 15.5461L46.4676 14.7951L46.7272 14.8053L46.3599 14.2288L46.2028 13.4402L44.3613 11.7585L44.3357 11.4215L43.8301 11.4848L44.3562 10.9972L44.8567 9.90922L45.183 9.80144L45.3196 10.1299L45.8253 10.2651L46.032 10.1145L44.9729 9.16334L45.089 8.19678L45.5947 8.22244Z" fill="#0A0808"/>
<path d="M24.073 54.065L24.7255 54.6141L25.2756 54.7185L25.2875 55.2796L25.6411 55.9827L25.3251 56.5952L25.0552 55.7689L24.2199 55.0264L24.073 54.065ZM23.3402 51.9231L23.5998 52.1626L23.2684 52.2106L23.4051 52.4689L24.0303 52.202L23.8424 52.3714L23.9432 52.498L24.3685 52.421L25.1799 52.8931L24.7699 53.0967L23.6886 52.4911L23.1796 52.4928L22.9797 52.0668L23.3402 51.9231ZM26.1365 51.3175L26.4269 51.3107L26.5772 50.9771L27.4553 50.7598L27.2315 51.2577L27.4416 51.3843L27.7593 51.2149L28.019 51.3107L28.1522 51.0575L28.1829 51.102L28.9311 51.4647L29.102 51.2252L29.459 51.3124L30.226 50.6127L29.7545 50.3151L29.6503 50.5443L29.5017 50.4793L29.734 49.8891L29.4556 49.2151L29.7648 49.0919L29.5991 48.6488L29.6913 48.1732L29.3872 48.0227L29.541 47.7438L29.2386 47.5077L29.4043 47.364L28.9534 46.7944L28.9704 46.4095L28.9636 46.3667L29.1054 46.235L28.9192 46.1135H28.8696L28.5878 45.9236H28.5588L28.1642 45.4583L28.3281 45.0836L27.9609 44.9451L28.0429 44.8322L27.8276 44.8253L27.9318 44.6577L27.7012 44.5276L28.0104 44.5755L28.4716 44.206L28.9875 44.4284L29.3001 44.2283L29.8057 44.2933L30.1969 43.9238L30.1064 43.5953L30.5437 43.3934L30.7931 43.414L30.6394 43.7065L31.1621 43.5679L31.2406 43.313L32.1682 43.1625L32.6021 43.2822L32.7473 43.1351L33.0411 43.1864L32.7815 43.532L33.1351 43.6997L33.4408 43.2155L33.7961 43.3626L34.0028 42.5962L34.1907 42.4406L34.4435 42.5552L34.6297 43.0222L35.0551 42.9606L35.0175 43.1454L35.2105 43.2104L35.3506 43.0633L35.4804 43.3096L35.3267 43.6483L35.7999 43.52L35.9638 43.8211L36.2098 43.7322L36.2765 44.2813L36.1261 44.3651L36.355 44.9861L36.6505 44.7911L37.1698 44.9981L37.6464 44.6936L38.3024 44.7107L38.0872 44.2026L38.4408 44.1889L38.9652 44.5396L39.0557 45.2701L39.7065 45.8244L39.8398 46.4505L40.5316 47.0937L40.6341 47.4325L40.3847 48.0997L40.5128 48.3905L41.2491 48.7412L41.2883 49.0577L41.8059 49.0542L42.1715 49.3553L42.2176 49.9575L42.6515 50.1115L42.5422 50.4382L42.4123 50.611L42.2654 50.5614L42.0707 50.9925L41.495 50.8403L41.191 51.6854L40.4599 51.5998L40.0943 52.1866L39.6826 52.3782L40.0653 53.1446L39.8022 53.2883L39.9781 53.5637L39.8329 54.0308L40.1438 54.3575L40.3283 54.2155L40.6153 54.4431L40.7708 54.8553L40.3095 55.3395L39.8124 55.2471L39.9184 55.7432L39.6075 56.6704L39.1052 56.5421L39.1257 56.9698L38.5262 57.4984L38.0667 58.2734L37.6806 58.2785L37.6345 59.0997L37.2416 59.3802L37.1186 59.7617L36.7565 59.7634L36.4012 60.2048L36.2013 60.0303L36.3055 60.2578L36.0151 60.3553L35.8118 60.9387L35.9451 61.6675L35.3011 62.0336L35.0141 62.5844L34.4538 62.374L34.1156 62.6204L33.9225 63.0001L34.0865 63.1199L33.7961 63.2482L33.7449 63.6639L33.434 63.433L33.0394 63.7546L32.7046 63.7067L32.2229 63.5014L32.0708 63.2225L31.83 63.2704L31.6609 62.9847L31.4815 62.9505L31.3363 63.2157L31.2099 62.8308L31.2014 62.7863L31.0374 61.8608L30.0449 61.6795L29.886 61.1748L29.828 61.4348L28.979 61.363L28.6971 60.3759L28.2393 59.7053L27.1734 59.0158L26.7942 58.3863L25.5028 57.637L25.3097 57.6781L25.3917 57.885L25.2875 57.6798L25.2773 56.732L26.0118 56.5609L25.6907 56.0494L26.1416 55.9913L26.4252 55.4952L26.2458 55.1137L26.4013 55.0709L26.3637 54.7681L26.1075 54.5252L26.5875 54.5286L26.2407 53.5877L25.9452 53.4696L26.046 53.2609L25.7265 53.1497L25.8939 52.953L25.4908 53.0745L25.2704 52.8863L25.5352 52.3953L26.1741 51.9009L26.0101 51.4664L26.1365 51.3175Z" fill="#0A0808"/>
<path d="M69.4448 70.4127L69.5149 70.4914L70.012 70.7942L70.0171 70.8523L69.6788 71.0114L69.4209 71.682L68.7291 71.5657L68.6181 71.1192L68.876 70.6522L68.9375 70.5427L68.9922 70.5136L69.11 70.4862L69.3287 70.31L69.3577 70.3853L69.4312 70.3939L69.4448 70.4127ZM71.932 82.2509L72.1728 81.8455L71.9627 81.6009L72.1592 81.4709L71.6997 80.8276L71.1274 81.1458L69.8616 81.1834L69.2945 80.2066L68.9409 80.1399L68.7547 80.4051L68.8401 80.1656L68.6693 80.2665L68.5224 79.9192L68.6403 80.3503L68.2901 80.1639L68.5241 80.4376L68.1312 80.5915L68.4575 80.5693L68.343 80.6856L68.6471 80.8807L68.9204 80.6429L68.3499 81.1578L66.546 80.8413L66.3752 80.6429L66.6058 80.2391L66.1992 79.9466L64.0503 79.8679L64.1255 79.483L64.7063 79.2007L64.6362 78.9355L64.778 79.1254L65.6868 78.5985L65.7602 78.3727L65.4357 78.2598L65.8576 77.543L66.2453 77.4455L66.8688 77.6576L66.7612 77.2659L67.149 76.0974L66.9662 75.8836L68.1893 74.9359L68.1876 74.6895L68.4045 74.6792L67.9928 73.9248L67.5248 73.7691L67.5316 72.7256L67.4308 72.4604L67.1883 72.4484L67.0209 71.9044L67.0294 71.3159L68.0082 71.4819L68.2235 72.3304L69.9317 71.5383L70.2767 71.836L70.5774 71.5195L70.6901 71.4665L70.5859 72.2876L71.136 72.4929L71.2743 72.2945L71.6211 72.534L72.0259 72.4621L72.236 72.6007L72.2224 73.0455L72.5948 73.0797L72.7331 73.3996L73.3464 73.2679L73.7734 72.6879L74.0416 72.9206L73.9818 73.0917L74.3166 73.1327L74.3457 72.9634L74.0655 72.8847L74.3713 72.6418L74.373 71.9421H74.0929L74.0177 71.6085L73.8144 71.5537L73.9648 71.2834L73.3874 71.3159L73.1995 71.1124L72.9996 71.2424L72.5538 70.8746L72.4735 70.3768L72.8835 70.4349L73.0321 70.2587L72.7946 70.1544L72.7485 69.6446L73.8554 69.92L73.9579 69.636L74.209 69.6138L73.7341 69.2015L74.0946 68.5275L74.0604 68.1306L74.6702 68.2572L74.8137 68.0279L75.099 68.1135L75.3894 67.7456L75.1656 67.5865L75.3655 67.0579L75.7618 67.1879L76.2469 67.0477L76.4536 66.8372L76.235 66.6046L76.7184 66.2967L76.9934 66.4917L77.5435 66.0093L78.348 66.1324L78.6606 65.9134L79.1167 66.1033L79.1338 65.2582L78.8827 65.1128L78.8912 64.6629L78.044 64.4884L78.3361 63.4414L78.6794 63.5663L78.9579 63.4141L79.1816 63.9461L79.7932 64.1292L80.046 64.0984L80.0016 63.7186L80.2151 63.5543L80.4372 63.6501L80.6951 63.4089L81.0692 63.5578L81.3698 64.4645L81.8721 64.5209L81.9199 65.6106L82.7176 66.1615L83.049 66.2248L83.2284 66.0435L83.8433 66.4301L83.6828 66.7722L84.2226 67.826L83.4146 67.8859L83.4522 68.459L82.6561 69.3537L82.8167 69.8327L83.3155 70.3323L82.9209 70.4144L82.8833 70.9995L83.6435 71.8138L83.7289 72.2517L85.0083 72.5921L85.6592 73.1892L86.1101 73.1362L86.2126 73.4407L86.6892 73.4715L86.7319 73.2918L88.0643 73.1019L88.1941 72.8334L88.529 72.8539L88.4043 73.2833L88.7459 73.7486L88.681 74.1592L88.3786 74.2943L88.3035 74.8298L87.6988 75.148L87.6373 75.5979L87.2034 75.8271L87.4494 76.7133L86.5679 77.3377L86.0913 77.401L86.0503 77.7569L85.9239 77.4592L85.8471 77.6662L85.4063 77.6285L85.1706 78.0049L84.8016 77.981L84.5522 78.6276L84.7179 78.9681L84.5471 79.0673L84.3848 78.7833L83.9612 79.1323L83.8023 78.9766L83.4248 79.0639L83.242 79.3376L83.3821 79.5035L82.9192 80.1673L82.1966 80.364L81.884 80.2254L81.6807 80.9542L80.6763 81.6898L81.5458 81.7446L81.3186 81.9755L81.4313 82.3964L81.1529 82.523L81.1888 82.7077L81.0043 82.8001L80.5824 82.4973L80.1229 82.8685L79.3285 82.9318L79.1833 83.4947L78.5462 83.1576L77.9278 83.2175L77.6681 83.6982L77.704 84.0712L77.2787 84.0506L77.5212 83.9018L77.4854 83.5631L76.7543 83.5733L76.6142 83.3048L76.0915 83.3407L76.0573 83.1234L75.7737 83.339L76.2452 83.6726L75.8438 83.5665L75.6183 83.8796L75.3979 83.8488L75.1468 83.6657L75.2545 83.2158L74.9589 83.2072L74.9982 82.9866L74.4516 82.9404L74.3867 82.5897L73.9289 82.5247L73.8025 82.783L73.3173 82.2544L73.0577 82.4254L71.932 82.2509Z" fill="#0A0808"/>
<path d="M61.7049 51.7333L61.6434 52.3628L62.2276 52.4826L62.3455 52.8247L63.15 52.5236L63.6847 52.7785L63.8931 52.5681L64.0212 52.7392L64.2228 52.6382L64.1903 52.9342L64.3714 52.9582L65.0615 52.6553L65.2955 51.5297L65.6714 51.516L65.9925 51.8188L66.4486 51.5502L66.8022 51.841L66.9371 51.4767L67.2395 51.4236L67.4581 51.7059L67.2378 51.9078L67.6392 52.1695L67.5213 52.5647L67.7981 52.7939L67.9501 52.7512L69.0929 49.2424L69.1612 49.4238L69.3987 49.2801L69.9128 49.5966L70.6918 49.3913L70.7003 49.2356L70.9719 49.3742L71.1803 49.8634L71.7372 49.9832L71.6279 50.3236L72.1796 50.6401L72.0669 50.7633L72.3675 51.3757L72.5127 50.9925L72.6033 51.3261L72.8749 51.3244L72.8646 51.8496L73.3276 51.8068L74.0655 51.0267L74.0911 51.2372L74.5677 51.3894L74.6497 51.8855L75.6729 51.8462L77.0583 50.2963L77.8048 50.8009L77.3248 51.6409L77.4836 51.9899L76.4604 52.3423L76.3511 52.5476L76.5646 52.7015L76.3015 53.2438L76.9712 53.0043L77.5127 53.1275L78.6965 52.255L78.7972 51.9386L78.4505 51.9865L78.3599 51.4527L78.1652 51.3672L78.3924 50.8728L80.2834 49.8771L81.4398 49.9011L82.4187 50.1833L82.0685 50.919L82.7347 51.6819L82.3042 52.4655L82.2547 53.1412L82.9738 53.2746L82.8115 54.053L83.2301 53.8871L83.9578 55.0127L84.0039 55.3292L83.6656 55.8527L83.0746 56.1709L82.4169 56.2103L82.323 57.341L83.09 58.0904L83.6896 58.2101L83.5273 58.7353L83.6913 59.5736L84.0773 59.6779L84.0397 59.9037L84.3985 59.9294L84.5027 60.2972L85.0185 60.5726L84.4719 61.363L84.6479 62.0832L84.1849 62.528L83.6998 62.4442L83.3018 62.9523L82.9294 62.9659L82.9277 63.2841L82.6151 63.3799L82.0394 63.0549L81.0709 63.5527L80.6968 63.4039L80.4388 63.6451L80.2168 63.5493L80.0032 63.7135L80.0477 64.0933L79.7948 64.1241L79.1833 63.9411L78.9595 63.409L78.6811 63.5613L78.3377 63.4364L78.0456 64.4834L78.8929 64.6579L78.8844 65.1078L79.1355 65.2532L79.1184 66.0983L78.6623 65.9084L78.3497 66.1274L77.5451 66.0042L76.9951 66.4866L76.7201 66.2916L76.2366 66.5995L76.4553 66.8322L76.2486 67.0426L75.7635 67.1829L75.3672 67.0529L75.1673 67.5815L75.3911 67.7406L75.1007 68.1084L74.8154 68.0229L74.6719 68.2521L74.0621 68.1255L74.0963 68.5224L73.7358 69.1964L74.2107 69.6087L73.9596 69.631L73.8571 69.9149L72.7502 69.6395L72.7963 70.1493L73.0337 70.2537L72.8851 70.4299L72.4752 70.3717L72.5554 70.8695L73.0013 71.2373L73.2011 71.1073L73.3891 71.3109L73.9664 71.2784L73.8161 71.5487L74.0194 71.6034L74.0945 71.937H74.3747L74.373 72.6367L74.0672 72.8796L74.3474 72.9583L74.3183 73.1277L73.9835 73.0866L74.0433 72.9156L73.7751 72.6829L73.3481 73.2628L72.7348 73.3946L72.5964 73.0747L72.2241 73.0404L72.2377 72.5957L72.0276 72.4571L71.6228 72.5289L71.276 72.2894L71.1376 72.4879L70.5876 72.2826L70.6918 71.4614L70.579 71.5145L70.2784 71.831L69.9333 71.5333L68.2251 72.3254L68.0099 71.4768L67.0311 71.3109L67.0226 71.8994L66.001 71.1757L65.6321 71.2288L65.5244 71.7745L65.2238 71.7027L65.1982 71.1484L64.7318 71.2288L64.2416 71.9541L63.3379 71.2459L62.7571 71.4204L62.7025 70.7053L62.9041 70.5667L62.3318 69.9047L62.079 68.9261L61.7271 68.6918L61.4316 67.2017L61.8723 66.9588L62.0551 66.3771L62.3318 66.5294L62.2908 66.3173L62.4155 66.4473L62.6154 66.3104L62.6615 65.9238L63.5258 65.9152L64.0093 65.0137L64.6396 64.9145L64.5166 64.4509L65.1076 64.2781L64.8736 63.8778L65.0479 63.5784L65.2426 63.5921V63.5014L65.0649 63.202L65.4117 63.2773L65.5022 63.5425L65.656 63.4518L65.5859 63.0327L65.8917 62.4082L65.5039 61.8848L65.1623 62.0712L64.889 61.8848L65.0427 61.6145L64.7643 61.4502L65.0188 61.2638L64.7865 60.9421L64.3441 61.0448L64.0673 60.7317L63.6796 60.6958L63.4421 60.783L63.5053 60.9764L62.9912 61.0431L62.9194 61.2689L62.5624 61.1355L62.5453 61.3493L62.313 60.9079L62.0465 60.8652L61.7391 61.2877L61.6314 60.6736L62.1576 60.263L62.3096 59.6591L61.9475 58.826L61.1668 58.2854L60.8337 57.6815L60.8593 57.341L60.2085 56.6687L60.4459 56.4412L60.3964 55.8664L60.6748 55.7039L60.2375 55.2557L60.2922 54.8554L60.9054 54.8177L61.2129 54.5543L61.0301 54.0017L61.1446 53.6424L60.943 53.4047L61.0541 52.8829L60.7654 52.1028L61.5887 51.747L61.6502 51.7384L61.7049 51.7333ZM68.9887 70.5103L68.934 70.5394L68.8725 70.6488L68.6146 71.1159L68.7256 71.5624L69.4175 71.6787L69.6754 71.0081L70.0136 70.849L70.0085 70.7908L69.5114 70.488L69.426 70.3888L69.3525 70.3803L69.3235 70.305L69.1049 70.4812L68.9887 70.5103Z" fill="#0A0808"/>
</g>
<defs>
<clipPath id="clip0_1065_563">
<rect width="101.88" height="100" fill="white"/>
</clipPath>
</defs>
</svg>
