<svg width="65" height="50" viewBox="0 0 65 50" fill="none" xmlns="http://www.w3.org/2000/svg">
<path d="M21.202 25.2441C21.202 26.6001 20.124 27.6321 18.758 27.6321C17.736 27.6321 16.98 27.0541 16.98 25.9661C16.98 24.6101 18.036 23.5221 19.392 23.5221C20.426 23.5221 21.204 24.1561 21.204 25.2441H21.202ZM9.446 19.8561H8.924C8.758 19.8561 8.59 19.9681 8.568 20.1561L8.09 23.1241L9.002 23.0901C10.224 23.0901 11.168 22.9241 11.39 21.5121C11.646 20.0221 10.702 19.8561 9.446 19.8561ZM41.002 19.8561H40.502C40.302 19.8561 40.168 19.9681 40.146 20.1561L39.68 23.1241L40.568 23.0901C42.012 23.0901 43.012 22.7561 43.012 21.0901C43 19.9121 41.946 19.8561 41 19.8561H41.002ZM64.502 5.44411V44.5561C64.5015 45.9706 63.9393 47.327 62.9391 48.3272C61.9389 49.3274 60.5825 49.8896 59.168 49.8901H5.834C4.4195 49.8896 3.06308 49.3274 2.06288 48.3272C1.06267 47.327 0.50053 45.9706 0.5 44.5561V5.44411C0.50053 4.02961 1.06267 2.67319 2.06288 1.67299C3.06308 0.672781 4.4195 0.110637 5.834 0.110107H59.168C60.5825 0.110637 61.9389 0.672781 62.9391 1.67299C63.9393 2.67319 64.5015 4.02961 64.502 5.44411ZM14.758 20.4881C14.758 18.1541 12.958 17.3761 10.902 17.3761H6.458C6.31444 17.3772 6.17628 17.431 6.06974 17.5272C5.96319 17.6234 5.89567 17.7554 5.88 17.8981L4.058 29.2421C4.024 29.4641 4.192 29.6861 4.414 29.6861H6.526C6.826 29.6861 7.104 29.3641 7.138 29.0521L7.638 26.0961C7.75 25.2961 9.104 25.5741 9.638 25.5741C12.816 25.5741 14.76 23.6861 14.76 20.4861L14.758 20.4881ZM24.114 21.4661H22.002C21.58 21.4661 21.558 22.0781 21.536 22.3781C20.892 21.4341 19.958 21.2661 18.902 21.2661C16.18 21.2661 14.102 23.6541 14.102 26.2881C14.102 28.4541 15.458 29.8661 17.624 29.8661C18.624 29.8661 19.868 29.3221 20.568 28.5441C20.5034 28.7688 20.4658 29.0005 20.456 29.2341C20.456 29.4901 20.568 29.6781 20.812 29.6781H22.724C23.024 29.6781 23.28 29.3561 23.336 29.0441L24.47 21.9001C24.504 21.6881 24.336 21.4661 24.114 21.4661ZM28.614 32.3441L35.692 22.0541C35.748 21.9981 35.748 21.9421 35.748 21.8661C35.748 21.6781 35.582 21.4781 35.392 21.4781H33.258C33.1587 21.482 33.0617 21.5092 32.9749 21.5575C32.888 21.6058 32.8137 21.6738 32.758 21.7561L29.814 26.0901L28.592 21.9241C28.5461 21.7974 28.4632 21.6874 28.3541 21.6082C28.245 21.5291 28.1147 21.4844 27.98 21.4801H25.902C25.712 21.4801 25.546 21.6801 25.546 21.8681C25.546 22.0021 27.712 28.1801 27.902 28.7681C27.602 29.1901 25.624 31.9461 25.624 32.2801C25.624 32.4801 25.79 32.6361 25.98 32.6361H28.114C28.2138 32.6295 28.3108 32.6002 28.3975 32.5502C28.4842 32.5003 28.5582 32.4312 28.614 32.3481V32.3441ZM46.314 20.4881C46.314 18.1541 44.514 17.3761 42.458 17.3761H38.046C37.8983 17.3749 37.755 17.4271 37.6426 17.5229C37.5302 17.6188 37.4561 17.752 37.434 17.8981L35.634 29.2321C35.612 29.4541 35.778 29.6761 35.99 29.6761H38.268C38.49 29.6761 38.656 29.5101 38.712 29.3201L39.212 26.0981C39.324 25.2981 40.68 25.5761 41.212 25.5761C44.368 25.5761 46.312 23.6881 46.312 20.4881H46.314ZM55.668 21.4661H53.556C53.134 21.4661 53.112 22.0781 53.078 22.3781C52.466 21.4341 51.522 21.2661 50.444 21.2661C47.722 21.2661 45.644 23.6541 45.644 26.2881C45.644 28.4541 47 29.8661 49.166 29.8661C50.2 29.8661 51.444 29.3221 52.11 28.5441C52.076 28.7101 51.998 29.0661 51.998 29.2341C51.998 29.4901 52.11 29.6781 52.354 29.6781H54.276C54.576 29.6781 54.832 29.3561 54.888 29.0441L56.022 21.9001C56.056 21.6881 55.888 21.4661 55.666 21.4661H55.668ZM60.946 17.7661C60.946 17.5441 60.78 17.3781 60.59 17.3781H58.534C58.368 17.3781 58.2 17.5121 58.178 17.6781L56.378 29.2341L56.346 29.2901C56.346 29.4901 56.512 29.6781 56.734 29.6781H58.568C58.846 29.6781 59.124 29.3561 59.146 29.0441L60.946 17.8001V17.7661ZM50.946 23.5221C49.59 23.5221 48.534 24.6001 48.534 25.9661C48.534 27.0441 49.312 27.6321 50.334 27.6321C51.668 27.6321 52.746 26.6101 52.746 25.2441C52.758 24.1561 51.98 23.5221 50.946 23.5221Z" fill="white"/>
</svg>
