<svg width="48" height="48" viewBox="0 0 48 48" fill="none" xmlns="http://www.w3.org/2000/svg">
<rect width="48" height="48" fill="white"/>
<path d="M22.278 28.116C21.402 28.116 20.892 27.528 20.892 26V20.608L23.804 20.832L23.952 19.444L20.96 19.592V16.532H20.084C19.652 18.934 18.566 19.808 17.108 19.956V20.684H18.846V26.808C18.846 28.48 20.022 29.35 21.472 29.35C22.642 29.35 23.876 28.84 24.308 27.824L23.874 27.314C23.658 27.674 23.07 28.116 22.278 28.116ZM15.29 26.51C14.702 27.89 13.756 27.968 12.81 27.968H9.75C8.734 27.968 8.292 27.596 8.292 26.728V22.212C8.292 22.212 10.476 22.212 11.206 22.29C11.788 22.36 12.082 22.508 12.298 23.236L12.514 24.258H13.39L13.312 21.64L13.46 19.084H12.592L12.298 20.254C12.152 21.052 12.004 21.13 11.206 21.27C10.19 21.346 8.292 21.346 8.292 21.346V15.958C8.292 15.734 8.292 15.664 8.662 15.664H13.244C14.048 15.664 14.484 16.316 14.77 17.624L15.064 18.648H15.862C15.94 15.734 16.01 14.5 16.01 14.5C16.01 14.5 14.048 14.71 12.886 14.71H7.06L4 14.648V15.446L5.016 15.66C5.75 15.808 5.966 15.954 5.966 16.606C5.966 16.606 6.044 18.574 6.044 21.844C6.044 25.122 5.966 27.09 5.966 27.09C5.966 27.672 5.75 27.888 5.016 28.036L4 28.262V29.054L7.13 28.984H12.376C13.538 28.984 16.306 29.054 16.306 29.054C16.374 28.332 16.738 25.126 16.816 24.762H16.08L15.29 26.51ZM27.37 21.266C27.37 20.318 28.244 19.956 29.12 19.956C29.84 19.956 30.426 20.25 30.578 20.606L31.088 22.064L31.81 21.994C31.81 21.266 31.886 20.318 32.032 19.592C31.376 19.298 30.066 19.15 29.19 19.15C27.222 19.15 25.696 20.032 25.696 21.924C25.696 25.272 30.576 24.544 30.576 27.022C30.576 27.82 30.064 28.48 28.824 28.48C27.662 28.48 27.15 27.892 26.934 27.31L26.354 25.924H25.616C25.696 26.876 25.764 27.82 25.616 28.688C25.616 28.688 27.15 29.276 28.678 29.276C30.722 29.276 32.394 28.262 32.394 26.362C32.394 23.014 27.37 23.52 27.37 21.266ZM40.108 19.376V20.104L40.626 20.252C41.13 20.392 41.346 20.608 41.346 20.978C41.346 21.194 41.278 21.266 41.2 21.56C40.984 22.142 39.596 25.566 38.876 27.094C38.1065 25.1434 37.3777 23.177 36.69 21.196C36.62 21.05 36.62 20.98 36.62 20.904C36.62 20.608 36.83 20.32 37.342 20.252L38 20.104V19.376L35.308 19.522L33.116 19.444V20.18L33.49 20.318C33.992 20.466 34.064 20.538 34.428 21.342C35.814 24.402 37.342 28.4 37.86 29.642C36.692 31.68 35.452 32.26 34.506 32.26C33.924 32.26 33.708 31.966 33.636 31.602L33.344 30.076L32.544 30.146C32.398 31.1 32.25 32.114 32.034 32.912C32.608 33.276 33.266 33.5 34.14 33.498C35.522 33.498 37.49 33.134 39.386 28.834L42.588 21.34C42.878 20.754 42.952 20.682 43.68 20.388L44.046 20.1V19.376L42.156 19.444L40.108 19.376Z" fill="#000001"/>
</svg>
