<svg width="65" height="50" viewBox="0 0 65 50" fill="none" xmlns="http://www.w3.org/2000/svg">
<path d="M52.738 22.2561C52.738 22.2561 53.582 26.3901 53.772 27.2561H50.062L51.84 22.4221C51.818 22.4561 52.206 21.4101 52.428 20.7661L52.738 22.2561ZM64.504 5.44411V44.5561C64.5034 45.9706 63.9413 47.327 62.9411 48.3272C61.9409 49.3274 60.5845 49.8896 59.17 49.8901H5.83595C4.42145 49.8896 3.06504 49.3274 2.06483 48.3272C1.06463 47.327 0.502483 45.9706 0.501953 44.5561V5.44411C0.502483 4.02961 1.06463 2.67319 2.06483 1.67299C3.06504 0.672781 4.42145 0.110637 5.83595 0.110107H59.17C60.5845 0.110637 61.9409 0.672781 62.9411 1.67299C63.9413 2.67319 64.5034 4.02961 64.504 5.44411ZM17.448 33.3561L24.47 16.1121H19.748L15.382 27.8901L14.904 25.5021L13.348 17.5681C13.092 16.4681 12.304 16.1561 11.326 16.1121H4.13795L4.05995 16.4561C5.7061 16.8599 7.28514 17.4999 8.74795 18.3561L12.726 33.3561H17.448ZM27.938 33.3781L30.738 16.1121H26.272L23.484 33.3781H27.938ZM43.482 27.7341C43.504 25.7681 42.304 24.2681 39.738 23.0341C38.172 22.2441 37.216 21.7121 37.216 20.9001C37.238 20.1661 38.028 19.4101 39.782 19.4101C40.9244 19.3779 42.0595 19.602 43.104 20.0661L43.504 20.2541L44.116 16.5201C42.8392 16.0313 41.4831 15.7825 40.116 15.7861C35.704 15.7861 32.604 18.1421 32.582 21.4961C32.548 23.9741 34.804 25.3521 36.494 26.1841C38.216 27.0281 38.806 27.5841 38.806 28.3281C38.784 29.4841 37.406 30.0161 36.128 30.0161C34.35 30.0161 33.394 29.7381 31.938 29.0941L31.35 28.8161L30.728 32.6941C31.772 33.1721 33.706 33.5941 35.706 33.6161C40.394 33.6261 43.45 31.3041 43.484 27.7281L43.482 27.7341ZM59.17 33.3781L55.57 16.1121H52.114C51.048 16.1121 50.236 16.4241 49.78 17.5461L43.146 33.3801H47.834C47.834 33.3801 48.6 31.2461 48.768 30.7921H54.502C54.636 31.4041 55.036 33.3801 55.036 33.3801L59.17 33.3781Z" fill="white"/>
</svg>
