<svg width="15" height="14" viewBox="0 0 15 14" fill="none" xmlns="http://www.w3.org/2000/svg">
<path d="M4.7329 0.226884C4.79652 0.120692 4.89972 0.0441207 5.01979 0.0140151C5.13986 -0.0160906 5.26697 0.00273542 5.37317 0.0663516C5.47936 0.129968 5.55593 0.233163 5.58604 0.353236C5.61614 0.473308 5.59732 0.600422 5.5337 0.706614L3.15745 4.66672H11.7758L9.39861 0.706614C9.33499 0.600422 9.31617 0.473308 9.34627 0.353236C9.37638 0.233163 9.45295 0.129968 9.55914 0.0663516C9.66533 0.00273542 9.79245 -0.0160906 9.91252 0.0140151C10.0326 0.0441207 10.1358 0.120692 10.1994 0.226884L12.8641 4.66672H14.4666C14.5903 4.66672 14.709 4.71589 14.7966 4.80341C14.8841 4.89092 14.9332 5.00962 14.9332 5.13339V7.00004C14.9332 7.12381 14.8841 7.24251 14.7966 7.33002C14.709 7.41754 14.5903 7.46671 14.4666 7.46671H13.9999V12.1333C13.9999 12.6284 13.8032 13.1032 13.4532 13.4533C13.1031 13.8033 12.6283 14 12.1333 14H2.79998C2.30492 14 1.83012 13.8033 1.48006 13.4533C1.12999 13.1032 0.933328 12.6284 0.933328 12.1333V7.46671H0.466664C0.342897 7.46671 0.224199 7.41754 0.136683 7.33002C0.0491662 7.24251 0 7.12381 0 7.00004V5.13339C0 5.00962 0.0491662 4.89092 0.136683 4.80341C0.224199 4.71589 0.342897 4.66672 0.466664 4.66672H2.06919L4.73197 0.226884H4.7329ZM3.26665 8.8667C3.26665 8.74293 3.21748 8.62423 3.12996 8.53672C3.04245 8.4492 2.92375 8.40003 2.79998 8.40003C2.67622 8.40003 2.55752 8.4492 2.47 8.53672C2.38249 8.62423 2.33332 8.74293 2.33332 8.8667V11.6667C2.33332 11.7904 2.38249 11.9091 2.47 11.9967C2.55752 12.0842 2.67622 12.1333 2.79998 12.1333C2.92375 12.1333 3.04245 12.0842 3.12996 11.9967C3.21748 11.9091 3.26665 11.7904 3.26665 11.6667V8.8667ZM5.59997 8.8667C5.59997 8.74293 5.5508 8.62423 5.46328 8.53672C5.37577 8.4492 5.25707 8.40003 5.1333 8.40003C5.00953 8.40003 4.89084 8.4492 4.80332 8.53672C4.7158 8.62423 4.66664 8.74293 4.66664 8.8667V11.6667C4.66664 11.7904 4.7158 11.9091 4.80332 11.9967C4.89084 12.0842 5.00953 12.1333 5.1333 12.1333C5.25707 12.1333 5.37577 12.0842 5.46328 11.9967C5.5508 11.9091 5.59997 11.7904 5.59997 11.6667V8.8667ZM7.93328 8.8667C7.93328 8.74293 7.88412 8.62423 7.7966 8.53672C7.70909 8.4492 7.59039 8.40003 7.46662 8.40003C7.34285 8.40003 7.22416 8.4492 7.13664 8.53672C7.04912 8.62423 6.99996 8.74293 6.99996 8.8667V11.6667C6.99996 11.7904 7.04912 11.9091 7.13664 11.9967C7.22416 12.0842 7.34285 12.1333 7.46662 12.1333C7.59039 12.1333 7.70909 12.0842 7.7966 11.9967C7.88412 11.9091 7.93328 11.7904 7.93328 11.6667V8.8667ZM10.2666 8.8667C10.2666 8.74293 10.2174 8.62423 10.1299 8.53672C10.0424 8.4492 9.92371 8.40003 9.79994 8.40003C9.67617 8.40003 9.55748 8.4492 9.46996 8.53672C9.38244 8.62423 9.33328 8.74293 9.33328 8.8667V11.6667C9.33328 11.7904 9.38244 11.9091 9.46996 11.9967C9.55748 12.0842 9.67617 12.1333 9.79994 12.1333C9.92371 12.1333 10.0424 12.0842 10.1299 11.9967C10.2174 11.9091 10.2666 11.7904 10.2666 11.6667V8.8667ZM12.5999 8.8667C12.5999 8.74293 12.5508 8.62423 12.4632 8.53672C12.3757 8.4492 12.257 8.40003 12.1333 8.40003C12.0095 8.40003 11.8908 8.4492 11.8033 8.53672C11.7158 8.62423 11.6666 8.74293 11.6666 8.8667V11.6667C11.6666 11.7904 11.7158 11.9091 11.8033 11.9967C11.8908 12.0842 12.0095 12.1333 12.1333 12.1333C12.257 12.1333 12.3757 12.0842 12.4632 11.9967C12.5508 11.9091 12.5999 11.7904 12.5999 11.6667V8.8667Z" fill="black"/>
</svg>
