<svg width="120" height="94" viewBox="0 0 120 94" fill="none" xmlns="http://www.w3.org/2000/svg">
<path d="M2.23566 55.0206C4.69386 52.7915 8.52698 52.9373 11.1102 55.0206L30.3591 70.4165C32.7132 72.3123 35.6505 73.3331 38.692 73.3331H63.3365C65.1697 73.3331 66.6696 71.8331 66.6696 69.9998C66.6696 68.1665 65.1697 66.6665 63.3365 66.6665H47.0249C43.7125 66.6665 40.6294 64.3956 40.0877 61.1248C39.4003 56.9581 42.6084 53.3331 46.6707 53.3331H80.0022C85.6269 53.3331 91.0641 55.2706 95.4389 58.8123L105.126 66.6665H116.667C118.5 66.6665 120 68.1665 120 69.9998V89.9998C120 91.8331 118.5 93.3331 116.667 93.3331H42.3376C39.317 93.3331 36.3796 92.3123 34.0047 90.4165L2.50648 65.2081C-0.660011 62.6873 -0.909996 57.854 2.23566 55.0206Z" fill="#0A0808"/>
<path d="M117.764 38.3124C115.306 40.5415 111.473 40.3957 108.89 38.3124L89.6409 22.9165C87.2868 21.0207 84.3495 19.9999 81.308 19.9999H56.6635C54.8303 19.9999 53.3304 21.4999 53.3304 23.3332C53.3304 25.1665 54.8303 26.6665 56.6635 26.6665H72.9751C76.2875 26.6665 79.3706 28.9374 79.9123 32.2082C80.5997 36.3749 77.3916 39.9999 73.3293 39.9999H39.9978C34.3731 39.9999 28.9359 38.0624 24.5611 34.5207L14.8742 26.6665H3.33315C1.49992 26.6665 0 25.1665 0 23.3332V3.33321C0 1.49988 1.49992 -0.00012207 3.33315 -0.00012207H77.6624C80.683 -0.00012207 83.6204 1.02071 85.9953 2.91655L117.494 28.1249C120.66 30.6457 120.91 35.479 117.764 38.3124Z" fill="#0A0808"/>
</svg>
