<svg width="120" height="80" viewBox="0 0 120 80" fill="none" xmlns="http://www.w3.org/2000/svg">
<path d="M117.5 55H115V38.1094C115 36.125 114.203 34.2188 112.797 32.8125L97.1875 17.2031C95.7812 15.7969 93.875 15 91.8906 15H85V7.5C85 3.35938 81.6406 0 77.5 0H27.5C23.3594 0 20 3.35938 20 7.5V57.5C20 61.6406 23.3594 65 27.5 65H30C30 73.2812 36.7188 80 45 80C53.2812 80 60 73.2812 60 65H80C80 73.2812 86.7188 80 95 80C103.281 80 110 73.2812 110 65H117.5C118.875 65 120 63.875 120 62.5V57.5C120 56.125 118.875 55 117.5 55ZM45 72.5C40.8594 72.5 37.5 69.1406 37.5 65C37.5 60.8594 40.8594 57.5 45 57.5C49.1406 57.5 52.5 60.8594 52.5 65C52.5 69.1406 49.1406 72.5 45 72.5ZM95 72.5C90.8594 72.5 87.5 69.1406 87.5 65C87.5 60.8594 90.8594 57.5 95 57.5C99.1406 57.5 102.5 60.8594 102.5 65C102.5 69.1406 99.1406 72.5 95 72.5ZM107.5 40H85V22.5H91.8906L107.5 38.1094V40Z" fill="#0A0808"/>
<line x1="8.5" y1="24.5" x2="30.5" y2="24.5" stroke="#0A0808" stroke-width="3" stroke-linecap="round"/>
<line x1="1.5" y1="48.5" x2="23.5" y2="48.5" stroke="#0A0808" stroke-width="3" stroke-linecap="round"/>
<line x1="8.5" y1="36.5" x2="30.5" y2="36.5" stroke="#0A0808" stroke-width="3" stroke-linecap="round"/>
</svg>
