<svg width="24" height="27" viewBox="0 0 24 27" fill="none" xmlns="http://www.w3.org/2000/svg">
<path d="M11.792 0C9.45979 0 7.17992 0.791761 5.24073 2.27516C3.30154 3.75856 1.79013 5.86697 0.89762 8.33377C0.00510932 10.8006 -0.228412 13.515 0.226586 16.1337C0.681584 18.7525 1.80467 21.1579 3.45381 23.0459C5.10296 24.934 7.20409 26.2197 9.49152 26.7406C11.779 27.2615 14.1499 26.9942 16.3046 25.9724C18.4594 24.9506 20.301 23.2203 21.5967 21.0002C22.8925 18.7801 23.5841 16.17 23.5841 13.5C23.5812 9.92059 22.3379 6.48874 20.1271 3.95771C17.9163 1.42669 14.9186 0.00330967 11.792 0ZM11.792 24.5C9.89169 24.5 8.03402 23.8549 6.45394 22.6462C4.87386 21.4375 3.64233 19.7195 2.9151 17.7095C2.18787 15.6995 1.9976 13.4878 2.36834 11.354C2.73907 9.22022 3.65418 7.2602 4.99793 5.72183C6.34167 4.18345 8.05371 3.1358 9.91754 2.71136C11.7814 2.28692 13.7133 2.50476 15.469 3.33733C17.2247 4.16989 18.7253 5.57979 19.7811 7.38873C20.8368 9.19767 21.4004 11.3244 21.4004 13.5C21.3975 16.4164 20.3842 19.2123 18.5829 21.2745C16.7817 23.3367 14.3394 24.4967 11.792 24.5ZM11.792 4.5C10.2372 4.5 8.71729 5.02784 7.4245 6.01677C6.13171 7.00571 5.1241 8.41131 4.52909 10.0558C3.93408 11.7004 3.7784 13.51 4.08174 15.2558C4.38507 17.0016 5.13379 18.6053 6.23322 19.864C7.33265 21.1226 8.73341 21.9798 10.2584 22.3271C11.7833 22.6743 13.364 22.4961 14.8004 21.8149C16.2369 21.1337 17.4647 19.9802 18.3285 18.5001C19.1923 17.0201 19.6534 15.28 19.6534 13.5C19.6505 11.1141 18.8213 8.8268 17.3477 7.13969C15.874 5.45258 13.8761 4.50331 11.792 4.5ZM11.792 17.5C12.3347 17.502 12.8703 17.3582 13.3557 17.0804C13.8412 16.8025 14.2629 16.3982 14.5872 15.9C14.7279 15.6906 14.9346 15.5524 15.1631 15.5151C15.3915 15.4777 15.6237 15.5441 15.8101 15.7C15.9954 15.8591 16.1179 16.096 16.1507 16.3586C16.1834 16.6211 16.1238 16.8878 15.9848 17.1C15.3248 18.1074 14.4046 18.8516 13.3547 19.2271C12.3048 19.6026 11.1782 19.5903 10.1347 19.1921C9.09119 18.7939 8.18356 18.0299 7.54039 17.0083C6.89723 15.9867 6.55113 14.7593 6.55113 13.5C6.55113 12.2407 6.89723 11.0133 7.54039 9.99174C8.18356 8.97015 9.09119 8.20612 10.1347 7.8079C11.1782 7.40968 12.3048 7.39744 13.3547 7.77292C14.4046 8.1484 15.3248 8.89256 15.9848 9.9C16.1238 10.1122 16.1834 10.3789 16.1507 10.6414C16.1179 10.904 15.9954 11.1409 15.8101 11.3C15.6237 11.4559 15.3915 11.5223 15.1631 11.4849C14.9346 11.4476 14.7279 11.3094 14.5872 11.1C14.2298 10.5545 13.7566 10.1227 13.2125 9.8455C12.6684 9.5683 12.0714 9.45493 11.4783 9.51616C10.8851 9.57739 10.3155 9.81119 9.82343 10.1954C9.3314 10.5795 8.93331 11.1013 8.66696 11.7111C8.40062 12.321 8.27486 12.9987 8.30163 13.6798C8.3284 14.3609 8.50681 15.0229 8.81991 15.6029C9.13302 16.1829 9.57043 16.6617 10.0906 16.9937C10.6108 17.3257 11.1965 17.5 11.792 17.5Z" fill="white"/>
</svg>
