<svg width="96" height="28" viewBox="0 0 96 28" fill="none" xmlns="http://www.w3.org/2000/svg">
<g clip-path="url(#clip0_920_705)">
<path d="M18.2658 10.0525C20.0639 11.3371 22.2668 12.0931 24.6458 12.0931V7.51737C24.1956 7.5174 23.7465 7.47048 23.3059 7.37737V10.9791C20.9271 10.9791 18.7246 10.2231 16.9259 8.93846V18.2765C16.9259 22.9478 13.1373 26.7343 8.46389 26.7343C6.72024 26.7343 5.09941 26.2074 3.75317 25.3037C5.28963 26.8741 7.43275 27.8484 9.80341 27.8484C14.4772 27.8484 18.2659 24.0618 18.2659 19.3905V10.0523L18.2658 10.0525ZM19.9187 5.43622C18.9733 4.40644 18.3925 3.09451 18.2658 1.70233V1.11377H16.9961C17.3156 2.93601 18.4058 4.49262 19.9187 5.43622ZM6.70904 21.719C6.19565 21.0462 5.91815 20.223 5.91944 19.3767C5.91944 17.2403 7.65227 15.508 9.79035 15.508C10.1887 15.508 10.5848 15.5689 10.9645 15.6893V11.0114C10.5208 10.9506 10.0729 10.9247 9.62515 10.9341V14.5754C9.24523 14.455 8.84901 14.3938 8.45045 14.3942C6.31237 14.3942 4.57955 16.1262 4.57955 18.263C4.57955 19.7737 5.44568 21.0817 6.70904 21.719Z" fill="#FF004F"/>
<path d="M16.9257 8.93846C18.7244 10.2231 20.9269 10.9789 23.3059 10.9789V7.37718C22.0023 7.09851 20.8181 6.41998 19.9185 5.43622C18.4056 4.49262 17.3154 2.93582 16.9959 1.11377H13.6609V19.3899C13.6534 21.5205 11.9232 23.2457 9.78997 23.2457C8.53277 23.2457 7.41576 22.6467 6.70848 21.719C5.44549 21.0817 4.57917 19.7737 4.57917 18.263C4.57917 16.1264 6.312 14.3942 8.45008 14.3942C8.85962 14.3942 9.25461 14.458 9.62477 14.5754V10.9343C5.03352 11.0291 1.34106 14.7787 1.34106 19.3901C1.34106 21.6921 2.26058 23.7788 3.75298 25.3037C5.14584 26.2389 6.78619 26.737 8.46389 26.7341C13.1373 26.7341 16.9259 22.9474 16.9259 18.2763V8.93846H16.9257Z" fill="white"/>
<path d="M23.3059 7.37707V6.40323C22.1084 6.40506 20.9346 6.06991 19.9186 5.43611C20.8179 6.4202 22.0021 7.09884 23.3059 7.37725V7.37707ZM16.996 1.11403C16.9655 0.939956 16.9421 0.764718 16.9258 0.588747V0H12.3209V18.2763C12.3134 20.4066 10.5838 22.1318 8.45019 22.1318C7.84533 22.1327 7.24874 21.9914 6.70859 21.7192C7.41605 22.647 8.53288 23.2458 9.79008 23.2458C11.9231 23.2458 13.6535 21.5208 13.661 19.3902V1.11384H16.996V1.11403ZM9.62507 10.9346V9.89781C9.24028 9.84521 8.85236 9.81889 8.464 9.81904C3.79024 9.81867 0.00146484 13.6054 0.00146484 18.2763C0.00146484 21.2046 1.49051 23.7854 3.75328 25.3036C2.26088 23.7789 1.34136 21.692 1.34136 19.39C1.34136 14.7788 5.03363 11.0292 9.62507 10.9344V10.9346Z" fill="#00F2EA"/>
<path d="M76.6633 22.9048C80.0073 22.9048 82.7183 20.2159 82.7183 16.899C82.7183 13.5823 80.0073 10.8928 76.6633 10.8928H75.7507C79.0949 10.8928 81.8058 13.5823 81.8058 16.899C81.8058 20.2159 79.0949 22.9048 75.7507 22.9048H76.6632H76.6633Z" fill="#FF004F"/>
<path d="M75.6684 10.8928H74.7561C71.4122 10.8928 68.7007 13.5823 68.7007 16.899C68.7007 20.2159 71.4122 22.9048 74.7561 22.9048H75.6684C72.3239 22.9048 69.6129 20.2159 69.6129 16.899C69.6129 13.5823 72.3239 10.8928 75.6684 10.8928Z" fill="#00F2EA"/>
<path d="M49.79 8.17841V15.0061L53.273 11.5509H57.5029L53.1069 15.8293L58.0007 22.9047H54.2687L50.8684 18.0503L49.79 19.0383V22.8226H46.3063V8.17841H49.79ZM87.363 8.17841V15.0061L90.8468 11.5509H95.0767L90.6807 15.8293L95.5747 22.9051H91.8421L88.441 18.0506L87.363 19.0387V22.823H83.8787V8.17841H87.363ZM75.7505 10.8929C79.0946 10.8929 81.806 13.5824 81.806 16.8991C81.806 20.216 79.0946 22.9049 75.7505 22.9049H75.668C72.3239 22.9049 69.6129 20.216 69.6129 16.8991C69.6129 13.5824 72.3239 10.8929 75.668 10.8929H75.7505ZM40.6667 8.17841L39.6712 11.3049H36.7685V22.8228H33.2011V11.2228H29.6353V8.17822H40.6665L40.6667 8.17841ZM69.8623 8.17841L68.8672 11.3049H65.9645V22.8228H62.3971V11.2228H58.8312V8.17822H69.8623V8.17841ZM44.8129 12.868V22.823H41.3305V12.868H44.8129ZM75.71 13.9789C74.0838 13.9789 72.7648 15.2857 72.7648 16.8991C72.7648 18.5125 74.0838 19.8199 75.71 19.8202C77.3353 19.8202 78.6541 18.5125 78.6541 16.8991C78.6541 15.2857 77.3353 13.9789 75.71 13.9789ZM43.071 8.17841C44.0336 8.17841 44.8129 8.95214 44.8129 9.90601C44.8129 10.8599 44.0342 11.6336 43.071 11.6336C42.1091 11.6332 41.3305 10.8601 41.3305 9.90601C41.3305 8.95214 42.1091 8.17841 43.071 8.17841Z" fill="white"/>
</g>
<defs>
<clipPath id="clip0_920_705">
<rect width="95.5763" height="28" fill="white"/>
</clipPath>
</defs>
</svg>
