<svg width="23" height="23" viewBox="0 0 23 23" fill="none" xmlns="http://www.w3.org/2000/svg">
<path d="M21.9375 19.2312L17.6065 14.9002C17.411 14.7047 17.146 14.5961 16.868 14.5961H16.1599C17.3589 13.0626 18.0713 11.1338 18.0713 9.03566C18.0713 4.04433 14.027 0 9.03566 0C4.04433 0 0 4.04433 0 9.03566C0 14.027 4.04433 18.0713 9.03566 18.0713C11.1338 18.0713 13.0626 17.3589 14.5961 16.1599V16.868C14.5961 17.146 14.7047 17.411 14.9002 17.6065L19.2312 21.9375C19.6395 22.3459 20.2998 22.3459 20.7038 21.9375L21.9332 20.7082C22.3415 20.2998 22.3415 19.6395 21.9375 19.2312ZM9.03566 14.5961C5.9644 14.5961 3.47525 12.1113 3.47525 9.03566C3.47525 5.96441 5.96006 3.47525 9.03566 3.47525C12.1069 3.47525 14.5961 5.96006 14.5961 9.03566C14.5961 12.1069 12.1113 14.5961 9.03566 14.5961Z" fill="white"/>
</svg>
