<svg width="22" height="28" viewBox="0 0 22 28" fill="none" xmlns="http://www.w3.org/2000/svg">
<path d="M0 21.343C0 20.41 0.697286 19.6215 1.6258 19.5185C8.59414 18.7472 13.1147 18.8167 20.0677 19.5357C20.4149 19.5722 20.744 19.7089 21.0148 19.9293C21.2855 20.1497 21.4862 20.4442 21.5924 20.7768C21.6985 21.1094 21.7055 21.4657 21.6124 21.8022C21.5194 22.1387 21.3304 22.4408 21.0685 22.6717C12.8628 29.8243 8.17324 29.7258 0.578061 22.6789C0.207741 22.3357 0 21.8479 0 21.3439V21.343Z" fill="white"/>
<path d="M18.0643 7.22576C18.0643 9.14215 17.303 10.98 15.9479 12.3351C14.5928 13.6902 12.7549 14.4515 10.8386 14.4515C8.92216 14.4515 7.08426 13.6902 5.72917 12.3351C4.37408 10.98 3.61279 9.14215 3.61279 7.22576C3.61279 5.30937 4.37408 3.47147 5.72917 2.11638C7.08426 0.761283 8.92216 0 10.8386 0C12.7549 0 14.5928 0.761283 15.9479 2.11638C17.303 3.47147 18.0643 5.30937 18.0643 7.22576Z" fill="white"/>
</svg>
